{
.appVersion = "1271";
DisplayStrings = (
npoPHO
);
copyright = "Copyright 2012 The Familyname Project Authors (https://github.com/huertatipografica/Caladea)";
customParameters = (
{
name = license;
value = "This Font Software is licensed under the SIL Open Font License, Version 1.1. This license is available with a FAQ at: http://scripts.sil.org/OFL";
},
{
name = licenseURL;
value = "http://scripts.sil.org/OFL";
},
{
name = description;
value = "Copyright 2012 by Huerta Tipografica. All rights reserved.";
},
{
name = trademark;
value = "Caladea is a trademark of Carolina Giovagnoli & Andres Torresi.";
},
{
name = panose;
value = (
2,
4,
5,
3,
5,
4,
6,
3,
2,
4
);
},
{
name = openTypeOS2Type;
value = (
);
},
{
name = glyphOrder;
value = (
.notdef,
space,
nbspace,
A,
B,
C,
D,
E,
F,
G,
H,
I,
J,
K,
L,
M,
N,
O,
P,
Q,
R,
S,
T,
U,
V,
W,
X,
Y,
Z,
a,
b,
c,
d,
e,
f,
g,
h,
i,
j,
k,
l,
m,
n,
o,
p,
q,
r,
s,
t,
u,
v,
w,
x,
y,
z,
Aacute,
Abreve,
Acircumflex,
Adieresis,
Adotbelow,
Agrave,
Amacron,
Aogonek,
Aring,
Aringacute,
Atilde,
AE,
AEacute,
Cacute,
Ccaron,
Ccedilla,
Ccircumflex,
Cdotaccent,
Dcaron,
Dcroat,
Eth,
Eacute,
Ebreve,
Ecaron,
Ecircumflex,
Edieresis,
Edotaccent,
Edotbelow,
Egrave,
Emacron,
Eogonek,
Etilde,
Gbreve,
Gcaron,
Gcircumflex,
Gcommaaccent,
Gdotaccent,
Hbar,
Hcircumflex,
Iacute,
Ibreve,
Icircumflex,
Idieresis,
Idotaccent,
Idotbelow,
Igrave,
Imacron,
Iogonek,
Itilde,
Jcircumflex,
Kcommaaccent,
Lacute,
Lcaron,
Lcommaaccent,
Ldot,
Lslash,
Nacute,
Ncaron,
Ncommaaccent,
Ntilde,
Eng,
Oacute,
Obreve,
Ocircumflex,
Odieresis,
Odotbelow,
Ograve,
Ohungarumlaut,
Omacron,
Oogonek,
Oslash,
Oslashacute,
Otilde,
OE,
Racute,
Rcaron,
Rcommaaccent,
Sacute,
Scaron,
Scedilla,
Scircumflex,
Scommaaccent,
Tbar,
Tcaron,
Tcedilla,
Tcommaaccent,
Thorn,
Uacute,
Ubreve,
Ucircumflex,
Udieresis,
Udotbelow,
Ugrave,
Uhungarumlaut,
Umacron,
Uogonek,
Uring,
Utilde,
Wacute,
Wcircumflex,
Wdieresis,
Wgrave,
Yacute,
Ycircumflex,
Ydieresis,
Ygrave,
Ymacron,
Ytilde,
Zacute,
Zcaron,
Zdotaccent,

glyphs = (
{
glyphname = A;
lastChange = "2019-08-19 16:07:20 +0000";
layers = (
{
anchors = (
{
name = ogonek;
position = "{563, 0}";
},
{
name = top;
position = "{363, 695}";
}
);
layerId = "CF479DE4-94A2-4865-8D1E-65EA355866D4";
paths = (
{
closed = 1;
nodes = (
"563 0 LINE",
"567 37 LINE",
"544 41 OFFCURVE",
"518 46 OFFCURVE",
"496 62 CURVE",
"394 667 LINE",
"329 667 LINE",
"57 60 LINE",
"35 45 OFFCURVE",
"10 41 OFFCURVE",
"-16 37 CURVE",
"-21 0 LINE",
"214 0 LINE",
"219 37 LINE",
"187 41 OFFCURVE",
"152 47 OFFCURVE",
"124 62 CURVE",
"190 215 LINE",
"376 215 LINE",
"399 63 LINE",
"394 63 LINE",
"366 46 OFFCURVE",
"336 41 OFFCURVE",
"304 37 CURVE",
"298 0 LINE"
);
},
{
closed = 1;
nodes = (
"368 267 LINE",
"212 267 LINE",
"328 534 LINE"
);
}
);
width = 588;
},
{
anchors = (
{
name = ogonek;
position = "{546, 0}";
},
{
name = top;
position = "{386, 705}";
}
);
layerId = "0FAD76F5-9F58-4721-BF81-08BC6166EF10";
paths = (
{
closed = 1;
nodes = (
"384 52 OFFCURVE",
"359 44 OFFCURVE",
"330 40 CURVE",
"324 0 LINE",
"600 0 LINE",
"604 40 LINE",
"581 44 OFFCURVE",
"559 53 OFFCURVE",
"550 74 CURVE",
"429 667 LINE",
"325 667 LINE",
"16 65 LINE",
"1 48 OFFCURVE",
"-24 42 OFFCURVE",
"-50 40 CURVE",
"-55 0 LINE",
"171 0 LINE",
"176 40 LINE",
"143 44 OFFCURVE",
"113 54 OFFCURVE",
"96 70 CURVE",
"166 208 LINE",
"372 208 LINE",
"396 65 LINE"
);
},
{
closed = 1;
nodes = (
"361 271 LINE",
"198 271 LINE",
"321 511 LINE"
);
}
);
width = 614;
}
);
unicode = 0041;
},
{
glyphname = B;
lastChange = "2019-08-19 16:07:20 +0000";
layers = (
{
anchors = (
{
name = top;
position = "{379, 705}";
}
);
layerId = "CF479DE4-94A2-4865-8D1E-65EA355866D4";
paths = (
{
closed = 1;
nodes = (
"131 630 LINE",
"163 626 OFFCURVE",
"192 619 OFFCURVE",
"217 604 CURVE",
"131 63 LINE",
"108 49 OFFCURVE",
"82 42 OFFCURVE",
"41 37 CURVE",
"35 0 LINE",
"278 0 LINE SMOOTH",
"462 0 OFFCURVE",
"541 102 OFFCURVE",
"541 214 CURVE SMOOTH",
"541 281 OFFCURVE",
"498 329 OFFCURVE",
"425 352 CURVE",
"521 375 OFFCURVE",
"575 435 OFFCURVE",
"575 531 CURVE SMOOTH",
"575 618 OFFCURVE",
"509 667 OFFCURVE",
"373 667 CURVE SMOOTH",
"136 667 LINE"
);
},
{
closed = 1;
nodes = (
"405 327 OFFCURVE",
"451 284 OFFCURVE",
"451 214 CURVE SMOOTH",
"451 109 OFFCURVE",
"387 49 OFFCURVE",
"291 49 CURVE SMOOTH",
"238 49 OFFCURVE",
"222 59 OFFCURVE",
"222 81 CURVE SMOOTH",
"222 84 OFFCURVE",
"222 87 OFFCURVE",
"223 90 CURVE SMOOTH",
"261 327 LINE",
"309 327 LINE"
);
},
{
closed = 1;
nodes = (
"448 620 OFFCURVE",
"487 592 OFFCURVE",
"487 530 CURVE SMOOTH",
"487 426 OFFCURVE",
"430 376 OFFCURVE",
"327 376 CURVE SMOOTH",
"268 376 LINE",
"300 578 LINE SMOOTH",
"306 615 OFFCURVE",
"316 619 OFFCURVE",
"364 620 CURVE",
"364 620 LINE"
);
}
);
width = 596;
},
{
layerId = "0FAD76F5-9F58-4721-BF81-08BC6166EF10";
paths = (
{
closed = 1;
nodes = (
"122 622 OFFCURVE",
"149 610 OFFCURVE",
"160 596 CURVE",
"77 71 LINE",
"56 55 OFFCURVE",
"38 46 OFFCURVE",
"5 41 CURVE",
"0 0 LINE",
"283 0 LINE SMOOTH",
"477 0 OFFCURVE",
"595 92 OFFCURVE",
"595 221 CURVE SMOOTH",
"595 290 OFFCURVE",
"553 334 OFFCURVE",
"475 359 CURVE",
"571 383 OFFCURVE",
"615 442 OFFCURVE",
"615 526 CURVE SMOOTH",
"615 619 OFFCURVE",
"540 667 OFFCURVE",
"380 667 CURVE SMOOTH",
"100 667 LINE",
"94 626 LINE"
);
},
{
closed = 1;
nodes = (
"296 320 LINE SMOOTH",
"381 320 OFFCURVE",
"435 293 OFFCURVE",
"435 227 CURVE SMOOTH",
"435 131 OFFCURVE",
"390 65 OFFCURVE",
"278 62 CURVE",
"240 64 OFFCURVE",
"228 73 OFFCURVE",
"228 96 CURVE SMOOTH",
"228 102 OFFCURVE",
"229 108 OFFCURVE",
"230 116 CURVE SMOOTH",
"263 320 LINE"
);
},
{
closed = 1;
nodes = (
"466 426 OFFCURVE",
"404 383 OFFCURVE",
"299 383 CURVE SMOOTH",
"273 383 LINE",
"304 577 LINE",
"311 600 OFFCURVE",
"322 605 OFFCURVE",
"355 606 CURVE",
"433 603 OFFCURVE",
"466 575 OFFCURVE",
"466 521 CURVE SMOOTH",
"466 521 LINE"
);
}
);
width = 625;
}
);
unicode = 0042;
},
{
glyphname = C;
lastChange = "2019-08-19 16:07:20 +0000";
layers = (
{
anchors = (
{
name = cedilla;
position = "{257, 0}";
},
{
name = top;
position = "{397, 705}";
}
);
layerId = "CF479DE4-94A2-4865-8D1E-65EA355866D4";
paths = (
{
closed = 1;
nodes = (
"438 622 OFFCURVE",
"463 592 OFFCURVE",
"463 560 CURVE SMOOTH",
"463 543 OFFCURVE",
"456 525 OFFCURVE",
"443 511 CURVE",
"445 488 OFFCURVE",
"466 472 OFFCURVE",
"493 472 CURVE SMOOTH",
"539 472 OFFCURVE",
"559 520 OFFCURVE",
"559 559 CURVE SMOOTH",
"559 620 OFFCURVE",
"505 675 OFFCURVE",
"395 675 CURVE SMOOTH",
"176 675 OFFCURVE",
"70 479 OFFCURVE",
"70 229 CURVE SMOOTH",
"70 71 OFFCURVE",
"147 -7 OFFCURVE",
"256 -7 CURVE SMOOTH",
"349 -7 OFFCURVE",
"416 28 OFFCURVE",
"504 98 CURVE",
"472 141 LINE",
"403 86 OFFCURVE",
"340 51 OFFCURVE",
"277 51 CURVE SMOOTH",
"212 51 OFFCURVE",
"167 98 OFFCURVE",
"167 213 CURVE SMOOTH",
"167 422 OFFCURVE",
"236 623 OFFCURVE",
"385 624 CURVE",
"385 624 LINE"
);
}
);
width = 540;
},
{
anchors = (
{
name = cedilla;
position = "{285, 0}";
},
{
name = top;
position = "{375, 705}";
}
);
layerId = "0FAD76F5-9F58-4721-BF81-08BC6166EF10";
paths = (
{
closed = 1;
nodes = (
"364 -10 OFFCURVE",
"451 31 OFFCURVE",
"525 101 CURVE",
"497 133 LINE",
"443 84 OFFCURVE",
"386 58 OFFCURVE",
"333 58 CURVE SMOOTH",
"248 58 OFFCURVE",
"212 127 OFFCURVE",
"212 246 CURVE SMOOTH",
"212 407 OFFCURVE",
"255 621 OFFCURVE",
"384 621 CURVE SMOOTH",
"421 621 OFFCURVE",
"443 599 OFFCURVE",
"443 565 CURVE SMOOTH",
"443 544 OFFCURVE",
"433 522 OFFCURVE",
"418 502 CURVE",
"426 475 OFFCURVE",
"455 456 OFFCURVE",
"487 456 CURVE SMOOTH",
"537 456 OFFCURVE",
"582 501 OFFCURVE",
"582 555 CURVE SMOOTH",
"582 626 OFFCURVE",
"509 674 OFFCURVE",
"397 674 CURVE SMOOTH",
"165 674 OFFCURVE",
"47 511 OFFCURVE",
"47 249 CURVE SMOOTH",
"47 81 OFFCURVE",
"130 -10 OFFCURVE",
"289 -10 CURVE SMOOTH",
"289 -10 LINE"
);
}
);
width = 552;
}
);
unicode = 0043;
},
{
glyphname = D;
lastChange = "2019-08-19 16:07:20 +0000";
layers = (
{
anchors = (
{
name = cedilla;
position = "{279, 0}";
},
{
name = top;
position = "{368, 705}";
}
);
layerId = "CF479DE4-94A2-4865-8D1E-65EA355866D4";
paths = (
{
closed = 1;
nodes = (
"117 630 LINE",
"148 626 OFFCURVE",
"177 619 OFFCURVE",
"202 604 CURVE",
"116 62 LINE",
"88 45 OFFCURVE",
"58 41 OFFCURVE",
"26 37 CURVE",
"21 0 LINE",
"228 0 LINE SMOOTH",
"478 0 OFFCURVE",
"617 159 OFFCURVE",
"617 431 CURVE SMOOTH",
"617 602 OFFCURVE",
"510 667 OFFCURVE",
"333 667 CURVE SMOOTH",
"122 667 LINE"
);
},
{
closed = 1;
nodes = (
"446 617 OFFCURVE",
"519 578 OFFCURVE",
"519 441 CURVE SMOOTH",
"519 274 OFFCURVE",
"449 49 OFFCURVE",
"264 49 CURVE SMOOTH",
"223 49 OFFCURVE",
"207 57 OFFCURVE",
"207 80 CURVE SMOOTH",
"207 83 OFFCURVE",
"207 86 OFFCURVE",
"208 90 CURVE SMOOTH",
"292 617 LINE",
"339 617 LINE"
);
}
);
width = 646;
},
{
anchors = (
{
name = top;
position = "{386, 705}";
}
);
layerId = "0FAD76F5-9F58-4721-BF81-08BC6166EF10";
paths = (
{
closed = 1;
nodes = (
"115 622 OFFCURVE",
"142 610 OFFCURVE",
"153 596 CURVE",
"69 70 LINE",
"48 55 OFFCURVE",
"30 46 OFFCURVE",
"-2 41 CURVE",
"-7 0 LINE",
"218 0 LINE SMOOTH",
"548 0 OFFCURVE",
"648 204 OFFCURVE",
"648 413 CURVE SMOOTH",
"648 608 OFFCURVE",
"502 667 OFFCURVE",
"302 667 CURVE SMOOTH",
"93 667 LINE",
"87 626 LINE"
);
},
{
closed = 1;
nodes = (
"329 605 LINE SMOOTH",
"434 605 OFFCURVE",
"492 549 OFFCURVE",
"492 429 CURVE SMOOTH",
"492 297 OFFCURVE",
"457 63 OFFCURVE",
"258 63 CURVE SMOOTH",
"233 63 OFFCURVE",
"222 75 OFFCURVE",
"222 99 CURVE SMOOTH",
"222 104 OFFCURVE",
"223 110 OFFCURVE",
"224 117 CURVE SMOOTH",
"302 605 LINE"
);
}
);
width = 679;
}
);
unicode = 0044;
},
{
glyphname = E;
lastChange = "2019-08-19 16:07:20 +0000";
layers = (
{
anchors = (
{
name = cedilla;
position = "{279, 0}";
},
{
name = ogonek;
position = "{400, 0}";
},
{
name = top;
position = "{375, 705}";
}
);
layerId = "CF479DE4-94A2-4865-8D1E-65EA355866D4";
paths = (
{
closed = 1;
nodes = (
"494 169 LINE",
"486 170 OFFCURVE",
"479 171 OFFCURVE",
"473 171 CURVE SMOOTH",
"466 171 OFFCURVE",
"459 170 OFFCURVE",
"453 169 CURVE",
"441 136 OFFCURVE",
"424 92 OFFCURVE",
"393 57 CURVE",
"199 57 LINE",
"240 316 LINE",
"344 312 LINE SMOOTH",
"387 310 OFFCURVE",
"386 262 OFFCURVE",
"390 239 CURVE",
"421 239 LINE",
"452 434 LINE",
"420 434 LINE",
"411 412 OFFCURVE",
"390 371 OFFCURVE",
"355 368 CURVE SMOOTH",
"338 366 OFFCURVE",
"285 364 OFFCURVE",
"248 363 CURVE",
"288 614 LINE",
"472 614 LINE",
"492 583 OFFCURVE",
"496 544 OFFCURVE",
"497 513 CURVE",
"502 512 OFFCURVE",
"507 511 OFFCURVE",
"512 511 CURVE SMOOTH",
"522 511 OFFCURVE",
"532 513 OFFCURVE",
"541 516 CURVE",
"556 667 LINE",
"117 667 LINE",
"112 630 LINE",
"145 626 OFFCURVE",
"173 619 OFFCURVE",
"198 604 CURVE",
"112 63 LINE",
"84 46 OFFCURVE",
"55 41 OFFCURVE",
"22 37 CURVE",
"17 0 LINE",
"458 0 LINE"
);
}
);
width = 568;
},
{
anchors = (
{
name = ogonek;
position = "{491, 0}";
},
{
name = top;
position = "{354, 705}";
}
);
layerId = "0FAD76F5-9F58-4721-BF81-08BC6166EF10";
paths = (
{
closed = 1;
nodes = (
"107 622 OFFCURVE",
"134 610 OFFCURVE",
"145 596 CURVE",
"62 71 LINE",
"41 55 OFFCURVE",
"23 46 OFFCURVE",
"-10 41 CURVE",
"-15 0 LINE",
"485 0 LINE",
"525 188 LINE",
"518 190 OFFCURVE",
"510 191 OFFCURVE",
"503 191 CURVE SMOOTH",
"484 191 OFFCURVE",
"471 188 OFFCURVE",
"457 184 CURVE",
"446 153 OFFCURVE",
"425 101 OFFCURVE",
"394 62 CURVE",
"207 62 LINE",
"247 314 LINE",
"335 310 LINE SMOOTH",
"358 309 OFFCURVE",
"370 290 OFFCURVE",
"380 236 CURVE",
"422 236 LINE",
"455 443 LINE",
"413 443 LINE",
"397 404 OFFCURVE",
"371 377 OFFCURVE",
"347 376 CURVE SMOOTH",
"256 372 LINE",
"294 606 LINE",
"463 606 LINE",
"480 572 OFFCURVE",
"484 528 OFFCURVE",
"485 499 CURVE",
"492 497 OFFCURVE",
"500 496 OFFCURVE",
"507 496 CURVE SMOOTH",
"526 496 OFFCURVE",
"539 499 OFFCURVE",
"553 503 CURVE",
"575 667 LINE",
"85 667 LINE",
"79 626 LINE"
);
}
);
width = 562;
}
);
unicode = 0045;
},
{
glyphname = F;
lastChange = "2019-08-19 16:07:20 +0000";
layers = (
{
anchors = (
{
name = top;
position = "{364, 705}";
}
);
layerId = "CF479DE4-94A2-4865-8D1E-65EA355866D4";
paths = (
{
closed = 1;
nodes = (
"69 46 OFFCURVE",
"40 41 OFFCURVE",
"7 37 CURVE",
"1 0 LINE",
"276 0 LINE",
"281 37 LINE",
"249 41 OFFCURVE",
"210 47 OFFCURVE",
"185 63 CURVE",
"224 311 LINE",
"329 307 LINE SMOOTH",
"372 305 OFFCURVE",
"371 257 OFFCURVE",
"375 234 CURVE",
"406 234 LINE",
"437 429 LINE",
"405 429 LINE",
"396 407 OFFCURVE",
"375 365 OFFCURVE",
"340 363 CURVE SMOOTH",
"232 358 LINE",
"273 614 LINE",
"452 614 LINE",
"473 583 OFFCURVE",
"481 544 OFFCURVE",
"482 513 CURVE",
"487 512 OFFCURVE",
"492 511 OFFCURVE",
"497 511 CURVE SMOOTH",
"507 511 OFFCURVE",
"517 513 OFFCURVE",
"526 516 CURVE",
"542 667 LINE",
"103 667 LINE",
"98 630 LINE",
"129 626 OFFCURVE",
"158 619 OFFCURVE",
"183 604 CURVE",
"97 63 LINE"
);
}
);
width = 527;
},
{
layerId = "0FAD76F5-9F58-4721-BF81-08BC6166EF10";
paths = (
{
closed = 1;
nodes = (
"107 622 OFFCURVE",
"134 610 OFFCURVE",
"145 596 CURVE",
"62 71 LINE",
"41 55 OFFCURVE",
"23 46 OFFCURVE",
"-10 41 CURVE",
"-15 0 LINE",
"291 0 LINE",
"296 41 LINE",
"264 48 OFFCURVE",
"222 57 OFFCURVE",
"209 71 CURVE",
"246 304 LINE",
"334 300 LINE SMOOTH",
"357 299 OFFCURVE",
"369 280 OFFCURVE",
"379 226 CURVE",
"421 226 LINE",
"454 433 LINE",
"412 433 LINE",
"396 394 OFFCURVE",
"370 367 OFFCURVE",
"346 366 CURVE SMOOTH",
"255 362 LINE",
"294 606 LINE",
"464 606 LINE",
"481 572 OFFCURVE",
"485 528 OFFCURVE",
"486 499 CURVE",
"493 497 OFFCURVE",
"501 496 OFFCURVE",
"508 496 CURVE SMOOTH",
"527 496 OFFCURVE",
"540 499 OFFCURVE",
"554 503 CURVE",
"576 667 LINE",
"85 667 LINE",
"79 626 LINE"
);
}
);
width = 536;
}
);
unicode = 0046;
},
{
glyphname = G;
lastChange = "2019-08-19 16:07:20 +0000";
layers = (
{
anchors = (
{
name = bottom;
position = "{288, 0}";
},
{
name = cedilla;
position = "{259, 0}";
},
{
name = top;
position = "{400, 705}";
}
);
layerId = "CF479DE4-94A2-4865-8D1E-65EA355866D4";
paths = (
{
closed = 1;
nodes = (
"385 250 OFFCURVE",
"418 243 OFFCURVE",
"441 236 CURVE",
"420 107 LINE SMOOTH",
"412 59 OFFCURVE",
"326 49 OFFCURVE",
"289 49 CURVE SMOOTH",
"219 49 OFFCURVE",
"167 91 OFFCURVE",
"167 213 CURVE SMOOTH",
"167 424 OFFCURVE",
"236 624 OFFCURVE",
"385 624 CURVE SMOOTH",
"438 624 OFFCURVE",
"463 591 OFFCURVE",
"463 560 CURVE SMOOTH",
"463 543 OFFCURVE",
"456 525 OFFCURVE",
"443 511 CURVE",
"445 488 OFFCURVE",
"466 472 OFFCURVE",
"493 472 CURVE SMOOTH",
"539 472 OFFCURVE",
"559 520 OFFCURVE",
"559 559 CURVE SMOOTH",
"559 620 OFFCURVE",
"505 675 OFFCURVE",
"395 675 CURVE SMOOTH",
"176 675 OFFCURVE",
"70 479 OFFCURVE",
"70 229 CURVE SMOOTH",
"70 55 OFFCURVE",
"163 -8 OFFCURVE",
"275 -8 CURVE SMOOTH",
"345 -8 OFFCURVE",
"424 11 OFFCURVE",
"490 55 CURVE",
"531 296 LINE",
"349 296 LINE",
"343 254 LINE"
);
}
);
width = 585;
},
{
anchors = (
{
name = bottom;
position = "{323, 0}";
},
{
name = top;
position = "{403, 705}";
}
);
background = {
paths = (
{
closed = 1;
nodes = (
"363 254 LINE",
"405 250 OFFCURVE",
"438 243 OFFCURVE",
"461 236 CURVE",
"440 107 LINE SMOOTH",
"432 59 OFFCURVE",
"346 49 OFFCURVE",
"309 49 CURVE SMOOTH",
"239 49 OFFCURVE",
"187 91 OFFCURVE",
"187 213 CURVE SMOOTH",
"187 424 OFFCURVE",
"256 624 OFFCURVE",
"405 624 CURVE SMOOTH",
"458 624 OFFCURVE",
"483 591 OFFCURVE",
"483 560 CURVE SMOOTH",
"483 543 OFFCURVE",
"476 525 OFFCURVE",
"463 511 CURVE",
"465 488 OFFCURVE",
"486 472 OFFCURVE",
"513 472 CURVE SMOOTH",
"559 472 OFFCURVE",
"579 520 OFFCURVE",
"579 559 CURVE SMOOTH",
"579 620 OFFCURVE",
"525 675 OFFCURVE",
"415 675 CURVE SMOOTH",
"196 675 OFFCURVE",
"90 479 OFFCURVE",
"90 229 CURVE SMOOTH",
"90 55 OFFCURVE",
"183 -8 OFFCURVE",
"295 -8 CURVE SMOOTH",
"365 -8 OFFCURVE",
"444 11 OFFCURVE",
"510 55 CURVE",
"551 296 LINE",
"369 296 LINE"
);
},
{
closed = 1;
nodes = (
"588 310 LINE",
"361 310 LINE",
"353 252 LINE",
"384 250 OFFCURVE",
"409 244 OFFCURVE",
"428 233 CURVE",
"402 72 LINE",
"386 64 OFFCURVE",
"359 58 OFFCURVE",
"337 58 CURVE SMOOTH",
"249 58 OFFCURVE",
"206 121 OFFCURVE",
"206 249 CURVE SMOOTH",
"206 456 OFFCURVE",
"271 621 OFFCURVE",
"403 621 CURVE SMOOTH",
"453 621 OFFCURVE",
"478 601 OFFCURVE",
"478 564 CURVE SMOOTH",
"478 542 OFFCURVE",
"468 524 OFFCURVE",
"452 502 CURVE",
"460 475 OFFCURVE",
"489 456 OFFCURVE",
"521 456 CURVE SMOOTH",
"571 456 OFFCURVE",
"616 501 OFFCURVE",
"616 555 CURVE SMOOTH",
"616 625 OFFCURVE",
"537 674 OFFCURVE",
"416 674 CURVE SMOOTH",
"175 674 OFFCURVE",
"51 513 OFFCURVE",
"51 249 CURVE SMOOTH",
"51 81 OFFCURVE",
"133 -10 OFFCURVE",
"293 -10 CURVE SMOOTH",
"380 -10 OFFCURVE",
"474 18 OFFCURVE",
"548 66 CURVE"
);
}
);
};
layerId = "0FAD76F5-9F58-4721-BF81-08BC6166EF10";
paths = (
{
closed = 1;
nodes = (
"361 310 LINE",
"353 252 LINE",
"384 250 OFFCURVE",
"409 244 OFFCURVE",
"428 233 CURVE",
"405 91 LINE",
"400 70 OFFCURVE",
"373 58 OFFCURVE",
"337 58 CURVE SMOOTH",
"249 58 OFFCURVE",
"206 121 OFFCURVE",
"206 249 CURVE SMOOTH",
"206 456 OFFCURVE",
"271 621 OFFCURVE",
"403 621 CURVE SMOOTH",
"453 621 OFFCURVE",
"478 601 OFFCURVE",
"478 564 CURVE SMOOTH",
"478 542 OFFCURVE",
"468 524 OFFCURVE",
"452 502 CURVE",
"460 475 OFFCURVE",
"489 456 OFFCURVE",
"521 456 CURVE SMOOTH",
"571 456 OFFCURVE",
"616 501 OFFCURVE",
"616 555 CURVE SMOOTH",
"616 625 OFFCURVE",
"537 674 OFFCURVE",
"416 674 CURVE SMOOTH",
"175 674 OFFCURVE",
"51 513 OFFCURVE",
"51 249 CURVE SMOOTH",
"51 81 OFFCURVE",
"133 -10 OFFCURVE",
"293 -10 CURVE SMOOTH",
"380 -10 OFFCURVE",
"474 18 OFFCURVE",
"548 66 CURVE",
"588 310 LINE"
);
}
);
width = 619;
}
);
unicode = 0047;
},
{
glyphname = H;
lastChange = "2019-08-19 16:07:20 +0000";
layers = (
{
anchors = (
{
name = cedilla;
position = "{136, 0}";
},
{
name = top;
position = "{408, 705}";
}
);
layerId = "CF479DE4-94A2-4865-8D1E-65EA355866D4";
paths = (
{
closed = 1;
nodes = (
"265 0 LINE",
"269 37 LINE",
"237 41 OFFCURVE",
"211 47 OFFCURVE",
"184 63 CURVE",
"224 315 LINE",
"479 315 LINE",
"439 63 LINE",
"411 46 OFFCURVE",
"391 41 OFFCURVE",
"359 37 CURVE",
"354 0 LINE",
"613 0 LINE",
"618 37 LINE",
"585 41 OFFCURVE",
"555 47 OFFCURVE",
"527 63 CURVE",
"613 604 LINE",
"640 620 OFFCURVE",
"660 626 OFFCURVE",
"692 630 CURVE",
"698 667 LINE",
"444 667 LINE",
"440 630 LINE",
"472 626 OFFCURVE",
"498 619 OFFCURVE",
"525 604 CURVE",
"487 369 LINE",
"232 369 LINE",
"270 604 LINE",
"297 620 OFFCURVE",
"317 626 OFFCURVE",
"350 630 CURVE",
"355 667 LINE",
"101 667 LINE",
"96 630 LINE",
"129 626 OFFCURVE",
"157 619 OFFCURVE",
"182 604 CURVE",
"96 63 LINE",
"68 46 OFFCURVE",
"43 41 OFFCURVE",
"11 37 CURVE",
"6 0 LINE"
);
}
);
width = 669;
},
{
anchors = (
{
name = top;
position = "{414, 705}";
}
);
layerId = "0FAD76F5-9F58-4721-BF81-08BC6166EF10";
paths = (
{
closed = 1;
nodes = (
"464 622 OFFCURVE",
"491 610 OFFCURVE",
"502 596 CURVE",
"467 373 LINE",
"258 373 LINE",
"293 596 LINE",
"316 613 OFFCURVE",
"333 620 OFFCURVE",
"366 626 CURVE",
"372 667 LINE",
"86 667 LINE",
"80 626 LINE",
"108 622 OFFCURVE",
"135 610 OFFCURVE",
"146 596 CURVE",
"63 71 LINE",
"42 55 OFFCURVE",
"24 46 OFFCURVE",
"-9 41 CURVE",
"-14 0 LINE",
"272 0 LINE",
"277 41 LINE",
"245 48 OFFCURVE",
"223 57 OFFCURVE",
"210 71 CURVE",
"248 310 LINE",
"457 310 LINE",
"419 71 LINE",
"398 55 OFFCURVE",
"380 46 OFFCURVE",
"347 41 CURVE",
"342 0 LINE",
"628 0 LINE",
"633 41 LINE",
"601 48 OFFCURVE",
"579 57 OFFCURVE",
"566 71 CURVE",
"649 596 LINE",
"672 613 OFFCURVE",
"689 620 OFFCURVE",
"722 626 CURVE",
"728 667 LINE",
"442 667 LINE",
"436 626 LINE"
);
}
);
width = 691;
}
);
unicode = 0048;
},
{
glyphname = I;
lastChange = "2019-08-19 16:07:20 +0000";
layers = (
{
anchors = (
{
name = ogonek;
position = "{143, 0}";
},
{
name = top;
position = "{243, 705}";
}
);
layerId = "CF479DE4-94A2-4865-8D1E-65EA355866D4";
paths = (
{
closed = 1;
nodes = (
"271 0 LINE",
"276 37 LINE",
"244 41 OFFCURVE",
"213 47 OFFCURVE",
"186 63 CURVE",
"272 604 LINE",
"300 620 OFFCURVE",
"325 626 OFFCURVE",
"357 630 CURVE",
"362 667 LINE",
"103 667 LINE",
"98 630 LINE",
"131 626 OFFCURVE",
"159 619 OFFCURVE",
"184 604 CURVE",
"98 63 LINE",
"70 46 OFFCURVE",
"44 41 OFFCURVE",
"12 37 CURVE",
"7 0 LINE"
);
}
);
width = 320;
},
{
anchors = (
{
name = ogonek;
position = "{200, 0}";
},
{
name = top;
position = "{243, 705}";
}
);
layerId = "0FAD76F5-9F58-4721-BF81-08BC6166EF10";
paths = (
{
closed = 1;
nodes = (
"117 622 OFFCURVE",
"144 610 OFFCURVE",
"155 596 CURVE",
"72 71 LINE",
"51 55 OFFCURVE",
"33 46 OFFCURVE",
"0 41 CURVE",
"-5 0 LINE",
"281 0 LINE",
"286 41 LINE",
"254 48 OFFCURVE",
"232 57 OFFCURVE",
"219 71 CURVE",
"302 596 LINE",
"325 613 OFFCURVE",
"342 620 OFFCURVE",
"375 626 CURVE",
"381 667 LINE",
"95 667 LINE",
"89 626 LINE"
);
}
);
width = 341;
}
);
unicode = 0049;
},
{
glyphname = J;
lastChange = "2019-08-19 16:07:20 +0000";
layers = (
{
anchors = (
{
name = top;
position = "{242, 705}";
}
);
layerId = "CF479DE4-94A2-4865-8D1E-65EA355866D4";
paths = (
{
closed = 1;
nodes = (
"299 620 OFFCURVE",
"324 626 OFFCURVE",
"356 630 CURVE",
"362 667 LINE",
"102 667 LINE",
"97 630 LINE",
"130 626 OFFCURVE",
"159 619 OFFCURVE",
"184 604 CURVE",
"88 1 LINE SMOOTH",
"73 -96 OFFCURVE",
"9 -139 OFFCURVE",
"-54 -165 CURVE",
"-48 -195 LINE",
"73 -165 OFFCURVE",
"160 -106 OFFCURVE",
"179 16 CURVE SMOOTH",
"272 604 LINE"
);
}
);
width = 299;
},
{
anchors = (
{
name = top;
position = "{244, 705}";
}
);
layerId = "0FAD76F5-9F58-4721-BF81-08BC6166EF10";
paths = (
{
closed = 1;
nodes = (
"115 622 OFFCURVE",
"142 610 OFFCURVE",
"153 596 CURVE",
"59 1 LINE SMOOTH",
"44 -95 OFFCURVE",
"-15 -137 OFFCURVE",
"-69 -163 CURVE",
"-57 -218 LINE",
"87 -183 OFFCURVE",
"188 -119 OFFCURVE",
"209 16 CURVE SMOOTH",
"300 596 LINE",
"323 613 OFFCURVE",
"340 620 OFFCURVE",
"373 626 CURVE",
"379 667 LINE",
"93 667 LINE",
"87 626 LINE"
);
}
);
width = 333;
}
);
unicode = 004A;
},
{
glyphname = K;
lastChange = "2019-08-19 16:07:20 +0000";
layers = (
{
anchors = (
{
name = bottom;
position = "{321, 0}";
},
{
name = cedilla;
position = "{287, 0}";
},
{
name = top;
position = "{388, 705}";
}
);
layerId = "CF479DE4-94A2-4865-8D1E-65EA355866D4";
paths = (
{
closed = 1;
nodes = (
"280 0 LINE",
"284 37 LINE",
"252 41 OFFCURVE",
"222 47 OFFCURVE",
"194 63 CURVE",
"282 612 LINE",
"304 622 OFFCURVE",
"324 627 OFFCURVE",
"351 630 CURVE",
"356 667 LINE",
"111 667 LINE",
"106 630 LINE",
"139 626 OFFCURVE",
"168 619 OFFCURVE",
"192 604 CURVE",
"105 63 LINE",
"78 46 OFFCURVE",
"53 41 OFFCURVE",
"21 37 CURVE",
"15 0 LINE"
);
},
{
closed = 1;
nodes = (
"379 66 LINE SMOOTH",
"403 17 OFFCURVE",
"417 0 OFFCURVE",
"465 0 CURVE SMOOTH",
"558 0 LINE",
"569 38 LINE",
"518 44 OFFCURVE",
"490 58 OFFCURVE",
"478 83 CURVE SMOOTH",
"332 369 LINE",
"553 608 LINE",
"579 627 OFFCURVE",
"609 630 OFFCURVE",
"633 630 CURVE",
"637 667 LINE",
"419 667 LINE",
"414 630 LINE",
"448 629 OFFCURVE",
"463 620 OFFCURVE",
"463 602 CURVE SMOOTH",
"463 596 OFFCURVE",
"461 590 OFFCURVE",
"451 579 CURVE SMOOTH",
"242 347 LINE"
);
}
);
width = 603;
},
{
anchors = (
{
name = bottom;
position = "{317, 0}";
}
);
layerId = "0FAD76F5-9F58-4721-BF81-08BC6166EF10";
paths = (
{
closed = 1;
nodes = (
"382 58 LINE",
"392 38 OFFCURVE",
"411 0 OFFCURVE",
"462 0 CURVE SMOOTH",
"619 0 LINE",
"624 41 LINE",
"589 48 OFFCURVE",
"570 59 OFFCURVE",
"552 76 CURVE",
"425 391 LINE",
"613 589 LINE SMOOTH",
"645 622 OFFCURVE",
"686 625 OFFCURVE",
"706 626 CURVE",
"712 667 LINE",
"474 667 LINE",
"469 626 LINE",
"495 626 OFFCURVE",
"517 620 OFFCURVE",
"517 603 CURVE SMOOTH",
"517 597 OFFCURVE",
"513 589 OFFCURVE",
"505 581 CURVE SMOOTH",
"272 341 LINE"
);
},
{
closed = 1;
nodes = (
"113 622 OFFCURVE",
"140 610 OFFCURVE",
"151 596 CURVE",
"68 71 LINE",
"47 55 OFFCURVE",
"29 46 OFFCURVE",
"-4 41 CURVE",
"-9 0 LINE",
"277 0 LINE",
"282 41 LINE",
"250 48 OFFCURVE",
"228 57 OFFCURVE",
"215 71 CURVE",
"298 596 LINE",
"321 613 OFFCURVE",
"338 620 OFFCURVE",
"371 626 CURVE",
"377 667 LINE",
"91 667 LINE",
"85 626 LINE"
);
}
);
width = 655;
}
);
unicode = 004B;
},
{
glyphname = L;
lastChange = "2019-08-19 16:07:20 +0000";
layers = (
{
anchors = (
{
name = bottom;
position = "{285, 0}";
},
{
name = cedilla;
position = "{241, 0}";
},
{
name = top;
position = "{267, 705}";
}
);
layerId = "CF479DE4-94A2-4865-8D1E-65EA355866D4";
paths = (
{
closed = 1;
nodes = (
"89 46 OFFCURVE",
"64 41 OFFCURVE",
"32 37 CURVE",
"26 0 LINE",
"438 0 LINE",
"475 169 LINE",
"467 170 OFFCURVE",
"460 171 OFFCURVE",
"454 171 CURVE SMOOTH",
"447 171 OFFCURVE",
"440 170 OFFCURVE",
"434 169 CURVE",
"422 136 OFFCURVE",
"404 92 OFFCURVE",
"374 57 CURVE",
"277 57 LINE SMOOTH",
"227 57 OFFCURVE",
"210 64 OFFCURVE",
"210 88 CURVE SMOOTH",
"210 91 OFFCURVE",
"212 104 OFFCURVE",
"214 115 CURVE SMOOTH",
"292 604 LINE",
"319 620 OFFCURVE",
"354 626 OFFCURVE",
"387 630 CURVE",
"392 667 LINE",
"123 667 LINE",
"118 630 LINE",
"150 626 OFFCURVE",
"179 619 OFFCURVE",
"204 604 CURVE",
"117 63 LINE"
);
}
);
width = 523;
},
{
anchors = (
{
name = bottom;
position = "{275, 0}";
},
{
name = top;
position = "{263, 705}";
}
);
layerId = "0FAD76F5-9F58-4721-BF81-08BC6166EF10";
paths = (
{
closed = 1;
nodes = (
"127 622 OFFCURVE",
"154 610 OFFCURVE",
"165 596 CURVE",
"82 71 LINE",
"61 55 OFFCURVE",
"43 46 OFFCURVE",
"10 41 CURVE",
"5 0 LINE",
"465 0 LINE",
"505 188 LINE",
"498 190 OFFCURVE",
"490 191 OFFCURVE",
"483 191 CURVE SMOOTH",
"464 191 OFFCURVE",
"451 188 OFFCURVE",
"437 184 CURVE",
"426 153 OFFCURVE",
"405 101 OFFCURVE",
"374 62 CURVE",
"227 62 LINE",
"312 596 LINE",
"335 613 OFFCURVE",
"362 620 OFFCURVE",
"395 626 CURVE",
"401 667 LINE",
"105 667 LINE",
"99 626 LINE"
);
}
);
width = 531;
}
);
unicode = 004C;
},
{
glyphname = M;
lastChange = "2019-08-19 16:07:20 +0000";
layers = (
{
anchors = (
{
name = top;
position = "{469, 705}";
}
);
layerId = "CF479DE4-94A2-4865-8D1E-65EA355866D4";
paths = (
{
closed = 1;
nodes = (
"653 512 LINE",
"575 63 LINE",
"547 46 OFFCURVE",
"522 41 OFFCURVE",
"490 37 CURVE",
"485 0 LINE",
"749 0 LINE",
"753 37 LINE",
"721 41 OFFCURVE",
"691 47 OFFCURVE",
"663 63 CURVE",
"749 604 LINE",
"777 620 OFFCURVE",
"802 626 OFFCURVE",
"834 630 CURVE",
"839 667 LINE",
"678 667 LINE",
"376 116 LINE",
"249 667 LINE",
"76 667 LINE",
"71 630 LINE",
"104 626 OFFCURVE",
"131 619 OFFCURVE",
"156 604 CURVE",
"70 63 LINE",
"42 46 OFFCURVE",
"18 41 OFFCURVE",
"-15 37 CURVE",
"-20 0 LINE",
"220 0 LINE",
"224 37 LINE",
"192 41 OFFCURVE",
"162 47 OFFCURVE",
"134 63 CURVE",
"198 512 LINE",
"318 0 LINE",
"372 0 LINE"
);
}
);
width = 792;
},
{
layerId = "0FAD76F5-9F58-4721-BF81-08BC6166EF10";
paths = (
{
closed = 1;
nodes = (
"122 622 OFFCURVE",
"149 610 OFFCURVE",
"160 596 CURVE",
"77 71 LINE",
"56 55 OFFCURVE",
"38 46 OFFCURVE",
"5 41 CURVE",
"0 0 LINE",
"226 0 LINE",
"231 41 LINE",
"199 48 OFFCURVE",
"177 57 OFFCURVE",
"164 71 CURVE",
"229 484 LINE",
"322 0 LINE",
"399 0 LINE",
"628 484 LINE",
"563 71 LINE",
"542 55 OFFCURVE",
"524 46 OFFCURVE",
"491 41 CURVE",
"486 0 LINE",
"768 0 LINE",
"773 41 LINE",
"741 48 OFFCURVE",
"719 57 OFFCURVE",
"706 71 CURVE",
"789 596 LINE",
"812 613 OFFCURVE",
"829 620 OFFCURVE",
"862 626 CURVE",
"868 667 LINE",
"632 667 LINE",
"422 217 LINE",
"341 667 LINE",
"100 667 LINE",
"94 626 LINE"
);
}
);
width = 818;
}
);
unicode = 004D;
},
{
glyphname = N;
lastChange = "2019-08-19 16:07:20 +0000";
layers = (
{
anchors = (
{
name = bottom;
position = "{345, 0}";
},
{
name = cedilla;
position = "{297, 0}";
},
{
name = top;
position = "{394, 705}";
}
);
layerId = "CF479DE4-94A2-4865-8D1E-65EA355866D4";
paths = (
{
closed = 1;
nodes = (
"97 667 LINE",
"92 630 LINE",
"124 626 OFFCURVE",
"152 619 OFFCURVE",
"177 604 CURVE",
"90 62 LINE",
"62 46 OFFCURVE",
"38 41 OFFCURVE",
"6 37 CURVE",
"0 0 LINE",
"241 0 LINE",
"245 37 LINE",
"213 41 OFFCURVE",
"183 47 OFFCURVE",
"154 63 CURVE",
"226 510 LINE",
"473 0 LINE",
"514 0 LINE",
"610 604 LINE",
"638 620 OFFCURVE",
"663 626 OFFCURVE",
"695 630 CURVE",
"700 667 LINE",
"464 667 LINE",
"460 630 LINE",
"492 626 OFFCURVE",
"521 619 OFFCURVE",
"545 604 CURVE",
"480 193 LINE",
"251 667 LINE"
);
}
);
width = 671;
},
{
anchors = (
{
name = bottom;
position = "{326, 0}";
},
{
name = top;
position = "{401, 705}";
}
);
layerId = "0FAD76F5-9F58-4721-BF81-08BC6166EF10";
paths = (
{
closed = 1;
nodes = (
"113 622 OFFCURVE",
"140 610 OFFCURVE",
"151 596 CURVE",
"68 71 LINE",
"47 55 OFFCURVE",
"29 46 OFFCURVE",
"-4 41 CURVE",
"-9 0 LINE",
"217 0 LINE",
"222 41 LINE",
"190 48 OFFCURVE",
"168 57 OFFCURVE",
"155 71 CURVE",
"217 460 LINE",
"388 0 LINE",
"540 0 LINE",
"634 596 LINE",
"657 613 OFFCURVE",
"674 620 OFFCURVE",
"707 626 CURVE",
"713 667 LINE",
"487 667 LINE",
"481 626 LINE",
"509 622 OFFCURVE",
"536 610 OFFCURVE",
"547 596 CURVE",
"482 183 LINE",
"303 667 LINE",
"91 667 LINE",
"85 626 LINE"
);
}
);
width = 662;
}
);
unicode = 004E;
},
{
glyphname = O;
lastChange = "2019-08-19 16:07:20 +0000";
layers = (
{
anchors = (
{
name = ogonek;
position = "{344, 0}";
},
{
name = top;
position = "{405, 705}";
}
);
layerId = "CF479DE4-94A2-4865-8D1E-65EA355866D4";
paths = (
{
closed = 1;
nodes = (
"192 40 OFFCURVE",
"160 103 OFFCURVE",
"160 216 CURVE SMOOTH",
"160 464 OFFCURVE",
"259 627 OFFCURVE",
"394 627 CURVE SMOOTH",
"477 627 OFFCURVE",
"508 562 OFFCURVE",
"508 446 CURVE SMOOTH",
"508 201 OFFCURVE",
"407 40 OFFCURVE",
"274 40 CURVE SMOOTH",
"274 40 LINE"
);
},
{
closed = 1;
nodes = (
"165 675 OFFCURVE",
"61 457 OFFCURVE",
"61 234 CURVE SMOOTH",
"61 77 OFFCURVE",
"126 -7 OFFCURVE",
"281 -7 CURVE SMOOTH",
"502 -7 OFFCURVE",
"606 210 OFFCURVE",
"606 433 CURVE SMOOTH",
"606 591 OFFCURVE",
"542 675 OFFCURVE",
"387 675 CURVE SMOOTH",
"387 675 LINE"
);
}
);
width = 622;
},
{
anchors = (
{
name = top;
position = "{418, 705}";
}
);
background = {
paths = (
{
closed = 1;
nodes = (
"208 350 OFFCURVE",
"269 620 OFFCURVE",
"399 620 CURVE SMOOTH",
"486 620 OFFCURVE",
"500 537 OFFCURVE",
"500 450 CURVE SMOOTH",
"500 320 OFFCURVE",
"439 50 OFFCURVE",
"309 50 CURVE SMOOTH",
"222 50 OFFCURVE",
"208 133 OFFCURVE",
"208 220 CURVE SMOOTH"
);
},
{
closed = 1;
nodes = (
"48 85 OFFCURVE",
"132 -10 OFFCURVE",
"300 -10 CURVE SMOOTH",
"542 -10 OFFCURVE",
"661 155 OFFCURVE",
"661 413 CURVE SMOOTH",
"661 584 OFFCURVE",
"578 678 OFFCURVE",
"409 678 CURVE SMOOTH",
"170 678 OFFCURVE",
"48 516 OFFCURVE",
"48 257 CURVE SMOOTH"
);
},
{
closed = 1;
nodes = (
"212 40 OFFCURVE",
"180 103 OFFCURVE",
"180 216 CURVE SMOOTH",
"180 464 OFFCURVE",
"279 627 OFFCURVE",
"414 627 CURVE SMOOTH",
"497 627 OFFCURVE",
"528 562 OFFCURVE",
"528 446 CURVE SMOOTH",
"528 201 OFFCURVE",
"427 40 OFFCURVE",
"294 40 CURVE SMOOTH"
);
},
{
closed = 1;
nodes = (
"185 675 OFFCURVE",
"81 457 OFFCURVE",
"81 234 CURVE SMOOTH",
"81 77 OFFCURVE",
"146 -7 OFFCURVE",
"301 -7 CURVE SMOOTH",
"522 -7 OFFCURVE",
"626 210 OFFCURVE",
"626 433 CURVE SMOOTH",
"626 591 OFFCURVE",
"562 675 OFFCURVE",
"407 675 CURVE SMOOTH"
);
}
);
};
layerId = "0FAD76F5-9F58-4721-BF81-08BC6166EF10";
paths = (
{
closed = 1;
nodes = (
"208 353 OFFCURVE",
"266 620 OFFCURVE",
"399 620 CURVE SMOOTH",
"489 620 OFFCURVE",
"500 540 OFFCURVE",
"500 450 CURVE SMOOTH",
"500 317 OFFCURVE",
"442 50 OFFCURVE",
"309 50 CURVE SMOOTH",
"219 50 OFFCURVE",
"208 130 OFFCURVE",
"208 220 CURVE SMOOTH",
"208 220 LINE"
);
},
{
closed = 1;
nodes = (
"48 85 OFFCURVE",
"132 -10 OFFCURVE",
"300 -10 CURVE SMOOTH",
"542 -10 OFFCURVE",
"661 155 OFFCURVE",
"661 413 CURVE SMOOTH",
"661 584 OFFCURVE",
"578 678 OFFCURVE",
"409 678 CURVE SMOOTH",
"170 678 OFFCURVE",
"48 516 OFFCURVE",
"48 257 CURVE SMOOTH",
"48 257 LINE"
);
}
);
width = 675;
}
);
unicode = 004F;
},
{
glyphname = P;
lastChange = "2019-08-19 16:07:20 +0000";
layers = (
{
anchors = (
{
name = top;
position = "{362, 705}";
}
);
background = {
paths = (
{
closed = 1;
nodes = (
"287 592 LINE",
"293 620 OFFCURVE",
"304 625 OFFCURVE",
"353 625 CURVE"
);
},
{
closed = 1;
nodes = (
"120 667 LINE",
"115 630 LINE",
"148 626 OFFCURVE",
"176 619 OFFCURVE",
"201 604 CURVE",
"114 63 LINE",
"86 46 OFFCURVE",
"62 41 OFFCURVE",
"29 37 CURVE",
"24 0 LINE",
"289 0 LINE",
"293 37 LINE",
"261 41 OFFCURVE",
"230 47 OFFCURVE",
"203 63 CURVE",
"240 293 LINE",
"275 293 LINE SMOOTH",
"445 293 OFFCURVE",
"562 352 OFFCURVE",
"562 522 CURVE SMOOTH",
"562 623 OFFCURVE",
"494 667 OFFCURVE",
"355 667 CURVE"
);
},
{
closed = 1;
nodes = (
"432 625 OFFCURVE",
"472 591 OFFCURVE",
"472 520 CURVE SMOOTH",
"472 400 OFFCURVE",
"395 338 OFFCURVE",
"275 338 CURVE SMOOTH",
"247 338 LINE",
"292 620 LINE",
"309 622 OFFCURVE",
"330 625 OFFCURVE",
"363 625 CURVE SMOOTH"
);
}
);
};
layerId = "CF479DE4-94A2-4865-8D1E-65EA355866D4";
paths = (
{
closed = 1;
nodes = (
"120 667 LINE",
"115 630 LINE",
"148 626 OFFCURVE",
"176 619 OFFCURVE",
"201 604 CURVE",
"114 63 LINE",
"86 46 OFFCURVE",
"62 41 OFFCURVE",
"29 37 CURVE",
"24 0 LINE",
"289 0 LINE",
"293 37 LINE",
"261 41 OFFCURVE",
"230 47 OFFCURVE",
"203 63 CURVE",
"240 293 LINE",
"275 293 LINE SMOOTH",
"445 293 OFFCURVE",
"562 352 OFFCURVE",
"562 522 CURVE SMOOTH",
"562 623 OFFCURVE",
"494 667 OFFCURVE",
"355 667 CURVE",
"355 667 LINE"
);
},
{
closed = 1;
nodes = (
"432 625 OFFCURVE",
"472 591 OFFCURVE",
"472 520 CURVE SMOOTH",
"472 400 OFFCURVE",
"395 338 OFFCURVE",
"275 338 CURVE SMOOTH",
"247 338 LINE",
"287 589 LINE SMOOTH",
"291 614 OFFCURVE",
"298 621 OFFCURVE",
"331 624 CURVE SMOOTH",
"341 625 OFFCURVE",
"353 625 OFFCURVE",
"363 625 CURVE",
"363 625 LINE"
);
}
);
width = 555;
},
{
layerId = "0FAD76F5-9F58-4721-BF81-08BC6166EF10";
paths = (
{
closed = 1;
nodes = (
"118 622 OFFCURVE",
"145 610 OFFCURVE",
"156 596 CURVE",
"73 71 LINE",
"52 55 OFFCURVE",
"34 46 OFFCURVE",
"1 41 CURVE",
"-4 0 LINE",
"302 0 LINE",
"307 41 LINE",
"275 48 OFFCURVE",
"233 57 OFFCURVE",
"220 71 CURVE",
"252 277 LINE",
"267 277 LINE SMOOTH",
"437 277 OFFCURVE",
"617 340 OFFCURVE",
"617 510 CURVE SMOOTH",
"617 614 OFFCURVE",
"539 667 OFFCURVE",
"383 667 CURVE SMOOTH",
"96 667 LINE",
"90 626 LINE"
);
},
{
closed = 1;
nodes = (
"442 606 OFFCURVE",
"469 564 OFFCURVE",
"469 507 CURVE SMOOTH",
"469 436 OFFCURVE",
"421 343 OFFCURVE",
"282 343 CURVE SMOOTH",
"263 343 LINE",
"298 565 LINE SMOOTH",
"303 597 OFFCURVE",
"311 606 OFFCURVE",
"360 606 CURVE SMOOTH",
"360 606 LINE"
);
}
);
width = 596;
}
);
unicode = 0050;
},
{
glyphname = Q;
lastChange = "2019-08-19 16:07:20 +0000";
layers = (
{
anchors = (
{
name = top;
position = "{408, 705}";
}
);
layerId = "CF479DE4-94A2-4865-8D1E-65EA355866D4";
paths = (
{
closed = 1;
nodes = (
"165 675 OFFCURVE",
"61 457 OFFCURVE",
"61 234 CURVE SMOOTH",
"61 85 OFFCURVE",
"119 2 OFFCURVE",
"256 -6 CURVE",
"281 -81 OFFCURVE",
"336 -148 OFFCURVE",
"451 -168 CURVE",
"461 -161 OFFCURVE",
"465 -151 OFFCURVE",
"466 -138 CURVE",
"400 -114 OFFCURVE",
"350 -64 OFFCURVE",
"336 -2 CURVE",
"519 31 OFFCURVE",
"606 229 OFFCURVE",
"606 433 CURVE SMOOTH",
"606 591 OFFCURVE",
"542 675 OFFCURVE",
"387 675 CURVE SMOOTH",
"387 675 LINE"
);
},
{
closed = 1;
nodes = (
"192 40 OFFCURVE",
"160 103 OFFCURVE",
"160 216 CURVE SMOOTH",
"160 464 OFFCURVE",
"259 627 OFFCURVE",
"394 627 CURVE SMOOTH",
"477 627 OFFCURVE",
"508 562 OFFCURVE",
"508 446 CURVE SMOOTH",
"508 201 OFFCURVE",
"407 40 OFFCURVE",
"274 40 CURVE SMOOTH",
"274 40 LINE"
);
}
);
width = 622;
},
{
background = {
paths = (
{
closed = 1;
nodes = (
"48 85 OFFCURVE",
"132 -10 OFFCURVE",
"300 -10 CURVE SMOOTH",
"542 -10 OFFCURVE",
"661 155 OFFCURVE",
"661 413 CURVE SMOOTH",
"661 584 OFFCURVE",
"578 678 OFFCURVE",
"409 678 CURVE SMOOTH",
"170 678 OFFCURVE",
"48 516 OFFCURVE",
"48 257 CURVE SMOOTH"
);
}
);
};
layerId = "0FAD76F5-9F58-4721-BF81-08BC6166EF10";
paths = (
{
closed = 1;
nodes = (
"48 105 OFFCURVE",
"113 13 OFFCURVE",
"244 -6 CURVE",
"271 -84 OFFCURVE",
"333 -153 OFFCURVE",
"467 -174 CURVE",
"476 -169 OFFCURVE",
"485 -154 OFFCURVE",
"485 -142 CURVE SMOOTH",
"485 -138 LINE",
"426 -114 OFFCURVE",
"379 -66 OFFCURVE",
"370 -5 CURVE",
"565 24 OFFCURVE",
"661 181 OFFCURVE",
"661 413 CURVE SMOOTH",
"661 584 OFFCURVE",
"578 678 OFFCURVE",
"409 678 CURVE SMOOTH",
"170 678 OFFCURVE",
"48 516 OFFCURVE",
"48 257 CURVE SMOOTH",
"48 257 LINE"
);
},
{
closed = 1;
nodes = (
"208 353 OFFCURVE",
"266 620 OFFCURVE",
"399 620 CURVE SMOOTH",
"489 620 OFFCURVE",
"500 540 OFFCURVE",
"500 450 CURVE SMOOTH",
"500 317 OFFCURVE",
"442 50 OFFCURVE",
"309 50 CURVE SMOOTH",
"219 50 OFFCURVE",
"208 130 OFFCURVE",
"208 220 CURVE SMOOTH",
"208 220 LINE"
);
}
);
width = 675;
}
);
unicode = 0051;
},
{
glyphname = R;
lastChange = "2019-08-19 16:07:20 +0000";
layers = (
{
anchors = (
{
name = bottom;
position = "{337, 0}";
},
{
name = cedilla;
position = "{305, 0}";
},
{
name = top;
position = "{362, 705}";
}
);
layerId = "CF479DE4-94A2-4865-8D1E-65EA355866D4";
paths = (
{
closed = 1;
nodes = (
"100 630 LINE",
"133 626 OFFCURVE",
"161 619 OFFCURVE",
"186 604 CURVE",
"100 63 LINE",
"72 46 OFFCURVE",
"46 41 OFFCURVE",
"14 37 CURVE",
"9 0 LINE",
"273 0 LINE",
"278 37 LINE",
"246 41 OFFCURVE",
"215 47 OFFCURVE",
"188 62 CURVE",
"226 306 LINE",
"245 306 LINE SMOOTH",
"328 306 OFFCURVE",
"336 299 OFFCURVE",
"355 219 CURVE SMOOTH",
"390 69 LINE SMOOTH",
"404 9 OFFCURVE",
"423 0 OFFCURVE",
"470 0 CURVE SMOOTH",
"557 0 LINE",
"568 38 LINE",
"532 42 OFFCURVE",
"491 54 OFFCURVE",
"484 80 CURVE SMOOTH",
"440 236 LINE SMOOTH",
"427 280 OFFCURVE",
"413 307 OFFCURVE",
"388 322 CURVE",
"489 349 OFFCURVE",
"547 417 OFFCURVE",
"547 523 CURVE SMOOTH",
"547 619 OFFCURVE",
"478 667 OFFCURVE",
"345 667 CURVE SMOOTH",
"105 667 LINE"
);
},
{
closed = 1;
nodes = (
"272 592 LINE",
"278 620 OFFCURVE",
"289 625 OFFCURVE",
"338 625 CURVE SMOOTH",
"417 625 OFFCURVE",
"456 590 OFFCURVE",
"456 521 CURVE SMOOTH",
"456 392 OFFCURVE",
"355 352 OFFCURVE",
"250 352 CURVE SMOOTH",
"234 352 LINE"
);
}
);
width = 590;
},
{
anchors = (
{
name = bottom;
position = "{347, 0}";
},
{
name = top;
position = "{377, 705}";
}
);
layerId = "0FAD76F5-9F58-4721-BF81-08BC6166EF10";
paths = (
{
closed = 1;
nodes = (
"116 622 OFFCURVE",
"143 610 OFFCURVE",
"154 596 CURVE",
"71 71 LINE",
"50 55 OFFCURVE",
"32 46 OFFCURVE",
"-1 41 CURVE",
"-6 0 LINE",
"280 0 LINE",
"285 41 LINE",
"253 48 OFFCURVE",
"231 57 OFFCURVE",
"218 71 CURVE",
"255 302 LINE",
"286 302 OFFCURVE",
"319 297 OFFCURVE",
"329 262 CURVE SMOOTH",
"381 66 LINE",
"390 22 OFFCURVE",
"425 0 OFFCURVE",
"469 0 CURVE SMOOTH",
"595 0 LINE",
"600 41 LINE",
"570 46 OFFCURVE",
"540 59 OFFCURVE",
"535 76 CURVE SMOOTH",
"483 252 LINE SMOOTH",
"473 287 OFFCURVE",
"451 311 OFFCURVE",
"424 324 CURVE",
"527 353 OFFCURVE",
"606 415 OFFCURVE",
"606 519 CURVE SMOOTH",
"606 617 OFFCURVE",
"532 667 OFFCURVE",
"376 667 CURVE SMOOTH",
"94 667 LINE",
"88 626 LINE"
);
},
{
closed = 1;
nodes = (
"458 448 OFFCURVE",
"410 363 OFFCURVE",
"271 363 CURVE SMOOTH",
"264 363 LINE",
"297 566 LINE SMOOTH",
"303 600 OFFCURVE",
"311 606 OFFCURVE",
"359 606 CURVE SMOOTH",
"435 606 OFFCURVE",
"458 568 OFFCURVE",
"458 515 CURVE SMOOTH",
"458 515 LINE"
);
}
);
width = 632;
}
);
unicode = 0052;
},
{
glyphname = S;
lastChange = "2019-08-19 16:07:20 +0000";
layers = (
{
anchors = (
{
name = bottom;
position = "{259, 0}";
},
{
name = cedilla;
position = "{192, 0}";
},
{
name = top;
position = "{330, 705}";
}
);
layerId = "CF479DE4-94A2-4865-8D1E-65EA355866D4";
paths = (
{
closed = 1;
nodes = (
"363 622 OFFCURVE",
"386 597 OFFCURVE",
"386 569 CURVE SMOOTH",
"386 555 OFFCURVE",
"380 539 OFFCURVE",
"368 525 CURVE",
"370 506 OFFCURVE",
"390 492 OFFCURVE",
"417 492 CURVE SMOOTH",
"460 492 OFFCURVE",
"481 532 OFFCURVE",
"481 565 CURVE SMOOTH",
"481 622 OFFCURVE",
"435 675 OFFCURVE",
"332 675 CURVE SMOOTH",
"227 675 OFFCURVE",
"116 607 OFFCURVE",
"116 476 CURVE SMOOTH",
"116 342 OFFCURVE",
"323 252 OFFCURVE",
"323 147 CURVE SMOOTH",
"323 87 OFFCURVE",
"275 46 OFFCURVE",
"215 46 CURVE SMOOTH",
"175 46 OFFCURVE",
"133 61 OFFCURVE",
"111 83 CURVE",
"108 96 OFFCURVE",
"106 114 OFFCURVE",
"106 132 CURVE SMOOTH",
"106 154 OFFCURVE",
"108 178 OFFCURVE",
"112 201 CURVE",
"66 208 LINE",
"22 44 LINE",
"69 15 OFFCURVE",
"121 -7 OFFCURVE",
"193 -7 CURVE SMOOTH",
"281 -7 OFFCURVE",
"414 36 OFFCURVE",
"414 182 CURVE SMOOTH",
"414 333 OFFCURVE",
"204 413 OFFCURVE",
"204 521 CURVE SMOOTH",
"204 581 OFFCURVE",
"252 624 OFFCURVE",
"312 624 CURVE",
"312 624 LINE"
);
}
);
width = 481;
},
{
anchors = (
{
name = bottom;
position = "{233, 0}";
},
{
name = cedilla;
position = "{233, 0}";
},
{
name = top;
position = "{318, 705}";
}
);
background = {
paths = (
{
closed = 1;
nodes = (
"56 221 LINE",
"6 44 LINE",
"64 11 OFFCURVE",
"138 -7 OFFCURVE",
"212 -7 CURVE SMOOTH",
"359 -7 OFFCURVE",
"466 82 OFFCURVE",
"466 222 CURVE SMOOTH",
"466 305 OFFCURVE",
"423 363 OFFCURVE",
"318 412 CURVE SMOOTH",
"241 447 OFFCURVE",
"212 476 OFFCURVE",
"212 524 CURVE SMOOTH",
"212 584 OFFCURVE",
"257 621 OFFCURVE",
"319 621 CURVE SMOOTH",
"369 621 OFFCURVE",
"399 601 OFFCURVE",
"399 568 CURVE SMOOTH",
"399 547 OFFCURVE",
"385 522 OFFCURVE",
"363 501 CURVE",
"387 480 OFFCURVE",
"410 471 OFFCURVE",
"435 471 CURVE SMOOTH",
"479 471 OFFCURVE",
"512 507 OFFCURVE",
"512 556 CURVE SMOOTH",
"512 622 OFFCURVE",
"433 675 OFFCURVE",
"326 675 CURVE SMOOTH",
"185 675 OFFCURVE",
"69 586 OFFCURVE",
"69 458 CURVE SMOOTH",
"69 379 OFFCURVE",
"112 332 OFFCURVE",
"216 286 CURVE SMOOTH",
"283 256 OFFCURVE",
"315 218 OFFCURVE",
"315 161 CURVE SMOOTH",
"315 92 OFFCURVE",
"269 48 OFFCURVE",
"211 48 CURVE SMOOTH",
"183 48 OFFCURVE",
"143 59 OFFCURVE",
"115 82 CURVE",
"113 96 OFFCURVE",
"112 110 OFFCURVE",
"112 127 CURVE SMOOTH",
"112 150 OFFCURVE",
"114 177 OFFCURVE",
"118 210 CURVE"
);
}
);
};
layerId = "0FAD76F5-9F58-4721-BF81-08BC6166EF10";
paths = (
{
closed = 1;
nodes = (
"6 44 LINE",
"64 11 OFFCURVE",
"138 -7 OFFCURVE",
"212 -7 CURVE SMOOTH",
"359 -7 OFFCURVE",
"466 82 OFFCURVE",
"466 222 CURVE SMOOTH",
"466 305 OFFCURVE",
"423 363 OFFCURVE",
"318 412 CURVE SMOOTH",
"241 447 OFFCURVE",
"212 476 OFFCURVE",
"212 524 CURVE SMOOTH",
"212 584 OFFCURVE",
"257 621 OFFCURVE",
"319 621 CURVE SMOOTH",
"369 621 OFFCURVE",
"399 601 OFFCURVE",
"399 568 CURVE SMOOTH",
"399 547 OFFCURVE",
"385 522 OFFCURVE",
"363 501 CURVE",
"387 480 OFFCURVE",
"410 471 OFFCURVE",
"435 471 CURVE SMOOTH",
"479 471 OFFCURVE",
"512 507 OFFCURVE",
"512 556 CURVE SMOOTH",
"512 622 OFFCURVE",
"433 675 OFFCURVE",
"326 675 CURVE SMOOTH",
"185 675 OFFCURVE",
"69 586 OFFCURVE",
"69 458 CURVE SMOOTH",
"69 379 OFFCURVE",
"112 332 OFFCURVE",
"216 286 CURVE SMOOTH",
"283 256 OFFCURVE",
"315 218 OFFCURVE",
"315 161 CURVE SMOOTH",
"315 92 OFFCURVE",
"269 50 OFFCURVE",
"211 50 CURVE SMOOTH",
"183 50 OFFCURVE",
"153 59 OFFCURVE",
"125 82 CURVE",
"123 96 OFFCURVE",
"122 110 OFFCURVE",
"122 127 CURVE SMOOTH",
"122 150 OFFCURVE",
"125 175 OFFCURVE",
"129 208 CURVE",
"56 221 LINE"
);
}
);
width = 501;
}
);
unicode = 0053;
},
{
glyphname = T;
lastChange = "2019-08-19 16:07:20 +0000";
layers = (
{
anchors = (
{
name = bottom;
position = "{296, 0}";
},
{
name = cedilla;
position = "{251, 0}";
},
{
name = top;
position = "{362, 705}";
}
);
layerId = "CF479DE4-94A2-4865-8D1E-65EA355866D4";
paths = (
{
closed = 1;
nodes = (
"399 0 LINE",
"404 37 LINE",
"372 41 OFFCURVE",
"332 47 OFFCURVE",
"304 62 CURVE",
"392 615 LINE",
"452 614 OFFCURVE",
"492 613 OFFCURVE",
"520 611 CURVE",
"534 583 OFFCURVE",
"538 550 OFFCURVE",
"538 524 CURVE SMOOTH",
"538 515 OFFCURVE",
"538 508 OFFCURVE",
"537 501 CURVE",
"544 500 OFFCURVE",
"552 499 OFFCURVE",
"560 499 CURVE SMOOTH",
"567 499 OFFCURVE",
"574 499 OFFCURVE",
"582 501 CURVE",
"608 670 LINE",
"608 670 OFFCURVE",
"437 667 OFFCURVE",
"341 667 CURVE SMOOTH",
"218 667 OFFCURVE",
"120 670 OFFCURVE",
"98 670 CURVE",
"72 501 LINE",
"78 499 OFFCURVE",
"85 499 OFFCURVE",
"92 499 CURVE SMOOTH",
"100 499 OFFCURVE",
"108 500 OFFCURVE",
"116 501 CURVE",
"122 529 OFFCURVE",
"140 576 OFFCURVE",
"169 613 CURVE",
"197 614 OFFCURVE",
"239 615 OFFCURVE",
"304 615 CURVE",
"215 62 LINE",
"187 45 OFFCURVE",
"152 40 OFFCURVE",
"121 37 CURVE",
"115 0 LINE"
);
}
);
width = 574;
},
{
anchors = (
{
name = bottom;
position = "{268, 0}";
},
{
name = top;
position = "{373, 705}";
}
);
layerId = "0FAD76F5-9F58-4721-BF81-08BC6166EF10";
paths = (
{
closed = 1;
nodes = (
"473 605 OFFCURVE",
"496 602 OFFCURVE",
"526 598 CURVE",
"538 571 OFFCURVE",
"543 528 OFFCURVE",
"543 483 CURVE",
"555 481 OFFCURVE",
"567 480 OFFCURVE",
"579 480 CURVE SMOOTH",
"590 480 OFFCURVE",
"601 481 OFFCURVE",
"612 483 CURVE",
"642 671 LINE",
"628 670 OFFCURVE",
"451 667 OFFCURVE",
"370 667 CURVE SMOOTH",
"236 667 OFFCURVE",
"99 671 OFFCURVE",
"99 671 CURVE",
"69 483 LINE",
"80 481 OFFCURVE",
"91 480 OFFCURVE",
"102 480 CURVE SMOOTH",
"114 480 OFFCURVE",
"126 481 OFFCURVE",
"138 483 CURVE",
"146 522 OFFCURVE",
"169 570 OFFCURVE",
"195 599 CURVE",
"224 601 OFFCURVE",
"248 604 OFFCURVE",
"287 605 CURVE",
"202 71 LINE",
"181 55 OFFCURVE",
"143 46 OFFCURVE",
"110 41 CURVE",
"105 0 LINE",
"431 0 LINE",
"436 41 LINE",
"404 48 OFFCURVE",
"362 57 OFFCURVE",
"349 71 CURVE",
"434 606 LINE"
);
}
);
width = 603;
}
);
unicode = 0054;
},
{
glyphname = U;
lastChange = "2019-08-19 16:07:20 +0000";
layers = (
{
anchors = (
{
name = ogonek;
position = "{346, 0}";
},
{
name = top;
position = "{393, 705}";
}
);
layerId = "CF479DE4-94A2-4865-8D1E-65EA355866D4";
paths = (
{
closed = 1;
nodes = (
"445 667 LINE",
"440 630 LINE",
"473 626 OFFCURVE",
"501 619 OFFCURVE",
"526 604 CURVE",
"463 212 LINE SMOOTH",
"446 104 OFFCURVE",
"385 45 OFFCURVE",
"292 45 CURVE SMOOTH",
"213 45 OFFCURVE",
"173 77 OFFCURVE",
"173 157 CURVE SMOOTH",
"173 172 OFFCURVE",
"174 188 OFFCURVE",
"177 207 CURVE SMOOTH",
"241 605 LINE",
"268 620 OFFCURVE",
"293 626 OFFCURVE",
"324 630 CURVE",
"330 667 LINE",
"70 667 LINE",
"65 630 LINE",
"98 626 OFFCURVE",
"127 619 OFFCURVE",
"151 604 CURVE",
"87 207 LINE SMOOTH",
"84 186 OFFCURVE",
"82 167 OFFCURVE",
"82 150 CURVE SMOOTH",
"82 42 OFFCURVE",
"144 -7 OFFCURVE",
"282 -7 CURVE SMOOTH",
"418 -7 OFFCURVE",
"505 72 OFFCURVE",
"527 212 CURVE SMOOTH",
"590 605 LINE",
"617 620 OFFCURVE",
"642 626 OFFCURVE",
"673 630 CURVE",
"679 667 LINE"
);
}
);
width = 632;
},
{
anchors = (
{
name = ogonek;
position = "{377, 0}";
},
{
name = top;
position = "{417, 705}";
}
);
background = {
paths = (
{
closed = 1;
nodes = (
"468 626 LINE",
"496 622 OFFCURVE",
"523 610 OFFCURVE",
"534 596 CURVE",
"473 213 LINE SMOOTH",
"456 106 OFFCURVE",
"388 77 OFFCURVE",
"328 77 CURVE SMOOTH",
"256 77 OFFCURVE",
"225 106 OFFCURVE",
"225 182 CURVE SMOOTH",
"225 255 OFFCURVE",
"283 596 OFFCURVE",
"284 596 CURVE SMOOTH",
"307 613 OFFCURVE",
"324 620 OFFCURVE",
"357 626 CURVE",
"363 667 LINE",
"77 667 LINE",
"71 626 LINE",
"99 622 OFFCURVE",
"126 610 OFFCURVE",
"137 596 CURVE",
"77 209 LINE SMOOTH",
"74 193 OFFCURVE",
"73 177 OFFCURVE",
"73 163 CURVE SMOOTH",
"73 45 OFFCURVE",
"164 -7 OFFCURVE",
"298 -7 CURVE SMOOTH",
"463 -7 OFFCURVE",
"553 58 OFFCURVE",
"577 208 CURVE SMOOTH",
"638 596 LINE",
"661 613 OFFCURVE",
"678 620 OFFCURVE",
"711 626 CURVE",
"717 667 LINE",
"474 667 LINE"
);
}
);
};
layerId = "0FAD76F5-9F58-4721-BF81-08BC6166EF10";
paths = (
{
closed = 1;
nodes = (
"660 613 OFFCURVE",
"677 620 OFFCURVE",
"710 626 CURVE",
"716 667 LINE",
"487 667 LINE",
"481 626 LINE",
"509 622 OFFCURVE",
"536 610 OFFCURVE",
"547 596 CURVE",
"490 223 LINE",
"475 132 OFFCURVE",
"437 60 OFFCURVE",
"340 60 CURVE SMOOTH",
"257 60 OFFCURVE",
"220 97 OFFCURVE",
"220 168 CURVE SMOOTH",
"220 193 OFFCURVE",
"234 285 OFFCURVE",
"236 299 CURVE SMOOTH",
"283 596 LINE",
"306 613 OFFCURVE",
"323 620 OFFCURVE",
"356 626 CURVE",
"362 667 LINE",
"76 667 LINE",
"70 626 LINE",
"98 622 OFFCURVE",
"125 610 OFFCURVE",
"136 596 CURVE",
"99 353 LINE SMOOTH",
"96 336 OFFCURVE",
"72 198 OFFCURVE",
"72 161 CURVE SMOOTH",
"72 49 OFFCURVE",
"150 -7 OFFCURVE",
"308 -7 CURVE SMOOTH",
"489 -7 OFFCURVE",
"558 83 OFFCURVE",
"583 245 CURVE SMOOTH",
"637 596 LINE"
);
}
);
width = 654;
}
);
unicode = 0055;
},
{
glyphname = V;
lastChange = "2019-08-19 16:07:20 +0000";
layers = (
{
anchors = (
{
name = top;
position = "{362, 705}";
}
);
layerId = "CF479DE4-94A2-4865-8D1E-65EA355866D4";
paths = (
{
closed = 1;
nodes = (
"406 667 LINE",
"401 630 LINE",
"433 626 OFFCURVE",
"461 619 OFFCURVE",
"485 605 CURVE",
"284 145 LINE",
"217 604 LINE",
"248 620 OFFCURVE",
"273 626 OFFCURVE",
"305 630 CURVE",
"310 667 LINE",
"61 667 LINE",
"56 630 LINE",
"79 627 OFFCURVE",
"101 619 OFFCURVE",
"120 609 CURVE",
"219 0 LINE",
"239 -7 OFFCURVE",
"273 -7 OFFCURVE",
"273 -7 CURVE",
"553 611 LINE",
"575 621 OFFCURVE",
"597 626 OFFCURVE",
"625 630 CURVE",
"630 667 LINE"
);
}
);
width = 575;
},
{
layerId = "0FAD76F5-9F58-4721-BF81-08BC6166EF10";
paths = (
{
closed = 1;
nodes = (
"260 605 LINE",
"275 618 OFFCURVE",
"298 623 OFFCURVE",
"327 627 CURVE",
"333 667 LINE",
"57 667 LINE",
"52 626 LINE",
"79 620 OFFCURVE",
"107 608 OFFCURVE",
"110 585 CURVE SMOOTH",
"184 0 LINE",
"285 0 LINE",
"590 602 LINE",
"605 619 OFFCURVE",
"629 624 OFFCURVE",
"655 626 CURVE",
"661 667 LINE",
"435 667 LINE",
"430 627 LINE",
"463 623 OFFCURVE",
"493 613 OFFCURVE",
"510 597 CURVE",
"309 185 LINE"
);
}
);
width = 596;
}
);
unicode = 0056;
},
{
glyphname = W;
lastChange = "2019-08-19 16:07:20 +0000";
layers = (
{
anchors = (
{
name = top;
position = "{542, 705}";
}
);
layerId = "CF479DE4-94A2-4865-8D1E-65EA355866D4";
paths = (
{
closed = 1;
nodes = (
"86 667 LINE",
"81 630 LINE",
"105 627 OFFCURVE",
"128 618 OFFCURVE",
"148 608 CURVE",
"201 0 LINE",
"220 -7 OFFCURVE",
"255 -7 OFFCURVE",
"255 -7 CURVE",
"491 477 LINE",
"537 0 LINE",
"556 -7 OFFCURVE",
"591 -7 OFFCURVE",
"591 -7 CURVE",
"879 605 LINE",
"899 617 OFFCURVE",
"926 625 OFFCURVE",
"947 630 CURVE",
"952 667 LINE",
"733 667 LINE",
"728 630 LINE",
"760 626 OFFCURVE",
"788 619 OFFCURVE",
"813 604 CURVE",
"605 152 LINE",
"570 657 LINE",
"570 657 OFFCURVE",
"529 656 OFFCURVE",
"510 649 CURVE",
"270 150 LINE",
"242 604 LINE",
"273 620 OFFCURVE",
"298 626 OFFCURVE",
"330 630 CURVE",
"335 667 LINE"
);
}
);
width = 896;
},
{
anchors = (
{
name = top;
position = "{569, 705}";
}
);
layerId = "0FAD76F5-9F58-4721-BF81-08BC6166EF10";
paths = (
{
closed = 1;
nodes = (
"664 185 LINE",
"604 667 LINE",
"518 667 LINE",
"302 185 LINE",
"253 605 LINE",
"267 618 OFFCURVE",
"290 623 OFFCURVE",
"319 627 CURVE",
"325 667 LINE",
"52 667 LINE",
"46 626 LINE",
"70 621 OFFCURVE",
"89 611 OFFCURVE",
"101 596 CURVE",
"177 0 LINE",
"277 0 LINE",
"481 430 LINE",
"541 0 LINE",
"641 0 LINE",
"932 602 LINE",
"947 619 OFFCURVE",
"962 624 OFFCURVE",
"988 626 CURVE",
"993 667 LINE",
"777 667 LINE",
"772 627 LINE",
"805 623 OFFCURVE",
"835 613 OFFCURVE",
"852 596 CURVE",
"852 596 LINE"
);
}
);
width = 930;
}
);
unicode = 0057;
},
{
glyphname = X;
lastChange = "2019-08-19 16:07:20 +0000";
layers = (
{
anchors = (
{
name = cedilla;
position = "{245, 0}";
},
{
name = top;
position = "{325, 705}";
}
);
background = {
paths = (
{
closed = 1;
nodes = (
"-52 0 LINE",
"186 0 LINE",
"190 37 LINE",
"158 41 OFFCURVE",
"128 47 OFFCURVE",
"100 63 CURVE",
"260 281 LINE",
"347 66 LINE SMOOTH",
"367 16 OFFCURVE",
"380 0 OFFCURVE",
"427 0 CURVE SMOOTH",
"514 0 LINE",
"520 38 LINE",
"465 44 OFFCURVE",
"451 58 OFFCURVE",
"439 83 CURVE",
"328 355 LINE",
"500 606 LINE",
"526 620 OFFCURVE",
"550 626 OFFCURVE",
"582 630 CURVE",
"587 667 LINE",
"355 667 LINE",
"350 630 LINE",
"383 626 OFFCURVE",
"411 619 OFFCURVE",
"436 604 CURVE",
"307 408 LINE",
"229 600 LINE SMOOTH",
"208 651 OFFCURVE",
"207 667 OFFCURVE",
"168 667 CURVE SMOOTH",
"65 667 LINE",
"60 630 LINE",
"106 629 OFFCURVE",
"129 609 OFFCURVE",
"139 584 CURVE SMOOTH",
"239 334 LINE",
"37 61 LINE",
"10 45 OFFCURVE",
"-15 41 OFFCURVE",
"-46 37 CURVE"
);
}
);
};
layerId = "CF479DE4-94A2-4865-8D1E-65EA355866D4";
paths = (
{
closed = 1;
nodes = (
"208 651 OFFCURVE",
"207 667 OFFCURVE",
"168 667 CURVE SMOOTH",
"65 667 LINE",
"60 630 LINE",
"106 629 OFFCURVE",
"129 609 OFFCURVE",
"139 584 CURVE SMOOTH",
"347 66 LINE SMOOTH",
"367 16 OFFCURVE",
"380 0 OFFCURVE",
"427 0 CURVE SMOOTH",
"514 0 LINE",
"520 38 LINE",
"465 44 OFFCURVE",
"451 58 OFFCURVE",
"439 83 CURVE",
"229 600 LINE"
);
},
{
closed = 1;
nodes = (
"35 61 LINE",
"9 45 OFFCURVE",
"-16 41 OFFCURVE",
"-46 37 CURVE",
"-52 0 LINE",
"186 0 LINE",
"190 37 LINE",
"158 41 OFFCURVE",
"128 47 OFFCURVE",
"100 63 CURVE",
"275 302 LINE",
"252 355 LINE"
);
},
{
closed = 1;
nodes = (
"502 606 LINE",
"527 620 OFFCURVE",
"551 626 OFFCURVE",
"582 630 CURVE",
"587 667 LINE",
"355 667 LINE",
"350 630 LINE",
"383 626 OFFCURVE",
"411 619 OFFCURVE",
"436 604 CURVE",
"291 384 LINE",
"314 331 LINE"
);
}
);
width = 545;
},
{
layerId = "0FAD76F5-9F58-4721-BF81-08BC6166EF10";
paths = (
{
closed = 1;
nodes = (
"370 38 OFFCURVE",
"389 0 OFFCURVE",
"440 0 CURVE SMOOTH",
"572 0 LINE",
"577 41 LINE",
"542 48 OFFCURVE",
"529 54 OFFCURVE",
"519 76 CURVE SMOOTH",
"384 365 LINE",
"578 599 LINE SMOOTH",
"593 616 OFFCURVE",
"619 625 OFFCURVE",
"645 627 CURVE",
"650 667 LINE",
"424 667 LINE",
"419 627 LINE",
"452 623 OFFCURVE",
"473 613 OFFCURVE",
"490 597 CURVE",
"353 432 LINE",
"271 609 LINE SMOOTH",
"261 629 OFFCURVE",
"242 667 OFFCURVE",
"191 667 CURVE SMOOTH",
"59 667 LINE",
"54 626 LINE",
"89 619 OFFCURVE",
"102 613 OFFCURVE",
"112 591 CURVE SMOOTH",
"240 314 LINE",
"32 65 LINE SMOOTH",
"20 51 OFFCURVE",
"-11 42 OFFCURVE",
"-34 40 CURVE",
"-39 0 LINE",
"187 0 LINE",
"192 40 LINE",
"159 44 OFFCURVE",
"139 52 OFFCURVE",
"122 68 CURVE",
"271 247 LINE",
"360 58 LINE"
);
}
);
width = 586;
}
);
unicode = 0058;
},
{
glyphname = Y;
lastChange = "2019-08-19 16:07:20 +0000";
layers = (
{
anchors = (
{
name = cedilla;
position = "{234, 0}";
},
{
name = top;
position = "{351, 705}";
}
);
layerId = "CF479DE4-94A2-4865-8D1E-65EA355866D4";
paths = (
{
closed = 1;
nodes = (
"380 0 LINE",
"384 37 LINE",
"352 41 OFFCURVE",
"312 47 OFFCURVE",
"284 63 CURVE",
"319 285 LINE",
"520 606 LINE",
"546 621 OFFCURVE",
"570 626 OFFCURVE",
"601 630 CURVE",
"606 667 LINE",
"373 667 LINE",
"368 630 LINE",
"399 626 OFFCURVE",
"428 619 OFFCURVE",
"453 604 CURVE",
"297 347 LINE",
"219 607 LINE",
"245 621 OFFCURVE",
"269 626 OFFCURVE",
"299 630 CURVE",
"304 667 LINE",
"61 667 LINE",
"56 630 LINE",
"78 627 OFFCURVE",
"99 620 OFFCURVE",
"118 611 CURVE",
"228 272 LINE",
"196 63 LINE",
"168 46 OFFCURVE",
"133 41 OFFCURVE",
"101 37 CURVE",
"96 0 LINE"
);
}
);
width = 548;
},
{
anchors = (
{
name = top;
position = "{401, 705}";
}
);
layerId = "0FAD76F5-9F58-4721-BF81-08BC6166EF10";
paths = (
{
closed = 1;
nodes = (
"164 55 OFFCURVE",
"136 46 OFFCURVE",
"103 41 CURVE",
"98 0 LINE",
"404 0 LINE",
"409 41 LINE",
"377 48 OFFCURVE",
"345 57 OFFCURVE",
"332 71 CURVE",
"363 268 LINE",
"585 601 LINE",
"603 617 OFFCURVE",
"623 625 OFFCURVE",
"649 627 CURVE",
"654 667 LINE",
"428 667 LINE",
"423 627 LINE",
"456 623 OFFCURVE",
"486 613 OFFCURVE",
"503 597 CURVE",
"343 357 LINE",
"273 605 LINE",
"288 618 OFFCURVE",
"314 623 OFFCURVE",
"343 627 CURVE",
"349 667 LINE",
"73 667 LINE",
"69 627 LINE",
"96 621 OFFCURVE",
"119 607 OFFCURVE",
"126 585 CURVE SMOOTH",
"217 269 LINE",
"185 71 LINE"
);
}
);
width = 577;
}
);
unicode = 0059;
},
{
glyphname = Z;
lastChange = "2019-08-19 16:07:20 +0000";
layers = (
{
anchors = (
{
name = cedilla;
position = "{246, 0}";
},
{
name = top;
position = "{329, 705}";
}
);
layerId = "CF479DE4-94A2-4865-8D1E-65EA355866D4";
paths = (
{
closed = 1;
nodes = (
"472 179 OFFCURVE",
"465 180 OFFCURVE",
"457 180 CURVE SMOOTH",
"450 180 OFFCURVE",
"437 179 OFFCURVE",
"430 178 CURVE",
"410 130 OFFCURVE",
"401 96 OFFCURVE",
"375 62 CURVE",
"139 53 LINE",
"537 627 LINE",
"535 667 LINE",
"134 667 LINE",
"110 644 LINE",
"99 499 LINE",
"104 497 OFFCURVE",
"115 497 OFFCURVE",
"121 497 CURVE SMOOTH",
"128 497 OFFCURVE",
"136 498 OFFCURVE",
"143 499 CURVE",
"154 533 OFFCURVE",
"166 569 OFFCURVE",
"186 605 CURVE",
"253 608 OFFCURVE",
"357 611 OFFCURVE",
"419 612 CURVE",
"24 44 LINE",
"30 0 LINE",
"441 0 LINE",
"479 178 LINE"
);
}
);
width = 512;
},
{
anchors = (
{
name = top;
position = "{349, 704}";
}
);
layerId = "0FAD76F5-9F58-4721-BF81-08BC6166EF10";
paths = (
{
closed = 1;
nodes = (
"92 476 OFFCURVE",
"110 473 OFFCURVE",
"129 473 CURVE SMOOTH",
"136 473 OFFCURVE",
"154 474 OFFCURVE",
"161 476 CURVE",
"163 506 OFFCURVE",
"172 556 OFFCURVE",
"189 592 CURVE",
"251 598 OFFCURVE",
"363 600 OFFCURVE",
"379 600 CURVE",
"0 45 LINE",
"-3 0 LINE",
"474 0 LINE",
"513 194 LINE",
"499 198 OFFCURVE",
"481 201 OFFCURVE",
"462 201 CURVE SMOOTH",
"455 201 OFFCURVE",
"437 200 OFFCURVE",
"430 198 CURVE",
"420 170 OFFCURVE",
"402 113 OFFCURVE",
"376 75 CURVE",
"326 70 OFFCURVE",
"273 69 OFFCURVE",
"181 69 CURVE",
"570 631 LINE",
"566 667 LINE",
"118 667 LINE",
"89 639 LINE",
"78 480 LINE"
);
}
);
width = 544;
}
);
unicode = 005A;
},
{
glyphname = a;
lastChange = "2019-08-19 16:07:20 +0000";
layers = (
{
anchors = (
{
name = ogonek;
position = "{476, 49}";
},
{
name = top;
position = "{297, 505}";
}
);
layerId = "CF479DE4-94A2-4865-8D1E-65EA355866D4";
paths = (
{
closed = 1;
nodes = (
"306 16 OFFCURVE",
"312 -7 OFFCURVE",
"362 -7 CURVE SMOOTH",
"402 -7 OFFCURVE",
"454 30 OFFCURVE",
"476 49 CURVE",
"466 81 LINE",
"461 78 OFFCURVE",
"433 62 OFFCURVE",
"415 62 CURVE SMOOTH",
"401 62 OFFCURVE",
"394 66 OFFCURVE",
"394 77 CURVE SMOOTH",
"394 79 OFFCURVE",
"396 91 OFFCURVE",
"397 99 CURVE SMOOTH",
"458 474 LINE",
"458 474 OFFCURVE",
"444 476 OFFCURVE",
"427 476 CURVE SMOOTH",
"402 476 OFFCURVE",
"386 463 OFFCURVE",
"376 452 CURVE",
"337 470 OFFCURVE",
"300 478 OFFCURVE",
"267 478 CURVE SMOOTH",
"123 478 OFFCURVE",
"40 324 OFFCURVE",
"40 172 CURVE SMOOTH",
"40 69 OFFCURVE",
"65 -7 OFFCURVE",
"167 -7 CURVE SMOOTH",
"231 -7 OFFCURVE",
"283 52 OFFCURVE",
"314 98 CURVE",
"309 72 OFFCURVE",
"306 53 OFFCURVE",
"306 45 CURVE SMOOTH",
"306 45 LINE"
);
},
{
closed = 1;
nodes = (
"146 45 OFFCURVE",
"129 101 OFFCURVE",
"129 171 CURVE SMOOTH",
"129 273 OFFCURVE",
"185 430 OFFCURVE",
"287 430 CURVE SMOOTH",
"309 430 OFFCURVE",
"334 423 OFFCURVE",
"360 406 CURVE",
"343 301 LINE SMOOTH",
"318 145 OFFCURVE",
"245 45 OFFCURVE",
"193 45 CURVE SMOOTH",
"193 45 LINE"
);
}
);
width = 526;
},
{
anchors = (
{
name = ogonek;
position = "{548, 46}";
},
{
name = top;
position = "{333, 515}";
}
);
layerId = "0FAD76F5-9F58-4721-BF81-08BC6166EF10";
paths = (
{
closed = 1;
nodes = (
"519 490 OFFCURVE",
"508 491 OFFCURVE",
"497 491 CURVE SMOOTH",
"461 491 OFFCURVE",
"434 484 OFFCURVE",
"413 472 CURVE",
"379 484 OFFCURVE",
"346 492 OFFCURVE",
"309 492 CURVE SMOOTH",
"158 492 OFFCURVE",
"37 395 OFFCURVE",
"37 181 CURVE SMOOTH",
"37 49 OFFCURVE",
"113 -11 OFFCURVE",
"196 -11 CURVE SMOOTH",
"256 -11 OFFCURVE",
"297 15 OFFCURVE",
"326 56 CURVE",
"331 19 OFFCURVE",
"351 -6 OFFCURVE",
"406 -6 CURVE SMOOTH",
"467 -6 OFFCURVE",
"523 30 OFFCURVE",
"548 46 CURVE",
"535 84 LINE",
"519 74 OFFCURVE",
"500 69 OFFCURVE",
"488 69 CURVE SMOOTH",
"473 69 OFFCURVE",
"467 76 OFFCURVE",
"467 93 CURVE SMOOTH",
"467 115 OFFCURVE",
"529 488 OFFCURVE",
"529 489 CURVE",
"529 489 LINE"
);
},
{
closed = 1;
nodes = (
"195 50 OFFCURVE",
"181 112 OFFCURVE",
"181 182 CURVE SMOOTH",
"181 358 OFFCURVE",
"252 443 OFFCURVE",
"332 443 CURVE SMOOTH",
"349 443 OFFCURVE",
"364 440 OFFCURVE",
"380 434 CURVE",
"348 249 LINE SMOOTH",
"327 127 OFFCURVE",
"290 50 OFFCURVE",
"241 50 CURVE SMOOTH",
"241 50 LINE"
);
}
);
width = 570;
}
);
unicode = 0061;
},
{
glyphname = b;
lastChange = "2019-08-19 16:07:20 +0000";
layers = (
{
layerId = "CF479DE4-94A2-4865-8D1E-65EA355866D4";
paths = (
{
closed = 1;
nodes = (
"76 18 OFFCURVE",
"104 12 OFFCURVE",
"137 5 CURVE SMOOTH",
"165 -2 OFFCURVE",
"214 -7 OFFCURVE",
"242 -7 CURVE SMOOTH",
"383 -7 OFFCURVE",
"479 155 OFFCURVE",
"479 297 CURVE SMOOTH",
"479 399 OFFCURVE",
"454 476 OFFCURVE",
"351 476 CURVE SMOOTH",
"290 476 OFFCURVE",
"241 423 OFFCURVE",
"210 378 CURVE",
"258 672 LINE",
"246 694 LINE",
"246 694 OFFCURVE",
"227 696 OFFCURVE",
"209 696 CURVE SMOOTH",
"161 696 OFFCURVE",
"89 682 OFFCURVE",
"89 682 CURVE",
"83 643 LINE",
"123 643 OFFCURVE",
"161 642 OFFCURVE",
"161 606 CURVE SMOOTH",
"161 603 OFFCURVE",
"160 599 OFFCURVE",
"158 584 CURVE SMOOTH",
"81 103 LINE SMOOTH",
"78 82 OFFCURVE",
"76 67 OFFCURVE",
"76 60 CURVE SMOOTH",
"76 60 LINE"
);
},
{
closed = 1;
nodes = (
"186 306 OFFCURVE",
"271 424 OFFCURVE",
"326 424 CURVE SMOOTH",
"373 424 OFFCURVE",
"390 368 OFFCURVE",
"390 297 CURVE SMOOTH",
"390 188 OFFCURVE",
"327 38 OFFCURVE",
"234 38 CURVE SMOOTH",
"195 38 OFFCURVE",
"162 51 OFFCURVE",
"162 75 CURVE",
"162 75 LINE"
);
}
);
width = 521;
},
{
layerId = "0FAD76F5-9F58-4721-BF81-08BC6166EF10";
paths = (
{
closed = 1;
nodes = (
"272 682 LINE",
"245 696 LINE",
"190 695 OFFCURVE",
"100 681 OFFCURVE",
"50 660 CURVE",
"53 621 LINE",
"61 622 OFFCURVE",
"68 623 OFFCURVE",
"74 623 CURVE SMOOTH",
"101 623 OFFCURVE",
"114 609 OFFCURVE",
"114 580 CURVE SMOOTH",
"114 573 OFFCURVE",
"113 566 OFFCURVE",
"112 558 CURVE SMOOTH",
"40 98 LINE",
"41 80 OFFCURVE",
"52 65 OFFCURVE",
"68 52 CURVE SMOOTH",
"117 13 OFFCURVE",
"216 -7 OFFCURVE",
"258 -7 CURVE SMOOTH",
"424 -7 OFFCURVE",
"532 110 OFFCURVE",
"532 313 CURVE SMOOTH",
"532 429 OFFCURVE",
"478 492 OFFCURVE",
"379 492 CURVE SMOOTH",
"317 492 OFFCURVE",
"267 469 OFFCURVE",
"231 425 CURVE",
"252 555 LINE"
);
},
{
closed = 1;
nodes = (
"367 432 OFFCURVE",
"387 395 OFFCURVE",
"387 322 CURVE SMOOTH",
"387 190 OFFCURVE",
"350 46 OFFCURVE",
"238 46 CURVE SMOOTH",
"211 46 OFFCURVE",
"188 55 OFFCURVE",
"175 65 CURVE",
"207 268 LINE SMOOTH",
"224 377 OFFCURVE",
"269 432 OFFCURVE",
"324 432 CURVE SMOOTH",
"324 432 LINE"
);
}
);
width = 567;
}
);
unicode = 0062;
},
{
glyphname = c;
lastChange = "2019-08-19 16:07:20 +0000";
layers = (
{
anchors = (
{
name = cedilla;
position = "{211, 0}";
},
{
name = top;
position = "{286, 505}";
}
);
layerId = "CF479DE4-94A2-4865-8D1E-65EA355866D4";
paths = (
{
closed = 1;
nodes = (
"39 51 OFFCURVE",
"90 -7 OFFCURVE",
"210 -7 CURVE SMOOTH",
"304 -7 OFFCURVE",
"378 63 OFFCURVE",
"378 63 CURVE",
"351 100 LINE",
"351 100 OFFCURVE",
"281 45 OFFCURVE",
"222 45 CURVE SMOOTH",
"155 45 OFFCURVE",
"128 104 OFFCURVE",
"128 171 CURVE SMOOTH",
"128 298 OFFCURVE",
"194 431 OFFCURVE",
"277 431 CURVE SMOOTH",
"304 431 OFFCURVE",
"320 418 OFFCURVE",
"320 383 CURVE SMOOTH",
"320 368 OFFCURVE",
"315 355 OFFCURVE",
"304 338 CURVE",
"306 317 OFFCURVE",
"323 302 OFFCURVE",
"348 302 CURVE SMOOTH",
"383 302 OFFCURVE",
"410 338 OFFCURVE",
"410 374 CURVE SMOOTH",
"410 444 OFFCURVE",
"339 476 OFFCURVE",
"266 476 CURVE SMOOTH",
"110 476 OFFCURVE",
"39 307 OFFCURVE",
"39 171 CURVE SMOOTH",
"39 171 LINE"
);
}
);
width = 433;
},
{
anchors = (
{
name = cedilla;
position = "{227, 0}";
},
{
name = top;
position = "{282, 515}";
}
);
layerId = "0FAD76F5-9F58-4721-BF81-08BC6166EF10";
paths = (
{
closed = 1;
nodes = (
"295 -7 OFFCURVE",
"368 21 OFFCURVE",
"421 68 CURVE",
"390 104 LINE",
"347 69 OFFCURVE",
"302 51 OFFCURVE",
"260 51 CURVE SMOOTH",
"197 51 OFFCURVE",
"168 89 OFFCURVE",
"168 177 CURVE SMOOTH",
"168 301 OFFCURVE",
"203 443 OFFCURVE",
"287 443 CURVE SMOOTH",
"313 443 OFFCURVE",
"330 427 OFFCURVE",
"330 405 CURVE SMOOTH",
"330 392 OFFCURVE",
"324 375 OFFCURVE",
"311 360 CURVE",
"315 336 OFFCURVE",
"341 318 OFFCURVE",
"372 318 CURVE SMOOTH",
"420 318 OFFCURVE",
"462 352 OFFCURVE",
"462 396 CURVE SMOOTH",
"462 451 OFFCURVE",
"400 489 OFFCURVE",
"303 489 CURVE SMOOTH",
"121 489 OFFCURVE",
"22 374 OFFCURVE",
"22 186 CURVE SMOOTH",
"22 61 OFFCURVE",
"91 -7 OFFCURVE",
"226 -7 CURVE SMOOTH",
"226 -7 LINE"
);
}
);
width = 452;
}
);
unicode = 0063;
},
{
glyphname = d;
lastChange = "2019-08-19 16:07:20 +0000";
layers = (
{
anchors = (
{
name = cedilla;
position = "{221, 0}";
}
);
layerId = "CF479DE4-94A2-4865-8D1E-65EA355866D4";
paths = (
{
closed = 1;
nodes = (
"306 16 OFFCURVE",
"312 -7 OFFCURVE",
"363 -7 CURVE SMOOTH",
"402 -7 OFFCURVE",
"454 30 OFFCURVE",
"476 49 CURVE",
"466 81 LINE",
"461 78 OFFCURVE",
"433 62 OFFCURVE",
"416 62 CURVE SMOOTH",
"402 62 OFFCURVE",
"394 65 OFFCURVE",
"394 77 CURVE SMOOTH",
"394 79 OFFCURVE",
"395 86 OFFCURVE",
"397 96 CURVE SMOOTH",
"490 672 LINE",
"478 694 LINE",
"478 694 OFFCURVE",
"458 696 OFFCURVE",
"441 696 CURVE SMOOTH",
"391 696 OFFCURVE",
"321 682 OFFCURVE",
"321 682 CURVE",
"315 643 LINE",
"361 643 OFFCURVE",
"392 640 OFFCURVE",
"392 604 CURVE SMOOTH",
"392 600 OFFCURVE",
"391 590 OFFCURVE",
"389 577 CURVE SMOOTH",
"368 455 LINE",
"325 474 OFFCURVE",
"288 476 OFFCURVE",
"262 476 CURVE SMOOTH",
"121 476 OFFCURVE",
"40 313 OFFCURVE",
"40 172 CURVE SMOOTH",
"40 69 OFFCURVE",
"65 -7 OFFCURVE",
"167 -7 CURVE SMOOTH",
"231 -7 OFFCURVE",
"283 52 OFFCURVE",
"314 98 CURVE",
"309 72 OFFCURVE",
"306 53 OFFCURVE",
"306 45 CURVE SMOOTH",
"306 45 LINE"
);
},
{
closed = 1;
nodes = (
"146 45 OFFCURVE",
"129 101 OFFCURVE",
"129 171 CURVE SMOOTH",
"129 280 OFFCURVE",
"191 431 OFFCURVE",
"285 431 CURVE SMOOTH",
"314 431 OFFCURVE",
"340 419 OFFCURVE",
"360 406 CURVE",
"343 301 LINE SMOOTH",
"318 145 OFFCURVE",
"245 45 OFFCURVE",
"193 45 CURVE SMOOTH",
"193 45 LINE"
);
}
);
width = 524;
},
{
layerId = "0FAD76F5-9F58-4721-BF81-08BC6166EF10";
paths = (
{
closed = 1;
nodes = (
"575 682 LINE",
"547 696 LINE",
"492 695 OFFCURVE",
"402 681 OFFCURVE",
"352 660 CURVE",
"355 621 LINE",
"362 622 OFFCURVE",
"369 623 OFFCURVE",
"375 623 CURVE SMOOTH",
"403 623 OFFCURVE",
"415 609 OFFCURVE",
"415 579 CURVE SMOOTH",
"415 573 OFFCURVE",
"415 566 OFFCURVE",
"400 468 CURVE",
"373 483 OFFCURVE",
"348 492 OFFCURVE",
"305 492 CURVE SMOOTH",
"138 492 OFFCURVE",
"36 372 OFFCURVE",
"36 172 CURVE SMOOTH",
"36 55 OFFCURVE",
"90 -7 OFFCURVE",
"189 -7 CURVE SMOOTH",
"244 -7 OFFCURVE",
"307 16 OFFCURVE",
"340 73 CURVE",
"342 24 OFFCURVE",
"365 -5 OFFCURVE",
"424 -5 CURVE SMOOTH",
"471 -5 OFFCURVE",
"538 23 OFFCURVE",
"564 49 CURVE",
"551 85 LINE",
"533 75 OFFCURVE",
"517 69 OFFCURVE",
"505 69 CURVE SMOOTH",
"491 69 OFFCURVE",
"483 77 OFFCURVE",
"483 93 CURVE SMOOTH",
"483 96 OFFCURVE",
"484 110 OFFCURVE",
"487 129 CURVE SMOOTH",
"558 572 LINE"
);
},
{
closed = 1;
nodes = (
"344 114 OFFCURVE",
"302 53 OFFCURVE",
"243 53 CURVE SMOOTH",
"201 53 OFFCURVE",
"181 90 OFFCURVE",
"181 163 CURVE SMOOTH",
"181 300 OFFCURVE",
"221 438 OFFCURVE",
"330 438 CURVE SMOOTH",
"356 438 OFFCURVE",
"380 429 OFFCURVE",
"392 419 CURVE",
"363 234 LINE"
);
}
);
width = 570;
}
);
unicode = 0064;
},
{
glyphname = e;
lastChange = "2019-08-19 16:07:20 +0000";
layers = (
{
anchors = (
{
name = cedilla;
position = "{200, 0}";
},
{
name = ogonek;
position = "{370, 55}";
},
{
name = top;
position = "{284, 505}";
}
);
layerId = "CF479DE4-94A2-4865-8D1E-65EA355866D4";
paths = (
{
closed = 1;
nodes = (
"423 424 OFFCURVE",
"382 476 OFFCURVE",
"286 476 CURVE SMOOTH",
"141 476 OFFCURVE",
"40 350 OFFCURVE",
"40 157 CURVE SMOOTH",
"40 79 OFFCURVE",
"80 -7 OFFCURVE",
"200 -7 CURVE SMOOTH",
"280 -7 OFFCURVE",
"350 33 OFFCURVE",
"386 69 CURVE",
"357 106 LINE",
"329 85 OFFCURVE",
"272 45 OFFCURVE",
"220 45 CURVE SMOOTH",
"168 45 OFFCURVE",
"131 84 OFFCURVE",
"131 172 CURVE SMOOTH",
"131 195 LINE",
"300 195 OFFCURVE",
"423 273 OFFCURVE",
"423 370 CURVE SMOOTH",
"423 370 LINE"
);
},
{
closed = 1;
nodes = (
"317 430 OFFCURVE",
"335 402 OFFCURVE",
"335 372 CURVE SMOOTH",
"335 298 OFFCURVE",
"256 244 OFFCURVE",
"136 244 CURVE",
"152 349 OFFCURVE",
"203 430 OFFCURVE",
"279 430 CURVE SMOOTH",
"279 430 LINE"
);
}
);
width = 457;
},
{
anchors = (
{
name = ogonek;
position = "{446, 78}";
},
{
name = top;
position = "{309, 515}";
}
);
layerId = "0FAD76F5-9F58-4721-BF81-08BC6166EF10";
paths = (
{
closed = 1;
nodes = (
"363 210 OFFCURVE",
"478 280 OFFCURVE",
"478 392 CURVE SMOOTH",
"478 452 OFFCURVE",
"412 492 OFFCURVE",
"313 492 CURVE SMOOTH",
"137 492 OFFCURVE",
"27 375 OFFCURVE",
"27 189 CURVE SMOOTH",
"27 69 OFFCURVE",
"103 -7 OFFCURVE",
"223 -7 CURVE SMOOTH",
"300 -7 OFFCURVE",
"382 24 OFFCURVE",
"446 78 CURVE",
"413 117 LINE",
"372 84 OFFCURVE",
"312 62 OFFCURVE",
"262 62 CURVE SMOOTH",
"200 62 OFFCURVE",
"166 97 OFFCURVE",
"166 160 CURVE SMOOTH",
"166 173 OFFCURVE",
"167 188 OFFCURVE",
"170 210 CURVE",
"181 210 LINE"
);
},
{
closed = 1;
nodes = (
"335 443 OFFCURVE",
"353 425 OFFCURVE",
"353 390 CURVE SMOOTH",
"353 324 OFFCURVE",
"269 271 OFFCURVE",
"179 268 CURVE",
"200 378 OFFCURVE",
"231 443 OFFCURVE",
"301 443 CURVE SMOOTH",
"301 443 LINE"
);
}
);
width = 499;
}
);
unicode = 0065;
},
{
glyphname = f;
lastChange = "2019-08-19 16:07:20 +0000";
layers = (
{
layerId = "CF479DE4-94A2-4865-8D1E-65EA355866D4";
paths = (
{
closed = 1;
nodes = (
"115 -219 OFFCURVE",
"137 -55 OFFCURVE",
"155 59 CURVE SMOOTH",
"211 413 LINE",
"308 413 LINE",
"315 462 LINE",
"219 462 LINE",
"226 521 OFFCURVE",
"213 650 OFFCURVE",
"294 650 CURVE SMOOTH",
"324 650 OFFCURVE",
"338 635 OFFCURVE",
"338 617 CURVE SMOOTH",
"338 603 OFFCURVE",
"329 587 OFFCURVE",
"314 576 CURVE",
"321 551 OFFCURVE",
"340 540 OFFCURVE",
"359 540 CURVE SMOOTH",
"388 540 OFFCURVE",
"421 567 OFFCURVE",
"421 613 CURVE SMOOTH",
"421 663 OFFCURVE",
"372 697 OFFCURVE",
"313 697 CURVE SMOOTH",
"208 697 OFFCURVE",
"163 617 OFFCURVE",
"143 513 CURVE SMOOTH",
"134 467 LINE",
"58 447 LINE",
"52 413 LINE",
"126 413 LINE",
"71 70 LINE SMOOTH",
"53 -40 OFFCURVE",
"61 -171 OFFCURVE",
"-12 -171 CURVE SMOOTH",
"-31 -171 OFFCURVE",
"-39 -158 OFFCURVE",
"-39 -143 CURVE SMOOTH",
"-39 -131 OFFCURVE",
"-33 -118 OFFCURVE",
"-22 -112 CURVE",
"-27 -88 OFFCURVE",
"-48 -76 OFFCURVE",
"-70 -76 CURVE SMOOTH",
"-99 -76 OFFCURVE",
"-129 -97 OFFCURVE",
"-129 -142 CURVE SMOOTH",
"-129 -190 OFFCURVE",
"-88 -219 OFFCURVE",
"-31 -219 CURVE SMOOTH",
"-31 -219 LINE"
);
}
);
width = 292;
},
{
layerId = "0FAD76F5-9F58-4721-BF81-08BC6166EF10";
paths = (
{
closed = 1;
nodes = (
"45 -40 OFFCURVE",
"62 -171 OFFCURVE",
"-21 -171 CURVE SMOOTH",
"-41 -171 OFFCURVE",
"-50 -157 OFFCURVE",
"-50 -141 CURVE SMOOTH",
"-50 -127 OFFCURVE",
"-42 -110 OFFCURVE",
"-29 -103 CURVE",
"-34 -75 OFFCURVE",
"-58 -61 OFFCURVE",
"-83 -61 CURVE SMOOTH",
"-116 -61 OFFCURVE",
"-152 -85 OFFCURVE",
"-152 -135 CURVE SMOOTH",
"-152 -191 OFFCURVE",
"-98 -219 OFFCURVE",
"-32 -219 CURVE SMOOTH",
"150 -219 OFFCURVE",
"182 -55 OFFCURVE",
"200 59 CURVE SMOOTH",
"256 415 LINE",
"360 415 LINE",
"370 478 LINE",
"266 478 LINE",
"267 483 OFFCURVE",
"267 489 OFFCURVE",
"267 495 CURVE SMOOTH",
"267 520 OFFCURVE",
"262 550 OFFCURVE",
"262 573 CURVE SMOOTH",
"262 608 OFFCURVE",
"278 670 OFFCURVE",
"334 670 CURVE SMOOTH",
"359 670 OFFCURVE",
"371 658 OFFCURVE",
"371 638 CURVE SMOOTH",
"371 621 OFFCURVE",
"361 604 OFFCURVE",
"344 591 CURVE",
"345 564 OFFCURVE",
"369 548 OFFCURVE",
"396 548 CURVE SMOOTH",
"431 548 OFFCURVE",
"470 572 OFFCURVE",
"470 625 CURVE SMOOTH",
"470 686 OFFCURVE",
"397 709 OFFCURVE",
"346 709 CURVE SMOOTH",
"232 709 OFFCURVE",
"149 628 OFFCURVE",
"132 522 CURVE SMOOTH",
"125 478 LINE",
"100 468 OFFCURVE",
"68 460 OFFCURVE",
"44 456 CURVE",
"36 415 LINE",
"115 415 LINE",
"62 70 LINE"
);
}
);
width = 320;
}
);
unicode = 0066;
},
{
glyphname = g;
lastChange = "2019-08-19 16:07:20 +0000";
layers = (
{
anchors = (
{
name = top;
position = "{296, 505}";
}
);
layerId = "CF479DE4-94A2-4865-8D1E-65EA355866D4";
paths = (
{
closed = 1;
nodes = (
"-36 -184 OFFCURVE",
"41 -219 OFFCURVE",
"134 -219 CURVE SMOOTH",
"293 -219 OFFCURVE",
"376 -126 OFFCURVE",
"408 74 CURVE SMOOTH",
"473 474 LINE",
"473 474 OFFCURVE",
"458 476 OFFCURVE",
"441 476 CURVE SMOOTH",
"416 476 OFFCURVE",
"399 464 OFFCURVE",
"389 452 CURVE",
"343 473 OFFCURVE",
"305 476 OFFCURVE",
"277 476 CURVE SMOOTH",
"136 476 OFFCURVE",
"55 313 OFFCURVE",
"55 172 CURVE SMOOTH",
"55 69 OFFCURVE",
"80 -7 OFFCURVE",
"182 -7 CURVE SMOOTH",
"245 -7 OFFCURVE",
"297 51 OFFCURVE",
"328 97 CURVE",
"318 36 LINE SMOOTH",
"298 -83 OFFCURVE",
"258 -173 OFFCURVE",
"149 -173 CURVE SMOOTH",
"89 -173 OFFCURVE",
"66 -144 OFFCURVE",
"66 -117 CURVE SMOOTH",
"66 -103 OFFCURVE",
"72 -89 OFFCURVE",
"83 -80 CURVE",
"74 -56 OFFCURVE",
"54 -45 OFFCURVE",
"32 -45 CURVE SMOOTH",
"-1 -45 OFFCURVE",
"-36 -70 OFFCURVE",
"-36 -113 CURVE SMOOTH",
"-36 -113 LINE"
);
},
{
closed = 1;
nodes = (
"345 182 OFFCURVE",
"262 45 OFFCURVE",
"208 45 CURVE SMOOTH",
"161 45 OFFCURVE",
"144 101 OFFCURVE",
"144 171 CURVE SMOOTH",
"144 280 OFFCURVE",
"206 431 OFFCURVE",
"300 431 CURVE SMOOTH",
"328 431 OFFCURVE",
"354 420 OFFCURVE",
"373 407 CURVE",
"361 312 LINE"
);
}
);
width = 522;
},
{
anchors = (
{
name = top;
position = "{329, 515}";
}
);
layerId = "0FAD76F5-9F58-4721-BF81-08BC6166EF10";
paths = (
{
closed = 1;
nodes = (
"536 490 OFFCURVE",
"525 491 OFFCURVE",
"514 491 CURVE SMOOTH",
"478 491 OFFCURVE",
"451 484 OFFCURVE",
"430 472 CURVE",
"396 484 OFFCURVE",
"363 492 OFFCURVE",
"326 492 CURVE SMOOTH",
"175 492 OFFCURVE",
"54 395 OFFCURVE",
"54 181 CURVE SMOOTH",
"54 49 OFFCURVE",
"130 -11 OFFCURVE",
"213 -11 CURVE SMOOTH",
"269 -11 OFFCURVE",
"308 12 OFFCURVE",
"337 48 CURVE",
"336 36 LINE SMOOTH",
"324 -77 OFFCURVE",
"287 -164 OFFCURVE",
"192 -164 CURVE SMOOTH",
"145 -164 OFFCURVE",
"129 -142 OFFCURVE",
"129 -119 CURVE SMOOTH",
"129 -101 OFFCURVE",
"139 -82 OFFCURVE",
"152 -73 CURVE",
"141 -44 OFFCURVE",
"116 -31 OFFCURVE",
"90 -31 CURVE SMOOTH",
"50 -31 OFFCURVE",
"7 -61 OFFCURVE",
"7 -113 CURVE SMOOTH",
"7 -199 OFFCURVE",
"84 -219 OFFCURVE",
"177 -219 CURVE SMOOTH",
"347 -219 OFFCURVE",
"445 -135 OFFCURVE",
"475 49 CURVE SMOOTH",
"546 489 LINE"
);
},
{
closed = 1;
nodes = (
"346 134 OFFCURVE",
"308 50 OFFCURVE",
"258 50 CURVE SMOOTH",
"212 50 OFFCURVE",
"198 112 OFFCURVE",
"198 182 CURVE SMOOTH",
"198 358 OFFCURVE",
"269 443 OFFCURVE",
"349 443 CURVE SMOOTH",
"366 443 OFFCURVE",
"381 440 OFFCURVE",
"397 434 CURVE",
"368 262 LINE"
);
}
);
width = 565;
}
);
unicode = 0067;
},
{
glyphname = h;
lastChange = "2019-08-19 16:07:20 +0000";
layers = (
{
anchors = (
{
name = cedilla;
position = "{83, 0}";
},
{
name = top;
position = "{178, 722}";
}
);
layerId = "CF479DE4-94A2-4865-8D1E-65EA355866D4";
paths = (
{
closed = 1;
nodes = (
"453 352 OFFCURVE",
"454 360 OFFCURVE",
"454 369 CURVE SMOOTH",
"454 437 OFFCURVE",
"413 476 OFFCURVE",
"341 476 CURVE SMOOTH",
"266 476 OFFCURVE",
"214 413 OFFCURVE",
"183 359 CURVE",
"234 672 LINE",
"222 694 LINE",
"222 694 OFFCURVE",
"203 696 OFFCURVE",
"185 696 CURVE SMOOTH",
"135 696 OFFCURVE",
"64 682 OFFCURVE",
"64 682 CURVE",
"59 643 LINE",
"105 643 OFFCURVE",
"136 640 OFFCURVE",
"136 604 CURVE SMOOTH",
"136 604 OFFCURVE",
"135 589 OFFCURVE",
"133 576 CURVE SMOOTH",
"41 0 LINE",
"127 0 LINE",
"160 201 LINE",
"184 310 OFFCURVE",
"238 421 OFFCURVE",
"313 421 CURVE SMOOTH",
"343 421 OFFCURVE",
"366 399 OFFCURVE",
"366 353 CURVE SMOOTH",
"366 319 OFFCURVE",
"318 74 OFFCURVE",
"318 45 CURVE SMOOTH",
"318 16 OFFCURVE",
"325 -7 OFFCURVE",
"375 -7 CURVE SMOOTH",
"415 -7 OFFCURVE",
"467 30 OFFCURVE",
"489 49 CURVE",
"479 81 LINE",
"474 78 OFFCURVE",
"445 62 OFFCURVE",
"428 62 CURVE SMOOTH",
"412 62 OFFCURVE",
"407 68 OFFCURVE",
"407 84 CURVE",
"449 327 LINE"
);
}
);
width = 530;
},
{
anchors = (
{
name = top;
position = "{374, 715}";
}
);
layerId = "0FAD76F5-9F58-4721-BF81-08BC6166EF10";
paths = (
{
closed = 1;
nodes = (
"347 116 OFFCURVE",
"345 97 OFFCURVE",
"345 81 CURVE SMOOTH",
"345 27 OFFCURVE",
"365 -6 OFFCURVE",
"428 -6 CURVE SMOOTH",
"475 -6 OFFCURVE",
"542 22 OFFCURVE",
"568 48 CURVE",
"555 84 LINE",
"537 74 OFFCURVE",
"521 68 OFFCURVE",
"509 68 CURVE SMOOTH",
"495 68 OFFCURVE",
"487 76 OFFCURVE",
"487 92 CURVE SMOOTH",
"487 95 OFFCURVE",
"488 107 OFFCURVE",
"490 117 CURVE SMOOTH",
"521 321 LINE SMOOTH",
"525 349 OFFCURVE",
"526 359 OFFCURVE",
"526 369 CURVE SMOOTH",
"526 446 OFFCURVE",
"479 492 OFFCURVE",
"399 492 CURVE SMOOTH",
"333 492 OFFCURVE",
"280 458 OFFCURVE",
"239 395 CURVE",
"285 680 LINE",
"258 697 LINE",
"203 696 OFFCURVE",
"113 682 OFFCURVE",
"63 661 CURVE",
"66 622 LINE",
"74 623 OFFCURVE",
"81 624 OFFCURVE",
"87 624 CURVE SMOOTH",
"114 624 OFFCURVE",
"127 610 OFFCURVE",
"127 581 CURVE SMOOTH",
"127 574 OFFCURVE",
"126 567 OFFCURVE",
"125 559 CURVE SMOOTH",
"36 0 LINE",
"177 0 LINE",
"208 196 LINE SMOOTH",
"226 310 OFFCURVE",
"294 425 OFFCURVE",
"342 425 CURVE SMOOTH",
"369 425 OFFCURVE",
"384 404 OFFCURVE",
"384 365 CURVE SMOOTH",
"384 354 OFFCURVE",
"384 342 OFFCURVE",
"380 320 CURVE SMOOTH",
"350 136 LINE"
);
}
);
width = 580;
}
);
unicode = 0068;
},
{
glyphname = i;
lastChange = "2019-08-19 16:07:20 +0000";
layers = (
{
anchors = (
{
name = ogonek;
position = "{228, 47}";
}
);
background = {
paths = (
{
closed = 1;
nodes = (
"207 549 OFFCURVE",
"230 576 OFFCURVE",
"230 620 CURVE SMOOTH",
"230 647 OFFCURVE",
"214 665 OFFCURVE",
"186 665 CURVE SMOOTH",
"151 665 OFFCURVE",
"128 638 OFFCURVE",
"128 594 CURVE SMOOTH",
"128 566 OFFCURVE",
"144 549 OFFCURVE",
"172 549 CURVE SMOOTH"
);
}
);
};
components = (
{
name = dotaccent;
transform = "{1, 0, 0, 1, 27, -9}";
}
);
layerId = "CF479DE4-94A2-4865-8D1E-65EA355866D4";
paths = (
{
closed = 1;
nodes = (
"56 16 OFFCURVE",
"62 -7 OFFCURVE",
"112 -7 CURVE SMOOTH",
"152 -7 OFFCURVE",
"205 30 OFFCURVE",
"227 49 CURVE",
"217 81 LINE",
"212 78 OFFCURVE",
"183 62 OFFCURVE",
"166 62 CURVE SMOOTH",
"150 62 OFFCURVE",
"147 68 OFFCURVE",
"147 84 CURVE SMOOTH",
"147 104 OFFCURVE",
"201 430 OFFCURVE",
"205 454 CURVE",
"193 473 LINE",
"193 473 OFFCURVE",
"182 476 OFFCURVE",
"166 476 CURVE SMOOTH",
"108 476 OFFCURVE",
"38 445 OFFCURVE",
"38 445 CURVE",
"43 413 LINE",
"55 414 OFFCURVE",
"65 415 OFFCURVE",
"74 415 CURVE SMOOTH",
"95 415 OFFCURVE",
"107 409 OFFCURVE",
"107 386 CURVE SMOOTH",
"107 374 OFFCURVE",
"56 74 OFFCURVE",
"56 45 CURVE SMOOTH",
"56 45 LINE"
);
}
);
width = 271;
},
{
anchors = (
{
name = ogonek;
position = "{288, 48}";
}
);
background = {
paths = (
{
closed = 1;
nodes = (
"256 550 OFFCURVE",
"289 581 OFFCURVE",
"289 634 CURVE SMOOTH",
"289 667 OFFCURVE",
"264 690 OFFCURVE",
"224 690 CURVE SMOOTH",
"174 690 OFFCURVE",
"141 659 OFFCURVE",
"141 606 CURVE SMOOTH",
"141 572 OFFCURVE",
"166 550 OFFCURVE",
"206 550 CURVE SMOOTH"
);
}
);
};
components = (
{
name = dotaccent;
transform = "{1, 0, 0, 1, 60, 0}";
}
);
layerId = "0FAD76F5-9F58-4721-BF81-08BC6166EF10";
paths = (
{
closed = 1;
nodes = (
"67 116 OFFCURVE",
"65 97 OFFCURVE",
"65 81 CURVE SMOOTH",
"65 27 OFFCURVE",
"85 -6 OFFCURVE",
"148 -6 CURVE SMOOTH",
"195 -6 OFFCURVE",
"262 22 OFFCURVE",
"288 48 CURVE",
"275 84 LINE",
"257 74 OFFCURVE",
"241 68 OFFCURVE",
"229 68 CURVE SMOOTH",
"215 68 OFFCURVE",
"206 76 OFFCURVE",
"206 93 CURVE SMOOTH",
"206 102 OFFCURVE",
"209 117 OFFCURVE",
"210 123 CURVE SMOOTH",
"265 478 LINE",
"238 492 LINE",
"183 491 OFFCURVE",
"93 477 OFFCURVE",
"43 456 CURVE",
"46 417 LINE",
"54 418 OFFCURVE",
"61 419 OFFCURVE",
"67 419 CURVE SMOOTH",
"94 419 OFFCURVE",
"107 405 OFFCURVE",
"107 376 CURVE SMOOTH",
"107 369 OFFCURVE",
"106 362 OFFCURVE",
"105 354 CURVE SMOOTH",
"70 136 LINE"
);
}
);
width = 302;
}
);
unicode = 0069;
},
{
glyphname = j;
lastChange = "2019-08-19 16:07:20 +0000";
layers = (
{
background = {
paths = (
{
closed = 1;
nodes = (
"206 549 OFFCURVE",
"229 576 OFFCURVE",
"229 620 CURVE SMOOTH",
"229 647 OFFCURVE",
"213 665 OFFCURVE",
"185 665 CURVE SMOOTH",
"150 665 OFFCURVE",
"127 638 OFFCURVE",
"127 594 CURVE SMOOTH",
"127 566 OFFCURVE",
"143 549 OFFCURVE",
"171 549 CURVE SMOOTH"
);
}
);
};
components = (
{
name = dotaccent;
transform = "{1, 0, 0, 1, 25, -9}";
}
);
layerId = "CF479DE4-94A2-4865-8D1E-65EA355866D4";
paths = (
{
closed = 1;
nodes = (
"95 -219 OFFCURVE",
"119 -64 OFFCURVE",
"137 48 CURVE SMOOTH",
"203 454 LINE",
"190 473 LINE",
"190 473 OFFCURVE",
"180 476 OFFCURVE",
"164 476 CURVE SMOOTH",
"106 476 OFFCURVE",
"38 445 OFFCURVE",
"38 445 CURVE",
"43 413 LINE",
"55 414 OFFCURVE",
"65 415 OFFCURVE",
"74 415 CURVE SMOOTH",
"95 415 OFFCURVE",
"107 409 OFFCURVE",
"107 386 CURVE SMOOTH",
"107 381 OFFCURVE",
"104 367 OFFCURVE",
"102 353 CURVE SMOOTH",
"57 70 LINE SMOOTH",
"40 -40 OFFCURVE",
"46 -171 OFFCURVE",
"-27 -171 CURVE SMOOTH",
"-46 -171 OFFCURVE",
"-55 -158 OFFCURVE",
"-55 -143 CURVE SMOOTH",
"-55 -131 OFFCURVE",
"-49 -118 OFFCURVE",
"-38 -112 CURVE",
"-42 -88 OFFCURVE",
"-63 -76 OFFCURVE",
"-85 -76 CURVE SMOOTH",
"-113 -76 OFFCURVE",
"-145 -97 OFFCURVE",
"-145 -140 CURVE SMOOTH",
"-145 -189 OFFCURVE",
"-104 -219 OFFCURVE",
"-46 -219 CURVE SMOOTH",
"-46 -219 LINE"
);
}
);
width = 266;
},
{
anchors = (
{
name = top;
position = "{198, 515}";
}
);
layerId = "0FAD76F5-9F58-4721-BF81-08BC6166EF10";
paths = (
{
closed = 1;
nodes = (
"260 550 OFFCURVE",
"293 581 OFFCURVE",
"293 634 CURVE SMOOTH",
"293 667 OFFCURVE",
"268 690 OFFCURVE",
"228 690 CURVE SMOOTH",
"178 690 OFFCURVE",
"145 659 OFFCURVE",
"145 606 CURVE SMOOTH",
"145 572 OFFCURVE",
"170 550 OFFCURVE",
"210 550 CURVE SMOOTH",
"210 550 LINE"
);
},
{
closed = 1;
nodes = (
"269 478 LINE",
"242 492 LINE",
"187 491 OFFCURVE",
"97 477 OFFCURVE",
"47 456 CURVE",
"50 417 LINE",
"58 418 OFFCURVE",
"65 419 OFFCURVE",
"71 419 CURVE SMOOTH",
"98 419 OFFCURVE",
"111 405 OFFCURVE",
"111 376 CURVE SMOOTH",
"111 369 OFFCURVE",
"110 362 OFFCURVE",
"109 354 CURVE SMOOTH",
"63 62 LINE SMOOTH",
"48 -31 OFFCURVE",
"63 -168 OFFCURVE",
"6 -168 CURVE SMOOTH",
"-7 -168 OFFCURVE",
"-13 -156 OFFCURVE",
"-13 -142 CURVE SMOOTH",
"-13 -126 OFFCURVE",
"-4 -108 OFFCURVE",
"9 -97 CURVE",
"0 -80 OFFCURVE",
"-16 -72 OFFCURVE",
"-33 -72 CURVE SMOOTH",
"-75 -72 OFFCURVE",
"-107 -102 OFFCURVE",
"-107 -143 CURVE SMOOTH",
"-107 -193 OFFCURVE",
"-54 -218 OFFCURVE",
"4 -218 CURVE SMOOTH",
"54 -218 OFFCURVE",
"113 -200 OFFCURVE",
"143 -161 CURVE SMOOTH",
"169 -127 OFFCURVE",
"182 -80 OFFCURVE",
"189 -33 CURVE SMOOTH",
"255 389 LINE"
);
}
);
width = 297;
}
);
unicode = 006A;
},
{
glyphname = k;
lastChange = "2019-08-19 16:07:20 +0000";
layers = (
{
anchors = (
{
name = bottom;
position = "{274, 0}";
},
{
name = cedilla;
position = "{218, 0}";
}
);
layerId = "CF479DE4-94A2-4865-8D1E-65EA355866D4";
paths = (
{
closed = 1;
nodes = (
"218 694 LINE",
"218 694 OFFCURVE",
"199 696 OFFCURVE",
"181 696 CURVE SMOOTH",
"131 696 OFFCURVE",
"60 682 OFFCURVE",
"60 682 CURVE",
"55 643 LINE",
"101 643 OFFCURVE",
"132 640 OFFCURVE",
"132 604 CURVE SMOOTH",
"132 604 OFFCURVE",
"132 592 OFFCURVE",
"130 581 CURVE SMOOTH",
"37 0 LINE",
"123 0 LINE",
"156 211 LINE",
"179 219 OFFCURVE",
"201 228 OFFCURVE",
"221 237 CURVE",
"311 45 LINE SMOOTH",
"324 16 OFFCURVE",
"334 -7 OFFCURVE",
"367 -7 CURVE SMOOTH",
"407 -7 OFFCURVE",
"449 30 OFFCURVE",
"471 49 CURVE",
"461 81 LINE",
"456 78 OFFCURVE",
"427 62 OFFCURVE",
"410 62 CURVE SMOOTH",
"394 62 OFFCURVE",
"391 74 OFFCURVE",
"385 86 CURVE SMOOTH",
"289 271 LINE",
"453 363 OFFCURVE",
"453 450 OFFCURVE",
"453 454 CURVE",
"442 473 LINE",
"442 473 OFFCURVE",
"431 476 OFFCURVE",
"415 476 CURVE SMOOTH",
"357 476 OFFCURVE",
"312 455 OFFCURVE",
"312 455 CURVE",
"316 423 LINE",
"330 422 OFFCURVE",
"339 414 OFFCURVE",
"339 401 CURVE SMOOTH",
"339 371 OFFCURVE",
"293 316 OFFCURVE",
"165 265 CURVE",
"230 672 LINE"
);
}
);
width = 497;
},
{
anchors = (
{
name = bottom;
position = "{267, 0}";
}
);
layerId = "0FAD76F5-9F58-4721-BF81-08BC6166EF10";
paths = (
{
closed = 1;
nodes = (
"203 207 LINE",
"217 212 OFFCURVE",
"231 217 OFFCURVE",
"246 224 CURVE",
"321 59 LINE SMOOTH",
"340 17 OFFCURVE",
"368 2 OFFCURVE",
"398 2 CURVE SMOOTH",
"445 2 OFFCURVE",
"497 38 OFFCURVE",
"534 67 CURVE",
"518 100 LINE",
"506 93 OFFCURVE",
"487 84 OFFCURVE",
"470 84 CURVE SMOOTH",
"457 84 OFFCURVE",
"445 90 OFFCURVE",
"438 106 CURVE SMOOTH",
"357 281 LINE",
"438 332 OFFCURVE",
"509 397 OFFCURVE",
"521 468 CURVE",
"510 487 LINE",
"510 487 OFFCURVE",
"499 490 OFFCURVE",
"483 490 CURVE SMOOTH",
"413 490 OFFCURVE",
"360 469 OFFCURVE",
"360 469 CURVE",
"364 437 LINE",
"388 436 OFFCURVE",
"403 429 OFFCURVE",
"403 418 CURVE SMOOTH",
"403 378 OFFCURVE",
"351 347 OFFCURVE",
"323 330 CURVE SMOOTH",
"295 313 OFFCURVE",
"260 296 OFFCURVE",
"215 281 CURVE",
"278 682 LINE",
"251 696 LINE",
"242 696 LINE SMOOTH",
"186 696 OFFCURVE",
"103 680 OFFCURVE",
"56 660 CURVE",
"59 621 LINE",
"67 622 OFFCURVE",
"74 623 OFFCURVE",
"80 623 CURVE SMOOTH",
"107 623 OFFCURVE",
"120 609 OFFCURVE",
"120 580 CURVE SMOOTH",
"120 573 OFFCURVE",
"119 566 OFFCURVE",
"118 558 CURVE SMOOTH",
"30 0 LINE",
"171 0 LINE"
);
}
);
width = 538;
}
);
unicode = 006B;
},
{
glyphname = l;
lastChange = "2019-08-19 16:07:20 +0000";
layers = (
{
anchors = (
{
name = bottom;
position = "{116, 0}";
},
{
name = cedilla;
position = "{97, 0}";
},
{
name = top;
position = "{164, 705}";
}
);
layerId = "CF479DE4-94A2-4865-8D1E-65EA355866D4";
paths = (
{
closed = 1;
nodes = (
"41 16 OFFCURVE",
"47 -7 OFFCURVE",
"97 -7 CURVE SMOOTH",
"138 -7 OFFCURVE",
"190 30 OFFCURVE",
"212 49 CURVE",
"202 81 LINE",
"197 78 OFFCURVE",
"168 62 OFFCURVE",
"151 62 CURVE SMOOTH",
"137 62 OFFCURVE",
"129 67 OFFCURVE",
"129 78 CURVE SMOOTH",
"129 80 OFFCURVE",
"131 90 OFFCURVE",
"133 100 CURVE SMOOTH",
"225 672 LINE",
"213 694 LINE",
"213 694 OFFCURVE",
"194 696 OFFCURVE",
"176 696 CURVE SMOOTH",
"126 696 OFFCURVE",
"56 682 OFFCURVE",
"56 682 CURVE",
"50 643 LINE",
"96 643 OFFCURVE",
"127 640 OFFCURVE",
"127 604 CURVE SMOOTH",
"127 586 OFFCURVE",
"41 93 OFFCURVE",
"41 45 CURVE SMOOTH",
"41 45 LINE"
);
}
);
width = 267;
},
{
anchors = (
{
name = bottom;
position = "{139, 0}";
},
{
name = top;
position = "{224, 715}";
}
);
layerId = "0FAD76F5-9F58-4721-BF81-08BC6166EF10";
paths = (
{
closed = 1;
nodes = (
"65 113 OFFCURVE",
"63 95 OFFCURVE",
"63 81 CURVE SMOOTH",
"63 21 OFFCURVE",
"89 -6 OFFCURVE",
"146 -6 CURVE SMOOTH",
"190 -6 OFFCURVE",
"258 20 OFFCURVE",
"286 48 CURVE",
"273 84 LINE",
"254 73 OFFCURVE",
"238 68 OFFCURVE",
"227 68 CURVE SMOOTH",
"212 68 OFFCURVE",
"204 77 OFFCURVE",
"204 93 CURVE SMOOTH",
"204 96 OFFCURVE",
"206 113 OFFCURVE",
"208 122 CURVE",
"295 682 LINE",
"268 696 LINE",
"204 694 OFFCURVE",
"117 678 OFFCURVE",
"73 660 CURVE",
"76 621 LINE",
"90 623 OFFCURVE",
"93 623 OFFCURVE",
"97 623 CURVE SMOOTH",
"124 623 OFFCURVE",
"137 609 OFFCURVE",
"137 580 CURVE SMOOTH",
"137 575 OFFCURVE",
"137 571 OFFCURVE",
"135 558 CURVE SMOOTH",
"68 136 LINE"
);
}
);
width = 297;
}
);
unicode = 006C;
},
{
glyphname = m;
lastChange = "2019-08-19 16:07:20 +0000";
layers = (
{
anchors = (
{
name = top;
position = "{473, 505}";
}
);
layerId = "CF479DE4-94A2-4865-8D1E-65EA355866D4";
paths = (
{
closed = 1;
nodes = (
"726 352 OFFCURVE",
"726 360 OFFCURVE",
"726 369 CURVE SMOOTH",
"726 437 OFFCURVE",
"685 476 OFFCURVE",
"613 476 CURVE SMOOTH",
"540 476 OFFCURVE",
"489 417 OFFCURVE",
"458 364 CURVE",
"458 435 OFFCURVE",
"420 476 OFFCURVE",
"345 476 CURVE SMOOTH",
"269 476 OFFCURVE",
"217 413 OFFCURVE",
"187 359 CURVE",
"197 454 LINE",
"187 473 LINE",
"181 474 OFFCURVE",
"174 475 OFFCURVE",
"165 475 CURVE SMOOTH",
"123 475 OFFCURVE",
"52 461 OFFCURVE",
"36 445 CURVE",
"41 413 LINE",
"53 414 OFFCURVE",
"63 415 OFFCURVE",
"72 415 CURVE SMOOTH",
"94 415 OFFCURVE",
"106 409 OFFCURVE",
"106 386 CURVE SMOOTH",
"106 378 OFFCURVE",
"46 0 OFFCURVE",
"46 0 CURVE",
"131 0 LINE",
"157 163 LINE SMOOTH",
"176 283 OFFCURVE",
"233 421 OFFCURVE",
"317 421 CURVE SMOOTH",
"347 421 OFFCURVE",
"370 399 OFFCURVE",
"370 353 CURVE SMOOTH",
"370 319 OFFCURVE",
"324 63 OFFCURVE",
"315 0 CURVE",
"400 0 LINE",
"419 143 OFFCURVE",
"453 421 OFFCURVE",
"585 421 CURVE SMOOTH",
"615 421 OFFCURVE",
"638 399 OFFCURVE",
"638 353 CURVE SMOOTH",
"638 319 OFFCURVE",
"590 76 OFFCURVE",
"590 45 CURVE SMOOTH",
"590 16 OFFCURVE",
"597 -7 OFFCURVE",
"646 -7 CURVE SMOOTH",
"687 -7 OFFCURVE",
"739 30 OFFCURVE",
"761 49 CURVE",
"751 81 LINE",
"746 78 OFFCURVE",
"717 62 OFFCURVE",
"700 62 CURVE SMOOTH",
"687 62 OFFCURVE",
"680 66 OFFCURVE",
"680 77 CURVE SMOOTH",
"680 79 OFFCURVE",
"682 92 OFFCURVE",
"685 107 CURVE SMOOTH",
"722 329 LINE"
);
}
);
width = 799;
},
{
layerId = "0FAD76F5-9F58-4721-BF81-08BC6166EF10";
paths = (
{
closed = 1;
nodes = (
"658 425 OFFCURVE",
"673 404 OFFCURVE",
"673 365 CURVE SMOOTH",
"673 354 OFFCURVE",
"672 342 OFFCURVE",
"670 329 CURVE SMOOTH",
"639 136 LINE SMOOTH",
"636 115 OFFCURVE",
"633 96 OFFCURVE",
"633 80 CURVE SMOOTH",
"633 27 OFFCURVE",
"655 -6 OFFCURVE",
"717 -6 CURVE SMOOTH",
"764 -6 OFFCURVE",
"831 22 OFFCURVE",
"857 48 CURVE",
"844 84 LINE",
"826 74 OFFCURVE",
"810 68 OFFCURVE",
"798 68 CURVE SMOOTH",
"784 68 OFFCURVE",
"776 76 OFFCURVE",
"776 92 CURVE SMOOTH",
"776 98 OFFCURVE",
"778 110 OFFCURVE",
"779 116 CURVE SMOOTH",
"812 331 LINE SMOOTH",
"814 342 OFFCURVE",
"815 359 OFFCURVE",
"815 369 CURVE SMOOTH",
"815 446 OFFCURVE",
"768 492 OFFCURVE",
"688 492 CURVE SMOOTH",
"620 492 OFFCURVE",
"567 456 OFFCURVE",
"526 391 CURVE",
"518 454 OFFCURVE",
"472 492 OFFCURVE",
"400 492 CURVE SMOOTH",
"333 492 OFFCURVE",
"280 457 OFFCURVE",
"239 393 CURVE",
"242 483 LINE",
"227 492 LINE",
"172 491 OFFCURVE",
"82 477 OFFCURVE",
"32 456 CURVE",
"35 417 LINE",
"43 418 OFFCURVE",
"50 419 OFFCURVE",
"56 419 CURVE SMOOTH",
"83 419 OFFCURVE",
"96 405 OFFCURVE",
"96 376 CURVE SMOOTH",
"96 369 OFFCURVE",
"95 362 OFFCURVE",
"94 354 CURVE SMOOTH",
"37 0 LINE",
"178 0 LINE",
"210 196 LINE SMOOTH",
"228 310 OFFCURVE",
"294 425 OFFCURVE",
"343 425 CURVE SMOOTH",
"370 425 OFFCURVE",
"385 404 OFFCURVE",
"385 365 CURVE SMOOTH",
"385 354 OFFCURVE",
"384 342 OFFCURVE",
"382 329 CURVE SMOOTH",
"328 0 LINE",
"470 0 LINE",
"510 251 LINE",
"537 344 OFFCURVE",
"591 425 OFFCURVE",
"631 425 CURVE SMOOTH",
"631 425 LINE"
);
}
);
width = 866;
}
);
unicode = 006D;
},
{
glyphname = n;
lastChange = "2019-08-19 16:07:20 +0000";
layers = (
{
anchors = (
{
name = bottom;
position = "{243, 0}";
},
{
name = cedilla;
position = "{224, 0}";
},
{
name = top;
position = "{292, 505}";
}
);
layerId = "CF479DE4-94A2-4865-8D1E-65EA355866D4";
paths = (
{
closed = 1;
nodes = (
"157 163 LINE SMOOTH",
"176 283 OFFCURVE",
"233 421 OFFCURVE",
"317 421 CURVE SMOOTH",
"347 421 OFFCURVE",
"370 399 OFFCURVE",
"370 353 CURVE SMOOTH",
"370 320 OFFCURVE",
"322 75 OFFCURVE",
"322 45 CURVE SMOOTH",
"322 16 OFFCURVE",
"329 -7 OFFCURVE",
"378 -7 CURVE SMOOTH",
"418 -7 OFFCURVE",
"471 30 OFFCURVE",
"493 49 CURVE",
"483 81 LINE",
"478 78 OFFCURVE",
"449 62 OFFCURVE",
"432 62 CURVE SMOOTH",
"416 62 OFFCURVE",
"413 68 OFFCURVE",
"413 84 CURVE SMOOTH",
"413 100 OFFCURVE",
"439 236 OFFCURVE",
"454 328 CURVE SMOOTH",
"457 348 OFFCURVE",
"458 364 OFFCURVE",
"458 369 CURVE SMOOTH",
"458 437 OFFCURVE",
"417 476 OFFCURVE",
"345 476 CURVE SMOOTH",
"269 476 OFFCURVE",
"217 413 OFFCURVE",
"187 359 CURVE",
"197 454 LINE",
"187 473 LINE",
"187 473 OFFCURVE",
"174 476 OFFCURVE",
"162 476 CURVE SMOOTH",
"104 476 OFFCURVE",
"36 445 OFFCURVE",
"36 445 CURVE",
"41 413 LINE",
"53 414 OFFCURVE",
"63 415 OFFCURVE",
"72 415 CURVE SMOOTH",
"94 415 OFFCURVE",
"106 409 OFFCURVE",
"106 386 CURVE SMOOTH",
"106 378 OFFCURVE",
"46 0 OFFCURVE",
"46 0 CURVE",
"131 0 LINE"
);
}
);
width = 535;
},
{
anchors = (
{
name = bottom;
position = "{292, 0}";
},
{
name = top;
position = "{347, 515}";
}
);
layerId = "0FAD76F5-9F58-4721-BF81-08BC6166EF10";
paths = (
{
closed = 1;
nodes = (
"179 0 LINE",
"211 196 LINE SMOOTH",
"229 310 OFFCURVE",
"295 425 OFFCURVE",
"344 425 CURVE SMOOTH",
"371 425 OFFCURVE",
"386 404 OFFCURVE",
"386 365 CURVE SMOOTH",
"386 354 OFFCURVE",
"385 342 OFFCURVE",
"383 329 CURVE SMOOTH",
"352 136 LINE SMOOTH",
"349 116 OFFCURVE",
"347 97 OFFCURVE",
"347 80 CURVE SMOOTH",
"347 27 OFFCURVE",
"367 -6 OFFCURVE",
"430 -6 CURVE SMOOTH",
"477 -6 OFFCURVE",
"544 22 OFFCURVE",
"570 48 CURVE",
"557 84 LINE",
"539 74 OFFCURVE",
"523 68 OFFCURVE",
"511 68 CURVE SMOOTH",
"494 68 OFFCURVE",
"489 80 OFFCURVE",
"489 93 CURVE SMOOTH",
"489 103 OFFCURVE",
"492 114 OFFCURVE",
"493 122 CURVE SMOOTH",
"525 329 LINE SMOOTH",
"527 342 OFFCURVE",
"528 359 OFFCURVE",
"528 369 CURVE SMOOTH",
"528 446 OFFCURVE",
"481 492 OFFCURVE",
"401 492 CURVE SMOOTH",
"334 492 OFFCURVE",
"280 457 OFFCURVE",
"240 392 CURVE",
"244 483 LINE",
"228 492 LINE",
"173 491 OFFCURVE",
"83 477 OFFCURVE",
"33 456 CURVE",
"36 417 LINE",
"44 418 OFFCURVE",
"51 419 OFFCURVE",
"57 419 CURVE SMOOTH",
"84 419 OFFCURVE",
"97 405 OFFCURVE",
"97 376 CURVE SMOOTH",
"97 369 OFFCURVE",
"96 362 OFFCURVE",
"95 354 CURVE SMOOTH",
"38 0 LINE"
);
}
);
width = 585;
}
);
unicode = 006E;
},
{
glyphname = o;
lastChange = "2019-08-19 16:35:00 +0000";
layers = (
{
anchors = (
{
name = ogonek;
position = "{273, 0}";
},
{
name = top;
position = "{310, 505}";
}
);
layerId = "CF479DE4-94A2-4865-8D1E-65EA355866D4";
paths = (
{
closed = 1;
nodes = (
"169 41 OFFCURVE",
"148 88 OFFCURVE",
"148 157 CURVE SMOOTH",
"148 305 OFFCURVE",
"219 428 OFFCURVE",
"296 428 CURVE SMOOTH",
"343 428 OFFCURVE",
"366 383 OFFCURVE",
"366 311 CURVE SMOOTH",
"366 162 OFFCURVE",
"293 41 OFFCURVE",
"218 41 CURVE SMOOTH",
"218 41 LINE"
);
},
{
closed = 1;
nodes = (
"377 -7 OFFCURVE",
"459 146 OFFCURVE",
"459 305 CURVE SMOOTH",
"459 413 OFFCURVE",
"403 476 OFFCURVE",
"296 476 CURVE SMOOTH",
"137 476 OFFCURVE",
"55 322 OFFCURVE",
"55 164 CURVE SMOOTH",
"55 56 OFFCURVE",
"111 -7 OFFCURVE",
"218 -7 CURVE SMOOTH",
"218 -7 LINE"
);
}
);
width = 507;
},
{
anchors = (
{
name = top;
position = "{325, 515}";
}
);
layerId = "0FAD76F5-9F58-4721-BF81-08BC6166EF10";
paths = (
{
closed = 1;
nodes = (
"171 321 OFFCURVE",
"228 436 OFFCURVE",
"304 436 CURVE SMOOTH",
"353 436 OFFCURVE",
"375 400 OFFCURVE",
"375 319 CURVE SMOOTH",
"375 164 OFFCURVE",
"319 49 OFFCURVE",
"243 49 CURVE SMOOTH",
"193 49 OFFCURVE",
"171 86 OFFCURVE",
"171 167 CURVE SMOOTH",
"171 167 LINE"
);
},
{
closed = 1;
nodes = (
"27 61 OFFCURVE",
"99 -7 OFFCURVE",
"234 -7 CURVE SMOOTH",
"417 -7 OFFCURVE",
"519 101 OFFCURVE",
"519 295 CURVE SMOOTH",
"519 424 OFFCURVE",
"448 492 OFFCURVE",
"313 492 CURVE SMOOTH",
"129 492 OFFCURVE",
"27 384 OFFCURVE",
"27 191 CURVE SMOOTH",
"27 191 LINE"
);
}
);
width = 540;
}
);
unicode = 006F;
},
{
glyphname = p;
lastChange = "2019-08-19 16:07:20 +0000";
layers = (
{
anchors = (
{
name = top;
position = "{334, 505}";
}
);
layerId = "CF479DE4-94A2-4865-8D1E-65EA355866D4";
paths = (
{
closed = 1;
nodes = (
"41 -208 OFFCURVE",
"49 -219 OFFCURVE",
"98 -219 CURVE SMOOTH",
"138 -219 OFFCURVE",
"181 -206 OFFCURVE",
"211 -192 CURVE",
"202 -161 LINE",
"193 -163 OFFCURVE",
"166 -167 OFFCURVE",
"148 -167 CURVE SMOOTH",
"133 -167 OFFCURVE",
"128 -160 OFFCURVE",
"128 -145 CURVE SMOOTH",
"128 -130 OFFCURVE",
"138 -62 OFFCURVE",
"150 14 CURVE",
"194 -5 OFFCURVE",
"231 -7 OFFCURVE",
"258 -7 CURVE SMOOTH",
"400 -7 OFFCURVE",
"481 155 OFFCURVE",
"481 297 CURVE SMOOTH",
"481 399 OFFCURVE",
"456 476 OFFCURVE",
"353 476 CURVE SMOOTH",
"287 476 OFFCURVE",
"234 413 OFFCURVE",
"204 366 CURVE",
"214 454 LINE",
"204 473 LINE",
"204 473 OFFCURVE",
"193 476 OFFCURVE",
"177 476 CURVE SMOOTH",
"119 476 OFFCURVE",
"55 445 OFFCURVE",
"55 445 CURVE",
"61 413 LINE",
"73 414 OFFCURVE",
"83 415 OFFCURVE",
"92 415 CURVE SMOOTH",
"114 415 OFFCURVE",
"126 409 OFFCURVE",
"126 386 CURVE SMOOTH",
"126 382 OFFCURVE",
"41 -143 OFFCURVE",
"41 -179 CURVE SMOOTH",
"41 -179 LINE"
);
},
{
closed = 1;
nodes = (
"186 306 OFFCURVE",
"272 424 OFFCURVE",
"327 424 CURVE SMOOTH",
"375 424 OFFCURVE",
"392 368 OFFCURVE",
"392 297 CURVE SMOOTH",
"392 188 OFFCURVE",
"328 38 OFFCURVE",
"235 38 CURVE SMOOTH",
"194 38 OFFCURVE",
"162 51 OFFCURVE",
"162 75 CURVE",
"162 75 LINE"
);
}
);
width = 527;
},
{
layerId = "0FAD76F5-9F58-4721-BF81-08BC6166EF10";
paths = (
{
closed = 1;
nodes = (
"26 -95 OFFCURVE",
"23 -114 OFFCURVE",
"23 -130 CURVE SMOOTH",
"23 -183 OFFCURVE",
"45 -216 OFFCURVE",
"107 -216 CURVE SMOOTH",
"154 -216 OFFCURVE",
"221 -188 OFFCURVE",
"247 -162 CURVE",
"234 -126 LINE",
"216 -136 OFFCURVE",
"200 -142 OFFCURVE",
"188 -142 CURVE SMOOTH",
"174 -142 OFFCURVE",
"166 -134 OFFCURVE",
"166 -118 CURVE SMOOTH",
"166 -115 OFFCURVE",
"166 -112 OFFCURVE",
"169 -94 CURVE SMOOTH",
"186 17 LINE",
"212 2 OFFCURVE",
"238 -7 OFFCURVE",
"282 -7 CURVE SMOOTH",
"449 -7 OFFCURVE",
"550 112 OFFCURVE",
"550 312 CURVE SMOOTH",
"550 430 OFFCURVE",
"496 492 OFFCURVE",
"397 492 CURVE SMOOTH",
"331 492 OFFCURVE",
"281 467 OFFCURVE",
"244 417 CURVE",
"247 483 LINE",
"231 492 LINE",
"176 491 OFFCURVE",
"86 477 OFFCURVE",
"36 456 CURVE",
"39 417 LINE",
"47 418 OFFCURVE",
"54 419 OFFCURVE",
"60 419 CURVE SMOOTH",
"87 419 OFFCURVE",
"100 405 OFFCURVE",
"100 376 CURVE SMOOTH",
"100 369 OFFCURVE",
"99 362 OFFCURVE",
"98 354 CURVE SMOOTH",
"29 -74 LINE"
);
},
{
closed = 1;
nodes = (
"385 432 OFFCURVE",
"405 395 OFFCURVE",
"405 322 CURVE SMOOTH",
"405 190 OFFCURVE",
"368 46 OFFCURVE",
"256 46 CURVE SMOOTH",
"229 46 OFFCURVE",
"205 56 OFFCURVE",
"193 66 CURVE",
"228 284 LINE SMOOTH",
"244 383 OFFCURVE",
"290 432 OFFCURVE",
"343 432 CURVE SMOOTH",
"343 432 LINE"
);
}
);
width = 571;
}
);
unicode = 0070;
},
{
glyphname = q;
lastChange = "2019-08-19 16:07:20 +0000";
layers = (
{
anchors = (
{
name = top;
position = "{299, 505}";
}
);
layerId = "CF479DE4-94A2-4865-8D1E-65EA355866D4";
paths = (
{
closed = 1;
nodes = (
"461 474 OFFCURVE",
"450 476 OFFCURVE",
"433 476 CURVE SMOOTH",
"408 476 OFFCURVE",
"391 463 OFFCURVE",
"381 451 CURVE",
"334 473 OFFCURVE",
"295 476 OFFCURVE",
"267 476 CURVE SMOOTH",
"125 476 OFFCURVE",
"44 313 OFFCURVE",
"44 172 CURVE SMOOTH",
"44 69 OFFCURVE",
"70 -7 OFFCURVE",
"172 -7 CURVE SMOOTH",
"239 -7 OFFCURVE",
"292 57 OFFCURVE",
"322 103 CURVE",
"297 -42 OFFCURVE",
"275 -160 OFFCURVE",
"275 -178 CURVE SMOOTH",
"275 -207 OFFCURVE",
"283 -219 OFFCURVE",
"333 -219 CURVE SMOOTH",
"373 -219 OFFCURVE",
"414 -206 OFFCURVE",
"445 -192 CURVE",
"435 -161 LINE",
"426 -163 OFFCURVE",
"402 -167 OFFCURVE",
"384 -167 CURVE SMOOTH",
"371 -167 OFFCURVE",
"364 -162 OFFCURVE",
"364 -143 CURVE SMOOTH",
"364 -140 OFFCURVE",
"364 -135 OFFCURVE",
"365 -130 CURVE SMOOTH",
"461 474 LINE"
);
},
{
closed = 1;
nodes = (
"150 45 OFFCURVE",
"134 101 OFFCURVE",
"134 171 CURVE SMOOTH",
"134 280 OFFCURVE",
"196 431 OFFCURVE",
"290 431 CURVE SMOOTH",
"319 431 OFFCURVE",
"345 419 OFFCURVE",
"365 406 CURVE",
"347 298 LINE SMOOTH",
"321 144 OFFCURVE",
"250 45 OFFCURVE",
"198 45 CURVE SMOOTH",
"198 45 LINE"
);
}
);
width = 521;
},
{
layerId = "0FAD76F5-9F58-4721-BF81-08BC6166EF10";
paths = (
{
closed = 1;
nodes = (
"310 -95 OFFCURVE",
"307 -113 OFFCURVE",
"307 -130 CURVE SMOOTH",
"307 -183 OFFCURVE",
"329 -216 OFFCURVE",
"391 -216 CURVE SMOOTH",
"438 -216 OFFCURVE",
"505 -188 OFFCURVE",
"531 -162 CURVE",
"518 -126 LINE",
"500 -136 OFFCURVE",
"484 -142 OFFCURVE",
"472 -142 CURVE SMOOTH",
"458 -142 OFFCURVE",
"450 -134 OFFCURVE",
"450 -118 CURVE SMOOTH",
"450 -110 OFFCURVE",
"459 -56 OFFCURVE",
"461 -45 CURVE SMOOTH",
"465 -22 OFFCURVE",
"544 488 OFFCURVE",
"544 489 CURVE",
"534 490 OFFCURVE",
"523 491 OFFCURVE",
"512 491 CURVE SMOOTH",
"476 491 OFFCURVE",
"449 484 OFFCURVE",
"428 472 CURVE",
"394 484 OFFCURVE",
"361 492 OFFCURVE",
"324 492 CURVE SMOOTH",
"173 492 OFFCURVE",
"52 395 OFFCURVE",
"52 181 CURVE SMOOTH",
"52 49 OFFCURVE",
"128 -11 OFFCURVE",
"211 -11 CURVE SMOOTH",
"264 -11 OFFCURVE",
"302 10 OFFCURVE",
"331 43 CURVE",
"313 -74 LINE"
);
},
{
closed = 1;
nodes = (
"342 135 OFFCURVE",
"307 50 OFFCURVE",
"256 50 CURVE SMOOTH",
"210 50 OFFCURVE",
"196 112 OFFCURVE",
"196 182 CURVE SMOOTH",
"196 358 OFFCURVE",
"267 443 OFFCURVE",
"347 443 CURVE SMOOTH",
"363 443 OFFCURVE",
"379 440 OFFCURVE",
"394 435 CURVE",
"366 265 LINE"
);
}
);
width = 564;
}
);
unicode = 0071;
},
{
glyphname = r;
lastChange = "2019-08-19 16:07:20 +0000";
layers = (
{
anchors = (
{
name = bottom;
position = "{118, 0}";
},
{
name = cedilla;
position = "{99, 0}";
},
{
name = top;
position = "{262, 505}";
}
);
layerId = "CF479DE4-94A2-4865-8D1E-65EA355866D4";
paths = (
{
closed = 1;
nodes = (
"139 0 LINE",
"158 145 LINE SMOOTH",
"182 325 OFFCURVE",
"249 409 OFFCURVE",
"288 409 CURVE SMOOTH",
"300 409 OFFCURVE",
"306 396 OFFCURVE",
"306 380 CURVE SMOOTH",
"306 369 OFFCURVE",
"304 357 OFFCURVE",
"299 345 CURVE",
"302 339 OFFCURVE",
"312 328 OFFCURVE",
"332 328 CURVE SMOOTH",
"377 328 OFFCURVE",
"400 363 OFFCURVE",
"400 398 CURVE SMOOTH",
"400 436 OFFCURVE",
"374 476 OFFCURVE",
"322 476 CURVE SMOOTH",
"273 476 OFFCURVE",
"228 430 OFFCURVE",
"190 354 CURVE",
"205 454 LINE",
"194 473 LINE",
"194 473 OFFCURVE",
"182 476 OFFCURVE",
"168 476 CURVE SMOOTH",
"110 476 OFFCURVE",
"40 445 OFFCURVE",
"40 445 CURVE",
"45 413 LINE",
"57 414 OFFCURVE",
"67 415 OFFCURVE",
"76 415 CURVE SMOOTH",
"97 415 OFFCURVE",
"109 409 OFFCURVE",
"109 386 CURVE SMOOTH",
"109 383 OFFCURVE",
"108 374 OFFCURVE",
"108 370 CURVE",
"51 0 LINE"
);
}
);
width = 407;
},
{
anchors = (
{
name = bottom;
position = "{114, 0}";
},
{
name = top;
position = "{274, 515}";
}
);
layerId = "0FAD76F5-9F58-4721-BF81-08BC6166EF10";
paths = (
{
closed = 1;
nodes = (
"230 492 LINE",
"159 492 OFFCURVE",
"92 480 OFFCURVE",
"35 456 CURVE",
"38 417 LINE",
"46 418 OFFCURVE",
"53 419 OFFCURVE",
"59 419 CURVE SMOOTH",
"86 419 OFFCURVE",
"99 405 OFFCURVE",
"99 376 CURVE SMOOTH",
"99 369 OFFCURVE",
"98 362 OFFCURVE",
"97 354 CURVE SMOOTH",
"40 0 LINE",
"181 0 LINE",
"211 186 LINE SMOOTH",
"226 279 OFFCURVE",
"297 401 OFFCURVE",
"341 401 CURVE SMOOTH",
"360 401 OFFCURVE",
"367 391 OFFCURVE",
"367 374 CURVE SMOOTH",
"367 364 OFFCURVE",
"363 353 OFFCURVE",
"358 347 CURVE",
"376 329 OFFCURVE",
"394 322 OFFCURVE",
"410 322 CURVE SMOOTH",
"452 322 OFFCURVE",
"484 371 OFFCURVE",
"484 416 CURVE SMOOTH",
"484 454 OFFCURVE",
"461 489 OFFCURVE",
"403 489 CURVE SMOOTH",
"328 489 OFFCURVE",
"274 426 OFFCURVE",
"238 352 CURVE",
"258 476 LINE"
);
}
);
width = 456;
}
);
unicode = 0072;
},
{
glyphname = s;
lastChange = "2019-08-19 16:07:20 +0000";
layers = (
{
anchors = (
{
name = bottom;
position = "{166, 0}";
},
{
name = cedilla;
position = "{149, 0}";
},
{
name = top;
position = "{240, 505}";
}
);
layerId = "CF479DE4-94A2-4865-8D1E-65EA355866D4";
paths = (
{
closed = 1;
nodes = (
"266 431 OFFCURVE",
"281 415 OFFCURVE",
"281 389 CURVE SMOOTH",
"281 373 OFFCURVE",
"271 361 OFFCURVE",
"259 352 CURVE",
"268 333 OFFCURVE",
"283 325 OFFCURVE",
"308 325 CURVE SMOOTH",
"338 325 OFFCURVE",
"363 346 OFFCURVE",
"363 387 CURVE SMOOTH",
"363 445 OFFCURVE",
"303 476 OFFCURVE",
"238 476 CURVE SMOOTH",
"161 476 OFFCURVE",
"80 433 OFFCURVE",
"80 334 CURVE SMOOTH",
"80 274 OFFCURVE",
"121 235 OFFCURVE",
"160 201 CURVE SMOOTH",
"196 169 OFFCURVE",
"232 142 OFFCURVE",
"232 108 CURVE SMOOTH",
"232 56 OFFCURVE",
"188 41 OFFCURVE",
"166 41 CURVE SMOOTH",
"97 41 OFFCURVE",
"81 73 OFFCURVE",
"81 113 CURVE SMOOTH",
"81 126 OFFCURVE",
"82 139 OFFCURVE",
"83 149 CURVE",
"47 155 LINE",
"17 32 LINE",
"51 7 OFFCURVE",
"98 -7 OFFCURVE",
"144 -7 CURVE SMOOTH",
"227 -7 OFFCURVE",
"316 42 OFFCURVE",
"316 147 CURVE SMOOTH",
"316 200 OFFCURVE",
"272 236 OFFCURVE",
"231 270 CURVE SMOOTH",
"194 300 OFFCURVE",
"160 329 OFFCURVE",
"160 367 CURVE SMOOTH",
"160 414 OFFCURVE",
"199 431 OFFCURVE",
"226 431 CURVE SMOOTH",
"226 431 LINE"
);
}
);
width = 382;
},
{
anchors = (
{
name = bottom;
position = "{186, 0}";
},
{
name = cedilla;
position = "{202, 0}";
},
{
name = top;
position = "{276, 515}";
}
);
layerId = "0FAD76F5-9F58-4721-BF81-08BC6166EF10";
paths = (
{
closed = 1;
nodes = (
"294 448 OFFCURVE",
"315 431 OFFCURVE",
"315 406 CURVE SMOOTH",
"315 389 OFFCURVE",
"305 371 OFFCURVE",
"287 355 CURVE",
"302 332 OFFCURVE",
"324 322 OFFCURVE",
"346 322 CURVE SMOOTH",
"399 322 OFFCURVE",
"427 355 OFFCURVE",
"427 392 CURVE SMOOTH",
"427 467 OFFCURVE",
"326 493 OFFCURVE",
"267 493 CURVE SMOOTH",
"136 493 OFFCURVE",
"54 435 OFFCURVE",
"54 337 CURVE SMOOTH",
"54 273 OFFCURVE",
"93 230 OFFCURVE",
"182 198 CURVE SMOOTH",
"236 178 OFFCURVE",
"260 152 OFFCURVE",
"260 118 CURVE SMOOTH",
"260 76 OFFCURVE",
"224 42 OFFCURVE",
"181 42 CURVE SMOOTH",
"158 42 OFFCURVE",
"128 47 OFFCURVE",
"104 75 CURVE",
"102 87 OFFCURVE",
"101 101 OFFCURVE",
"101 115 CURVE SMOOTH",
"101 131 OFFCURVE",
"102 148 OFFCURVE",
"103 160 CURVE",
"48 170 LINE",
"16 45 LINE",
"56 13 OFFCURVE",
"120 -8 OFFCURVE",
"171 -8 CURVE SMOOTH",
"312 -8 OFFCURVE",
"396 56 OFFCURVE",
"396 161 CURVE SMOOTH",
"396 220 OFFCURVE",
"360 264 OFFCURVE",
"282 294 CURVE SMOOTH",
"210 322 OFFCURVE",
"185 342 OFFCURVE",
"185 372 CURVE SMOOTH",
"185 415 OFFCURVE",
"217 448 OFFCURVE",
"260 448 CURVE SMOOTH",
"260 448 LINE"
);
}
);
width = 442;
}
);
unicode = 0073;
},
{
glyphname = t;
lastChange = "2019-08-19 16:07:20 +0000";
layers = (
{
anchors = (
{
name = bottom;
position = "{163, 0}";
},
{
name = cedilla;
position = "{143, 0}";
},
{
name = top;
position = "{196, 600}";
}
);
layerId = "CF479DE4-94A2-4865-8D1E-65EA355866D4";
paths = (
{
closed = 1;
nodes = (
"151 55 OFFCURVE",
"143 70 OFFCURVE",
"143 90 CURVE SMOOTH",
"143 125 OFFCURVE",
"193 413 OFFCURVE",
"192 413 CURVE",
"350 413 LINE",
"361 467 LINE",
"201 467 LINE",
"217 564 LINE",
"177 564 LINE",
"148 507 OFFCURVE",
"126 469 OFFCURVE",
"40 446 CURVE",
"34 413 LINE",
"106 413 LINE",
"62 134 OFFCURVE",
"56 101 OFFCURVE",
"56 75 CURVE SMOOTH",
"56 24 OFFCURVE",
"83 -7 OFFCURVE",
"137 -7 CURVE SMOOTH",
"214 -7 OFFCURVE",
"269 38 OFFCURVE",
"312 72 CURVE",
"288 106 LINE",
"254 83 OFFCURVE",
"212 55 OFFCURVE",
"179 55 CURVE SMOOTH",
"179 55 LINE"
);
}
);
width = 345;
},
{
anchors = (
{
name = bottom;
position = "{162, 0}";
}
);
layerId = "0FAD76F5-9F58-4721-BF81-08BC6166EF10";
paths = (
{
closed = 1;
nodes = (
"65 115 OFFCURVE",
"63 97 OFFCURVE",
"63 88 CURVE SMOOTH",
"63 22 OFFCURVE",
"109 -4 OFFCURVE",
"168 -4 CURVE SMOOTH",
"235 -4 OFFCURVE",
"313 32 OFFCURVE",
"355 72 CURVE",
"331 105 LINE",
"309 91 OFFCURVE",
"268 70 OFFCURVE",
"244 70 CURVE SMOOTH",
"219 70 OFFCURVE",
"207 82 OFFCURVE",
"207 107 CURVE SMOOTH",
"207 123 OFFCURVE",
"219 192 OFFCURVE",
"225 229 CURVE SMOOTH",
"227 242 OFFCURVE",
"254 413 OFFCURVE",
"254 413 CURVE",
"383 413 LINE",
"394 478 LINE",
"266 478 LINE",
"282 584 LINE",
"217 584 LINE",
"177 525 OFFCURVE",
"115 481 OFFCURVE",
"48 457 CURVE",
"41 413 LINE",
"112 413 LINE",
"67 125 LINE"
);
}
);
width = 364;
}
);
unicode = 0074;
},
{
glyphname = u;
lastChange = "2019-08-19 16:07:20 +0000";
layers = (
{
anchors = (
{
name = ogonek;
position = "{500, 49}";
},
{
name = top;
position = "{296, 505}";
}
);
layerId = "CF479DE4-94A2-4865-8D1E-65EA355866D4";
paths = (
{
closed = 1;
nodes = (
"199 473 OFFCURVE",
"188 476 OFFCURVE",
"172 476 CURVE SMOOTH",
"115 476 OFFCURVE",
"44 445 OFFCURVE",
"44 445 CURVE",
"49 413 LINE",
"61 414 OFFCURVE",
"71 415 OFFCURVE",
"80 415 CURVE SMOOTH",
"101 415 OFFCURVE",
"113 409 OFFCURVE",
"113 386 CURVE SMOOTH",
"113 382 OFFCURVE",
"111 370 OFFCURVE",
"110 364 CURVE SMOOTH",
"69 126 LINE SMOOTH",
"68 117 OFFCURVE",
"67 108 OFFCURVE",
"67 100 CURVE SMOOTH",
"67 32 OFFCURVE",
"108 -7 OFFCURVE",
"180 -7 CURVE SMOOTH",
"258 -7 OFFCURVE",
"311 61 OFFCURVE",
"341 116 CURVE",
"335 80 OFFCURVE",
"330 54 OFFCURVE",
"330 45 CURVE SMOOTH",
"330 16 OFFCURVE",
"336 -7 OFFCURVE",
"386 -7 CURVE SMOOTH",
"426 -7 OFFCURVE",
"478 30 OFFCURVE",
"500 49 CURVE",
"490 81 LINE",
"485 78 OFFCURVE",
"457 62 OFFCURVE",
"439 62 CURVE SMOOTH",
"425 62 OFFCURVE",
"418 67 OFFCURVE",
"418 79 CURVE SMOOTH",
"418 84 LINE",
"480 474 LINE",
"480 474 OFFCURVE",
"468 476 OFFCURVE",
"451 476 CURVE SMOOTH",
"421 476 OFFCURVE",
"394 467 OFFCURVE",
"394 467 CURVE",
"368 306 LINE SMOOTH",
"349 186 OFFCURVE",
"292 47 OFFCURVE",
"208 47 CURVE SMOOTH",
"178 47 OFFCURVE",
"155 70 OFFCURVE",
"155 116 CURVE SMOOTH",
"155 149 OFFCURVE",
"191 328 OFFCURVE",
"211 454 CURVE",
"199 473 LINE"
);
}
);
width = 535;
},
{
anchors = (
{
name = ogonek;
position = "{567, 46}";
},
{
name = top;
position = "{332, 515}";
}
);
layerId = "0FAD76F5-9F58-4721-BF81-08BC6166EF10";
paths = (
{
closed = 1;
nodes = (
"161 492 OFFCURVE",
"78 476 OFFCURVE",
"31 456 CURVE",
"34 417 LINE",
"42 418 OFFCURVE",
"49 419 OFFCURVE",
"55 419 CURVE SMOOTH",
"82 419 OFFCURVE",
"95 405 OFFCURVE",
"95 377 CURVE SMOOTH",
"95 370 OFFCURVE",
"94 362 OFFCURVE",
"93 354 CURVE SMOOTH",
"63 167 OFFCURVE",
"57 132 OFFCURVE",
"57 113 CURVE SMOOTH",
"57 38 OFFCURVE",
"105 -8 OFFCURVE",
"185 -8 CURVE SMOOTH",
"250 -8 OFFCURVE",
"302 25 OFFCURVE",
"343 86 CURVE",
"343 27 OFFCURVE",
"365 -6 OFFCURVE",
"427 -6 CURVE SMOOTH",
"477 -6 OFFCURVE",
"533 23 OFFCURVE",
"567 46 CURVE",
"554 84 LINE",
"536 73 OFFCURVE",
"519 69 OFFCURVE",
"506 69 CURVE SMOOTH",
"492 69 OFFCURVE",
"486 76 OFFCURVE",
"486 92 CURVE SMOOTH",
"486 105 OFFCURVE",
"496 165 OFFCURVE",
"501 197 CURVE SMOOTH",
"548 484 LINE",
"526 487 OFFCURVE",
"506 489 OFFCURVE",
"490 489 CURVE SMOOTH",
"451 489 OFFCURVE",
"426 481 OFFCURVE",
"405 470 CURVE",
"370 265 LINE SMOOTH",
"352 158 OFFCURVE",
"286 60 OFFCURVE",
"241 60 CURVE SMOOTH",
"213 60 OFFCURVE",
"200 80 OFFCURVE",
"200 119 CURVE SMOOTH",
"200 152 OFFCURVE",
"253 474 OFFCURVE",
"253 474 CURVE",
"226 492 LINE"
);
}
);
width = 584;
}
);
unicode = 0075;
},
{
glyphname = v;
lastChange = "2019-08-19 16:07:20 +0000";
layers = (
{
anchors = (
{
name = top;
position = "{255, 505}";
}
);
layerId = "CF479DE4-94A2-4865-8D1E-65EA355866D4";
paths = (
{
closed = 1;
nodes = (
"301 423 LINE",
"321 423 OFFCURVE",
"345 421 OFFCURVE",
"345 389 CURVE SMOOTH",
"345 378 OFFCURVE",
"343 362 OFFCURVE",
"338 343 CURVE SMOOTH",
"325 293 OFFCURVE",
"255 176 OFFCURVE",
"212 106 CURVE",
"163 474 LINE",
"163 474 OFFCURVE",
"148 476 OFFCURVE",
"136 476 CURVE SMOOTH",
"88 476 OFFCURVE",
"22 445 OFFCURVE",
"22 445 CURVE",
"28 413 LINE",
"62 410 OFFCURVE",
"86 414 OFFCURVE",
"92 366 CURVE SMOOTH",
"141 0 LINE",
"161 -7 OFFCURVE",
"195 -7 OFFCURVE",
"195 -7 CURVE",
"380 280 LINE SMOOTH",
"441 375 OFFCURVE",
"458 454 OFFCURVE",
"458 454 CURVE",
"447 473 LINE",
"432 475 OFFCURVE",
"418 476 OFFCURVE",
"404 476 CURVE SMOOTH",
"365 476 OFFCURVE",
"330 469 OFFCURVE",
"297 460 CURVE",
"297 460 LINE"
);
}
);
width = 460;
},
{
layerId = "0FAD76F5-9F58-4721-BF81-08BC6166EF10";
paths = (
{
closed = 1;
nodes = (
"481 489 OFFCURVE",
"463 490 OFFCURVE",
"450 490 CURVE SMOOTH",
"413 490 OFFCURVE",
"360 484 OFFCURVE",
"327 474 CURVE",
"331 437 LINE",
"364 437 OFFCURVE",
"387 432 OFFCURVE",
"387 399 CURVE SMOOTH",
"387 361 OFFCURVE",
"357 305 OFFCURVE",
"345 286 CURVE SMOOTH",
"247 134 LINE",
"200 488 LINE",
"187 489 OFFCURVE",
"175 489 OFFCURVE",
"162 489 CURVE SMOOTH",
"101 489 OFFCURVE",
"40 478 OFFCURVE",
"10 459 CURVE",
"16 427 LINE",
"47 427 OFFCURVE",
"70 414 OFFCURVE",
"77 366 CURVE SMOOTH",
"126 0 LINE",
"148 -6 OFFCURVE",
"182 -7 OFFCURVE",
"214 -7 CURVE SMOOTH",
"225 -7 LINE",
"428 280 LINE SMOOTH",
"487 364 OFFCURVE",
"503 437 OFFCURVE",
"507 462 CURVE",
"490 488 LINE"
);
}
);
width = 500;
}
);
unicode = 0076;
},
{
glyphname = w;
lastChange = "2019-08-19 16:07:20 +0000";
layers = (
{
anchors = (
{
name = top;
position = "{389, 505}";
}
);
layerId = "CF479DE4-94A2-4865-8D1E-65EA355866D4";
paths = (
{
closed = 1;
nodes = (
"307 274 OFFCURVE",
"247 170 OFFCURVE",
"209 107 CURVE",
"161 474 LINE",
"161 474 OFFCURVE",
"146 476 OFFCURVE",
"133 476 CURVE SMOOTH",
"85 476 OFFCURVE",
"20 445 OFFCURVE",
"20 445 CURVE",
"25 413 LINE",
"60 413 OFFCURVE",
"83 409 OFFCURVE",
"89 366 CURVE SMOOTH",
"139 0 LINE",
"158 -7 OFFCURVE",
"182 -6 OFFCURVE",
"191 -7 CURVE",
"363 269 LINE",
"402 0 LINE",
"422 -7 OFFCURVE",
"442 -7 OFFCURVE",
"455 -7 CURVE",
"641 280 LINE SMOOTH",
"701 373 OFFCURVE",
"719 454 OFFCURVE",
"719 454 CURVE",
"708 473 LINE",
"694 475 OFFCURVE",
"681 475 OFFCURVE",
"667 475 CURVE SMOOTH",
"629 475 OFFCURVE",
"592 469 OFFCURVE",
"559 460 CURVE",
"562 423 LINE",
"592 423 OFFCURVE",
"608 418 OFFCURVE",
"608 388 CURVE SMOOTH",
"608 330 OFFCURVE",
"522 183 OFFCURVE",
"473 106 CURVE",
"420 474 LINE",
"420 474 OFFCURVE",
"405 476 OFFCURVE",
"393 476 CURVE SMOOTH",
"371 476 OFFCURVE",
"358 471 OFFCURVE",
"344 467 CURVE",
"344 439 OFFCURVE",
"343 378 OFFCURVE",
"331 343 CURVE SMOOTH",
"331 343 LINE"
);
}
);
width = 728;
},
{
anchors = (
{
name = top;
position = "{424, 515}";
}
);
layerId = "0FAD76F5-9F58-4721-BF81-08BC6166EF10";
paths = (
{
closed = 1;
nodes = (
"362 322 OFFCURVE",
"335 280 OFFCURVE",
"242 126 CURVE",
"194 488 LINE",
"182 489 OFFCURVE",
"170 489 OFFCURVE",
"157 489 CURVE SMOOTH",
"99 489 OFFCURVE",
"43 478 OFFCURVE",
"13 459 CURVE",
"19 427 LINE",
"53 427 OFFCURVE",
"78 414 OFFCURVE",
"85 366 CURVE SMOOTH",
"134 0 LINE",
"153 -6 OFFCURVE",
"174 -8 OFFCURVE",
"196 -8 CURVE SMOOTH",
"207 -8 OFFCURVE",
"217 -8 OFFCURVE",
"228 -7 CURVE",
"381 233 LINE",
"412 0 LINE",
"437 -7 OFFCURVE",
"473 -7 OFFCURVE",
"506 -7 CURVE",
"699 280 LINE SMOOTH",
"738 338 OFFCURVE",
"774 435 OFFCURVE",
"778 462 CURVE",
"761 488 LINE",
"748 490 OFFCURVE",
"734 490 OFFCURVE",
"721 490 CURVE SMOOTH",
"684 490 OFFCURVE",
"641 484 OFFCURVE",
"608 474 CURVE",
"612 437 LINE",
"630 436 OFFCURVE",
"658 433 OFFCURVE",
"658 400 CURVE SMOOTH",
"658 358 OFFCURVE",
"627 287 OFFCURVE",
"520 120 CURVE",
"471 484 LINE",
"418 484 OFFCURVE",
"389 482 OFFCURVE",
"362 477 CURVE",
"362 433 LINE"
);
}
);
width = 773;
}
);
unicode = 0077;
},
{
glyphname = x;
lastChange = "2019-08-19 16:07:20 +0000";
layers = (
{
anchors = (
{
name = cedilla;
position = "{205, 0}";
},
{
name = top;
position = "{264, 505}";
}
);
layerId = "CF479DE4-94A2-4865-8D1E-65EA355866D4";
paths = (
{
closed = 1;
nodes = (
"275 16 OFFCURVE",
"286 -7 OFFCURVE",
"318 -7 CURVE SMOOTH",
"358 -7 OFFCURVE",
"400 30 OFFCURVE",
"422 49 CURVE",
"412 81 LINE",
"407 78 OFFCURVE",
"378 62 OFFCURVE",
"361 62 CURVE SMOOTH",
"345 62 OFFCURVE",
"343 74 OFFCURVE",
"336 86 CURVE",
"266 246 LINE",
"320 300 LINE SMOOTH",
"426 406 OFFCURVE",
"449 453 OFFCURVE",
"448 454 CURVE SMOOTH",
"437 473 LINE",
"437 473 OFFCURVE",
"416 476 OFFCURVE",
"400 476 CURVE SMOOTH",
"342 476 OFFCURVE",
"297 460 OFFCURVE",
"297 460 CURVE",
"301 423 LINE",
"309 423 OFFCURVE",
"329 420 OFFCURVE",
"329 402 CURVE SMOOTH",
"329 378 OFFCURVE",
"293 337 OFFCURVE",
"247 290 CURVE",
"168 474 LINE",
"163 475 OFFCURVE",
"157 475 OFFCURVE",
"151 475 CURVE SMOOTH",
"115 475 OFFCURVE",
"66 463 OFFCURVE",
"47 445 CURVE",
"52 413 LINE",
"85 413 OFFCURVE",
"101 411 OFFCURVE",
"120 367 CURVE SMOOTH",
"178 234 LINE",
"116 171 LINE SMOOTH",
"17 71 OFFCURVE",
"-10 19 OFFCURVE",
"-10 19 CURVE",
"0 0 LINE",
"141 0 LINE",
"146 37 LINE",
"133 38 OFFCURVE",
"109 43 OFFCURVE",
"109 65 CURVE SMOOTH",
"109 89 OFFCURVE",
"142 134 OFFCURVE",
"198 190 CURVE",
"262 45 LINE"
);
}
);
width = 449;
},
{
layerId = "0FAD76F5-9F58-4721-BF81-08BC6166EF10";
paths = (
{
closed = 1;
nodes = (
"489 457 LINE",
"477 487 LINE",
"477 487 OFFCURVE",
"440 490 OFFCURVE",
"414 490 CURVE SMOOTH",
"354 490 OFFCURVE",
"308 473 OFFCURVE",
"308 473 CURVE",
"299 436 LINE",
"322 432 OFFCURVE",
"338 420 OFFCURVE",
"338 409 CURVE SMOOTH",
"338 387 OFFCURVE",
"310 355 OFFCURVE",
"277 320 CURVE",
"199 488 LINE",
"191 490 OFFCURVE",
"184 490 OFFCURVE",
"171 490 CURVE SMOOTH",
"86 490 OFFCURVE",
"15 448 OFFCURVE",
"15 448 CURVE",
"20 415 LINE",
"55 415 OFFCURVE",
"69 413 OFFCURVE",
"95 367 CURVE",
"162 226 LINE",
"37 98 OFFCURVE",
"-6 46 OFFCURVE",
"-20 28 CURVE",
"-9 0 LINE",
"159 0 LINE",
"164 38 LINE",
"133 49 OFFCURVE",
"121 63 OFFCURVE",
"121 80 CURVE SMOOTH",
"121 105 OFFCURVE",
"149 136 OFFCURVE",
"187 173 CURVE",
"241 61 LINE SMOOTH",
"260 22 OFFCURVE",
"293 -4 OFFCURVE",
"336 -4 CURVE SMOOTH",
"377 -4 OFFCURVE",
"425 19 OFFCURVE",
"474 76 CURVE",
"451 107 LINE",
"434 92 OFFCURVE",
"421 86 OFFCURVE",
"410 86 CURVE SMOOTH",
"390 86 OFFCURVE",
"376 106 OFFCURVE",
"365 131 CURVE SMOOTH",
"301 269 LINE"
);
}
);
width = 483;
}
);
unicode = 0078;
},
{
glyphname = y;
lastChange = "2019-08-19 16:07:20 +0000";
layers = (
{
anchors = (
{
name = cedilla;
position = "{228, 0}";
},
{
name = top;
position = "{258, 505}";
}
);
layerId = "CF479DE4-94A2-4865-8D1E-65EA355866D4";
paths = (
{
closed = 1;
nodes = (
"299 247 OFFCURVE",
"256 174 OFFCURVE",
"212 105 CURVE",
"163 474 LINE",
"163 474 OFFCURVE",
"148 476 OFFCURVE",
"136 476 CURVE SMOOTH",
"88 476 OFFCURVE",
"22 445 OFFCURVE",
"22 445 CURVE",
"28 413 LINE",
"61 413 OFFCURVE",
"87 406 OFFCURVE",
"92 366 CURVE SMOOTH",
"140 6 LINE",
"92 -69 OFFCURVE",
"58 -121 OFFCURVE",
"58 -160 CURVE SMOOTH",
"58 -197 OFFCURVE",
"83 -219 OFFCURVE",
"124 -219 CURVE SMOOTH",
"160 -219 OFFCURVE",
"192 -196 OFFCURVE",
"192 -165 CURVE SMOOTH",
"192 -155 OFFCURVE",
"188 -144 OFFCURVE",
"180 -132 CURVE",
"171 -137 OFFCURVE",
"163 -139 OFFCURVE",
"156 -139 CURVE SMOOTH",
"141 -139 OFFCURVE",
"132 -129 OFFCURVE",
"132 -114 CURVE",
"133 -105 OFFCURVE",
"135 -95 OFFCURVE",
"143 -83 CURVE SMOOTH",
"380 280 LINE SMOOTH",
"442 374 OFFCURVE",
"457 454 OFFCURVE",
"458 454 CURVE",
"447 473 LINE",
"443 474 OFFCURVE",
"430 476 OFFCURVE",
"420 476 CURVE SMOOTH",
"362 476 OFFCURVE",
"297 460 OFFCURVE",
"297 460 CURVE",
"301 423 LINE",
"321 423 OFFCURVE",
"345 421 OFFCURVE",
"345 389 CURVE SMOOTH",
"345 365 OFFCURVE",
"337 340 OFFCURVE",
"335 335 CURVE SMOOTH",
"335 335 LINE"
);
}
);
width = 460;
},
{
anchors = (
{
name = top;
position = "{292, 515}";
}
);
layerId = "0FAD76F5-9F58-4721-BF81-08BC6166EF10";
paths = (
{
closed = 1;
nodes = (
"482 368 OFFCURVE",
"502 442 OFFCURVE",
"507 462 CURVE",
"490 488 LINE",
"478 489 OFFCURVE",
"463 490 OFFCURVE",
"450 490 CURVE SMOOTH",
"413 490 OFFCURVE",
"370 484 OFFCURVE",
"337 474 CURVE",
"341 437 LINE",
"358 436 OFFCURVE",
"386 433 OFFCURVE",
"386 400 CURVE SMOOTH",
"386 389 OFFCURVE",
"384 375 OFFCURVE",
"378 357 CURVE SMOOTH",
"369 332 OFFCURVE",
"330 243 OFFCURVE",
"249 115 CURVE",
"200 488 LINE",
"187 489 OFFCURVE",
"175 489 OFFCURVE",
"162 489 CURVE SMOOTH",
"101 489 OFFCURVE",
"40 478 OFFCURVE",
"10 459 CURVE",
"16 427 LINE",
"47 427 OFFCURVE",
"70 414 OFFCURVE",
"77 366 CURVE SMOOTH",
"126 0 LINE",
"136 -3 OFFCURVE",
"150 -4 OFFCURVE",
"164 -5 CURVE",
"129 -54 OFFCURVE",
"95 -107 OFFCURVE",
"95 -150 CURVE SMOOTH",
"95 -197 OFFCURVE",
"132 -220 OFFCURVE",
"170 -220 CURVE SMOOTH",
"213 -220 OFFCURVE",
"258 -192 OFFCURVE",
"258 -142 CURVE SMOOTH",
"258 -136 OFFCURVE",
"257 -129 OFFCURVE",
"256 -122 CURVE",
"246 -130 OFFCURVE",
"233 -134 OFFCURVE",
"222 -134 CURVE SMOOTH",
"205 -134 OFFCURVE",
"190 -126 OFFCURVE",
"190 -107 CURVE SMOOTH",
"190 -96 OFFCURVE",
"195 -82 OFFCURVE",
"206 -65 CURVE SMOOTH",
"428 280 LINE"
);
}
);
width = 500;
}
);
unicode = 0079;
},
{
glyphname = z;
lastChange = "2019-08-19 16:07:20 +0000";
layers = (
{
anchors = (
{
name = cedilla;
position = "{204, 0}";
},
{
name = top;
position = "{256, 505}";
}
);
background = {
paths = (
{
closed = 1;
nodes = (
"25 -6 LINE",
"68 -2 OFFCURVE",
"110 0 OFFCURVE",
"149 0 CURVE SMOOTH",
"233 0 OFFCURVE",
"302 -7 OFFCURVE",
"331 -7 CURVE SMOOTH",
"365 -7 OFFCURVE",
"375 30 OFFCURVE",
"398 145 CURVE",
"360 149 LINE",
"360 149 OFFCURVE",
"334 85 OFFCURVE",
"311 74 CURVE SMOOTH",
"283 60 OFFCURVE",
"213 74 OFFCURVE",
"114 58 CURVE",
"425 431 LINE",
"410 467 LINE",
"297 467 OFFCURVE",
"197 467 OFFCURVE",
"92 476 CURVE",
"80 455 LINE",
"69 387 OFFCURVE",
"50 327 OFFCURVE",
"50 327 CURVE",
"91 315 LINE",
"91 314 OFFCURVE",
"121 386 OFFCURVE",
"149 392 CURVE SMOOTH",
"172 396 OFFCURVE",
"270 397 OFFCURVE",
"317 399 CURVE",
"10 30 LINE"
);
},
{
closed = 1;
nodes = (
"362 21 LINE",
"388 151 LINE",
"340 150 LINE",
"325 116 OFFCURVE",
"306 69 OFFCURVE",
"285 46 CURVE",
"262 45 OFFCURVE",
"235 45 OFFCURVE",
"210 45 CURVE SMOOTH",
"149 45 OFFCURVE",
"129 45 OFFCURVE",
"114 46 CURVE",
"436 433 LINE",
"435 469 LINE",
"401 468 OFFCURVE",
"346 467 OFFCURVE",
"284 467 CURVE SMOOTH",
"225 467 OFFCURVE",
"137 469 OFFCURVE",
"111 469 CURVE",
"83 448 LINE",
"74 328 LINE",
"82 325 OFFCURVE",
"91 324 OFFCURVE",
"100 324 CURVE SMOOTH",
"109 324 OFFCURVE",
"119 326 OFFCURVE",
"127 329 CURVE",
"135 357 OFFCURVE",
"152 404 OFFCURVE",
"167 420 CURVE",
"187 423 OFFCURVE",
"228 425 OFFCURVE",
"258 425 CURVE SMOOTH",
"275 425 OFFCURVE",
"319 422 OFFCURVE",
"332 421 CURVE",
"13 38 LINE",
"14 -4 LINE",
"14 -4 OFFCURVE",
"90 0 OFFCURVE",
"198 0 CURVE SMOOTH",
"252 0 OFFCURVE",
"314 -1 OFFCURVE",
"339 -3 CURVE"
);
}
);
};
layerId = "CF479DE4-94A2-4865-8D1E-65EA355866D4";
paths = (
{
closed = 1;
nodes = (
"325 120 OFFCURVE",
"313 82 OFFCURVE",
"288 46 CURVE",
"119 46 LINE",
"436 433 LINE",
"425 469 LINE",
"391 468 OFFCURVE",
"346 467 OFFCURVE",
"284 467 CURVE SMOOTH",
"225 467 OFFCURVE",
"132 469 OFFCURVE",
"106 469 CURVE",
"83 448 LINE",
"74 328 LINE",
"82 325 OFFCURVE",
"91 324 OFFCURVE",
"100 324 CURVE SMOOTH",
"109 324 OFFCURVE",
"119 326 OFFCURVE",
"127 329 CURVE",
"135 357 OFFCURVE",
"152 405 OFFCURVE",
"167 421 CURVE",
"330 421 LINE",
"13 38 LINE",
"24 -4 LINE",
"24 -4 OFFCURVE",
"90 0 OFFCURVE",
"198 0 CURVE SMOOTH",
"252 0 OFFCURVE",
"313 -1 OFFCURVE",
"338 -3 CURVE",
"361 21 LINE",
"388 149 LINE",
"337 155 LINE"
);
}
);
width = 450;
},
{
anchors = (
{
name = top;
position = "{275, 517}";
}
);
background = {
paths = (
{
closed = 1;
nodes = (
"35 594 LINE",
"78 598 OFFCURVE",
"123 600 OFFCURVE",
"166 600 CURVE SMOOTH",
"258 600 OFFCURVE",
"341 593 OFFCURVE",
"375 593 CURVE SMOOTH",
"415 593 OFFCURVE",
"422 652 OFFCURVE",
"445 767 CURVE",
"386 779 LINE",
"386 779 OFFCURVE",
"359 705 OFFCURVE",
"336 694 CURVE SMOOTH",
"311 681 OFFCURVE",
"237 684 OFFCURVE",
"148 677 CURVE",
"458 1031 LINE",
"435 1084 LINE",
"276 1084 LINE SMOOTH",
"218 1084 OFFCURVE",
"160 1087 OFFCURVE",
"105 1092 CURVE",
"80 1069 LINE",
"69 1001 OFFCURVE",
"51 917 OFFCURVE",
"51 917 CURVE",
"110 905 LINE",
"110 905 OFFCURVE",
"138 987 OFFCURVE",
"169 992 CURVE SMOOTH",
"189 995 OFFCURVE",
"274 997 OFFCURVE",
"327 998 CURVE",
"22 650 LINE"
);
},
{
closed = 1;
nodes = (
"357 155 LINE",
"345 120 OFFCURVE",
"333 82 OFFCURVE",
"308 46 CURVE",
"139 46 LINE",
"456 433 LINE",
"445 469 LINE",
"411 468 OFFCURVE",
"366 467 OFFCURVE",
"304 467 CURVE SMOOTH",
"245 467 OFFCURVE",
"152 469 OFFCURVE",
"126 469 CURVE",
"103 448 LINE",
"94 328 LINE",
"102 325 OFFCURVE",
"111 324 OFFCURVE",
"120 324 CURVE SMOOTH",
"129 324 OFFCURVE",
"139 326 OFFCURVE",
"147 329 CURVE",
"155 357 OFFCURVE",
"172 405 OFFCURVE",
"187 421 CURVE",
"350 421 LINE",
"33 38 LINE",
"44 -4 LINE",
"44 -4 OFFCURVE",
"110 0 OFFCURVE",
"218 0 CURVE SMOOTH",
"272 0 OFFCURVE",
"333 -1 OFFCURVE",
"358 -3 CURVE",
"381 21 LINE",
"408 149 LINE"
);
},
{
closed = 1;
nodes = (
"76 453 LINE",
"50 321 LINE",
"122 312 LINE",
"135 354 OFFCURVE",
"159 405 OFFCURVE",
"175 426 CURVE",
"311 426 LINE",
"6 37 LINE",
"17 -4 LINE",
"74 -2 OFFCURVE",
"134 -2 OFFCURVE",
"188 -2 CURVE SMOOTH",
"260 -2 OFFCURVE",
"355 -3 OFFCURVE",
"372 -4 CURVE",
"409 26 LINE",
"417 147 LINE",
"400 153 OFFCURVE",
"386 156 OFFCURVE",
"370 156 CURVE SMOOTH",
"359 156 OFFCURVE",
"354 155 OFFCURVE",
"336 152 CURVE",
"324 112 OFFCURVE",
"310 69 OFFCURVE",
"300 52 CURVE",
"174 52 LINE",
"474 440 LINE",
"465 486 LINE",
"439 485 OFFCURVE",
"343 482 OFFCURVE",
"296 482 CURVE SMOOTH",
"258 482 OFFCURVE",
"213 485 OFFCURVE",
"106 486 CURVE"
);
}
);
};
layerId = "0FAD76F5-9F58-4721-BF81-08BC6166EF10";
paths = (
{
closed = 1;
nodes = (
"430 161 LINE",
"358 170 LINE",
"345 128 OFFCURVE",
"321 77 OFFCURVE",
"305 56 CURVE",
"174 56 LINE",
"474 445 LINE",
"463 486 LINE",
"406 484 OFFCURVE",
"346 484 OFFCURVE",
"292 484 CURVE SMOOTH",
"220 484 OFFCURVE",
"125 485 OFFCURVE",
"108 486 CURVE",
"71 456 LINE",
"63 335 LINE",
"80 329 OFFCURVE",
"94 326 OFFCURVE",
"110 326 CURVE SMOOTH",
"121 326 OFFCURVE",
"118 325 OFFCURVE",
"136 328 CURVE",
"148 375 OFFCURVE",
"170 411 OFFCURVE",
"180 428 CURVE",
"307 428 LINE",
"6 42 LINE",
"15 -4 LINE",
"41 -3 OFFCURVE",
"137 0 OFFCURVE",
"184 0 CURVE SMOOTH",
"222 0 OFFCURVE",
"267 -3 OFFCURVE",
"374 -4 CURVE",
"404 29 LINE"
);
}
);
width = 472;
}
);
unicode = 007A;
},
{
glyphname = Aogonek;
lastChange = "2019-08-19 16:07:20 +0000";
layers = (
{
layerId = "CF479DE4-94A2-4865-8D1E-65EA355866D4";
paths = (
{
closed = 1;
nodes = (
"57 60 LINE",
"35 45 OFFCURVE",
"10 41 OFFCURVE",
"-16 37 CURVE",
"-21 0 LINE",
"214 0 LINE",
"219 37 LINE",
"187 41 OFFCURVE",
"152 47 OFFCURVE",
"124 62 CURVE",
"190 215 LINE",
"376 215 LINE",
"376 215 OFFCURVE",
"398 107 OFFCURVE",
"398 55 CURVE SMOOTH",
"398 -27 OFFCURVE",
"294 -64 OFFCURVE",
"294 -146 CURVE SMOOTH",
"294 -186 OFFCURVE",
"315 -204 OFFCURVE",
"352 -204 CURVE SMOOTH",
"391 -204 OFFCURVE",
"428 -186 OFFCURVE",
"456 -165 CURVE",
"439 -137 LINE",
"420 -147 OFFCURVE",
"394 -154 OFFCURVE",
"381 -154 CURVE SMOOTH",
"364 -154 OFFCURVE",
"355 -143 OFFCURVE",
"355 -126 CURVE SMOOTH",
"355 -68 OFFCURVE",
"428 0 OFFCURVE",
"475 0 CURVE SMOOTH",
"563 0 LINE",
"567 37 LINE",
"544 41 OFFCURVE",
"518 46 OFFCURVE",
"496 62 CURVE",
"394 667 LINE",
"329 667 LINE"
);
},
{
closed = 1;
nodes = (
"368 267 LINE",
"212 267 LINE",
"328 534 LINE"
);
}
);
width = 588;
},
{
background = {
paths = (
{
closed = 1;
nodes = (
"1044 667 LINE",
"772 60 LINE",
"750 45 OFFCURVE",
"725 41 OFFCURVE",
"699 37 CURVE",
"694 0 LINE",
"929 0 LINE",
"934 37 LINE",
"902 41 OFFCURVE",
"867 47 OFFCURVE",
"839 62 CURVE",
"905 215 LINE",
"1091 215 LINE",
"1091 215 OFFCURVE",
"1113 107 OFFCURVE",
"1113 55 CURVE SMOOTH",
"1113 -27 OFFCURVE",
"1009 -64 OFFCURVE",
"1009 -146 CURVE SMOOTH",
"1009 -186 OFFCURVE",
"1030 -204 OFFCURVE",
"1067 -204 CURVE SMOOTH",
"1106 -204 OFFCURVE",
"1143 -186 OFFCURVE",
"1171 -165 CURVE",
"1154 -137 LINE",
"1135 -147 OFFCURVE",
"1109 -154 OFFCURVE",
"1096 -154 CURVE SMOOTH",
"1079 -154 OFFCURVE",
"1070 -143 OFFCURVE",
"1070 -126 CURVE SMOOTH",
"1070 -68 OFFCURVE",
"1143 0 OFFCURVE",
"1190 0 CURVE SMOOTH",
"1278 0 LINE",
"1282 37 LINE",
"1259 41 OFFCURVE",
"1233 46 OFFCURVE",
"1211 62 CURVE",
"1109 667 LINE"
);
},
{
closed = 1;
nodes = (
"1043 534 LINE",
"1083 267 LINE",
"927 267 LINE"
);
},
{
closed = 1;
nodes = (
"405 8 LINE",
"359 -35 OFFCURVE",
"289 -78 OFFCURVE",
"289 -132 CURVE SMOOTH",
"289 -178 OFFCURVE",
"326 -204 OFFCURVE",
"371 -204 CURVE SMOOTH",
"410 -204 OFFCURVE",
"452 -188 OFFCURVE",
"483 -157 CURVE",
"463 -122 LINE",
"449 -132 OFFCURVE",
"426 -144 OFFCURVE",
"409 -144 CURVE SMOOTH",
"396 -144 OFFCURVE",
"386 -136 OFFCURVE",
"386 -115 CURVE SMOOTH",
"386 -75 OFFCURVE",
"422 -20 OFFCURVE",
"486 0 CURVE"
);
}
);
};
layerId = "0FAD76F5-9F58-4721-BF81-08BC6166EF10";
paths = (
{
closed = 1;
nodes = (
"397 -36 OFFCURVE",
"289 -58 OFFCURVE",
"289 -132 CURVE SMOOTH",
"289 -178 OFFCURVE",
"326 -204 OFFCURVE",
"371 -204 CURVE SMOOTH",
"410 -204 OFFCURVE",
"452 -188 OFFCURVE",
"483 -157 CURVE",
"463 -122 LINE",
"449 -132 OFFCURVE",
"426 -144 OFFCURVE",
"409 -144 CURVE SMOOTH",
"396 -144 OFFCURVE",
"386 -136 OFFCURVE",
"386 -115 CURVE SMOOTH",
"386 -76 OFFCURVE",
"423 -3 OFFCURVE",
"528 0 CURVE",
"600 0 LINE",
"604 40 LINE",
"581 44 OFFCURVE",
"559 53 OFFCURVE",
"550 74 CURVE",
"429 667 LINE",
"325 667 LINE",
"16 65 LINE",
"1 48 OFFCURVE",
"-24 42 OFFCURVE",
"-50 40 CURVE",
"-55 0 LINE",
"171 0 LINE",
"176 40 LINE",
"143 44 OFFCURVE",
"113 54 OFFCURVE",
"96 70 CURVE",
"166 208 LINE",
"372 208 LINE",
"386 127 LINE",
"386 127 OFFCURVE",
"397 61 OFFCURVE",
"397 51 CURVE SMOOTH",
"397 51 LINE"
);
},
{
closed = 1;
nodes = (
"361 271 LINE",
"198 271 LINE",
"321 511 LINE"
);
}
);
width = 614;
}
);
unicode = 0104;
},
{
glyphname = Aringacute;
lastChange = "2019-08-19 16:07:20 +0000";
layers = (
{
components = (
{
name = A;
}
);
layerId = "CF479DE4-94A2-4865-8D1E-65EA355866D4";
paths = (
{
closed = 1;
nodes = (
"444 862 LINE SMOOTH",
"466 873 OFFCURVE",
"485 882 OFFCURVE",
"485 902 CURVE SMOOTH",
"485 919 OFFCURVE",
"474 932 OFFCURVE",
"454 932 CURVE SMOOTH",
"443 932 OFFCURVE",
"432 927 OFFCURVE",
"414 913 CURVE SMOOTH",
"307 826 LINE",
"325 801 LINE"
);
},
{
closed = 1;
nodes = (
"417 651 OFFCURVE",
"460 693 OFFCURVE",
"460 746 CURVE SMOOTH",
"460 785 OFFCURVE",
"432 812 OFFCURVE",
"387 812 CURVE SMOOTH",
"332 812 OFFCURVE",
"288 771 OFFCURVE",
"288 717 CURVE SMOOTH",
"288 678 OFFCURVE",
"314 651 OFFCURVE",
"361 651 CURVE SMOOTH",
"361 651 LINE"
);
},
{
closed = 1;
nodes = (
"345 690 OFFCURVE",
"330 706 OFFCURVE",
"330 725 CURVE SMOOTH",
"330 750 OFFCURVE",
"356 774 OFFCURVE",
"381 774 CURVE SMOOTH",
"403 774 OFFCURVE",
"418 758 OFFCURVE",
"418 738 CURVE SMOOTH",
"418 713 OFFCURVE",
"394 690 OFFCURVE",
"368 690 CURVE SMOOTH",
"368 690 LINE"
);
}
);
width = 588;
},
{
layerId = "0FAD76F5-9F58-4721-BF81-08BC6166EF10";
paths = (
{
closed = 1;
nodes = (
"265 665 OFFCURVE",
"277 640 OFFCURVE",
"300 625 CURVE",
"13 65 LINE",
"-2 48 OFFCURVE",
"-27 42 OFFCURVE",
"-53 40 CURVE",
"-58 0 LINE",
"168 0 LINE",
"173 40 LINE",
"140 44 OFFCURVE",
"110 54 OFFCURVE",
"93 70 CURVE",
"163 208 LINE",
"369 208 LINE",
"393 65 LINE",
"381 52 OFFCURVE",
"356 44 OFFCURVE",
"327 40 CURVE",
"321 0 LINE",
"597 0 LINE",
"601 40 LINE",
"578 44 OFFCURVE",
"556 53 OFFCURVE",
"547 74 CURVE",
"434 626 LINE",
"470 646 OFFCURVE",
"492 680 OFFCURVE",
"492 718 CURVE SMOOTH",
"492 766 OFFCURVE",
"456 804 OFFCURVE",
"394 804 CURVE SMOOTH",
"318 804 OFFCURVE",
"265 753 OFFCURVE",
"265 693 CURVE SMOOTH",
"265 693 LINE"
);
},
{
closed = 1;
nodes = (
"358 271 LINE",
"195 271 LINE",
"318 511 LINE"
);
},
{
closed = 1;
nodes = (
"492 868 OFFCURVE",
"513 885 OFFCURVE",
"513 913 CURVE SMOOTH",
"513 931 OFFCURVE",
"502 945 OFFCURVE",
"478 945 CURVE SMOOTH",
"462 945 OFFCURVE",
"445 940 OFFCURVE",
"427 925 CURVE SMOOTH",
"299 825 LINE",
"316 795 LINE",
"451 851 LINE"
);
},
{
closed = 1;
nodes = (
"337 725 OFFCURVE",
"351 757 OFFCURVE",
"386 757 CURVE SMOOTH",
"410 757 OFFCURVE",
"420 739 OFFCURVE",
"420 717 CURVE SMOOTH",
"420 686 OFFCURVE",
"405 656 OFFCURVE",
"370 656 CURVE SMOOTH",
"346 656 OFFCURVE",
"337 673 OFFCURVE",
"337 695 CURVE SMOOTH",
"337 695 LINE"
);
}
);
width = 614;
}
);
unicode = 01FA;
},
{
glyphname = AE;
lastChange = "2019-08-19 16:07:20 +0000";
layers = (
{
anchors = (
{
name = bottom;
position = "{508, 0}";
},
{
name = top;
position = "{569, 695}";
}
);
layerId = "CF479DE4-94A2-4865-8D1E-65EA355866D4";
paths = (
{
closed = 1;
nodes = (
"728 0 LINE",
"764 169 LINE",
"756 170 OFFCURVE",
"749 171 OFFCURVE",
"743 171 CURVE SMOOTH",
"736 171 OFFCURVE",
"729 170 OFFCURVE",
"723 169 CURVE",
"711 136 OFFCURVE",
"694 92 OFFCURVE",
"663 57 CURVE",
"478 57 LINE",
"522 316 LINE",
"614 313 LINE SMOOTH",
"657 311 OFFCURVE",
"656 262 OFFCURVE",
"660 239 CURVE",
"691 239 LINE",
"722 434 LINE",
"690 434 LINE",
"681 412 OFFCURVE",
"660 369 OFFCURVE",
"625 368 CURVE SMOOTH",
"530 364 LINE",
"573 614 LINE",
"742 614 LINE",
"762 583 OFFCURVE",
"766 544 OFFCURVE",
"767 513 CURVE",
"774 511 OFFCURVE",
"780 510 OFFCURVE",
"786 510 CURVE SMOOTH",
"795 510 OFFCURVE",
"804 512 OFFCURVE",
"811 516 CURVE",
"826 667 LINE",
"477 667 LINE",
"48 67 LINE",
"28 47 OFFCURVE",
"-2 40 OFFCURVE",
"-30 37 CURVE",
"-35 0 LINE",
"195 0 LINE",
"200 37 LINE",
"171 40 OFFCURVE",
"140 45 OFFCURVE",
"113 58 CURVE",
"251 251 LINE",
"427 251 LINE",
"394 63 LINE",
"364 46 OFFCURVE",
"334 41 OFFCURVE",
"302 37 CURVE",
"296 0 LINE"
);
},
{
closed = 1;
nodes = (
"435 298 LINE",
"285 298 LINE",
"484 577 LINE"
);
}
);
width = 834;
},
{
anchors = (
{
name = bottom;
position = "{460, 0}";
},
{
name = top;
position = "{631, 705}";
}
);
layerId = "0FAD76F5-9F58-4721-BF81-08BC6166EF10";
paths = (
{
closed = 1;
nodes = (
"366 66 LINE",
"355 55 OFFCURVE",
"327 44 OFFCURVE",
"305 41 CURVE",
"295 0 LINE",
"759 0 LINE",
"799 189 LINE",
"788 191 OFFCURVE",
"777 192 OFFCURVE",
"766 192 CURVE SMOOTH",
"751 192 OFFCURVE",
"739 191 OFFCURVE",
"725 189 CURVE",
"706 135 OFFCURVE",
"684 93 OFFCURVE",
"658 62 CURVE",
"513 62 LINE",
"553 318 LINE",
"614 310 LINE SMOOTH",
"637 307 OFFCURVE",
"649 290 OFFCURVE",
"659 236 CURVE",
"711 236 LINE",
"744 443 LINE",
"692 443 LINE",
"676 403 OFFCURVE",
"650 378 OFFCURVE",
"626 376 CURVE SMOOTH",
"561 369 LINE",
"599 606 LINE",
"737 606 LINE",
"753 579 OFFCURVE",
"760 550 OFFCURVE",
"763 499 CURVE",
"776 496 OFFCURVE",
"788 495 OFFCURVE",
"798 495 CURVE SMOOTH",
"813 495 OFFCURVE",
"825 497 OFFCURVE",
"838 502 CURVE",
"860 667 LINE",
"418 667 LINE",
"32 71 LINE",
"20 50 OFFCURVE",
"-8 41 OFFCURVE",
"-37 40 CURVE",
"-49 0 LINE",
"184 0 LINE",
"195 40 LINE",
"164 44 OFFCURVE",
"135 52 OFFCURVE",
"118 68 CURVE",
"207 208 LINE",
"389 208 LINE"
);
},
{
closed = 1;
nodes = (
"399 271 LINE",
"247 271 LINE",
"453 596 LINE"
);
}
);
width = 844;
}
);
unicode = 00C6;
},
{
glyphname = Dcroat;
lastChange = "2019-08-19 16:07:20 +0000";
layers = (
{
components = (
{
name = D;
},
{
name = macron;
transform = "{1, 0, 0, 1, 79, -266}";
}
);
layerId = "CF479DE4-94A2-4865-8D1E-65EA355866D4";
width = 649;
},
{
background = {
paths = (
{
closed = 1;
nodes = (
"54 285 LINE",
"105 285 LINE",
"71 70 LINE",
"50 55 OFFCURVE",
"32 46 OFFCURVE",
"0 41 CURVE",
"-5 0 LINE",
"220 0 LINE SMOOTH",
"550 0 OFFCURVE",
"650 204 OFFCURVE",
"650 413 CURVE SMOOTH",
"650 608 OFFCURVE",
"504 667 OFFCURVE",
"304 667 CURVE SMOOTH",
"95 667 LINE",
"89 626 LINE",
"117 622 OFFCURVE",
"144 610 OFFCURVE",
"155 596 CURVE",
"120 380 LINE",
"69 380 LINE"
);
},
{
closed = 1;
nodes = (
"304 605 LINE",
"331 605 LINE SMOOTH",
"436 605 OFFCURVE",
"494 549 OFFCURVE",
"494 429 CURVE SMOOTH",
"494 297 OFFCURVE",
"459 63 OFFCURVE",
"260 63 CURVE SMOOTH",
"235 63 OFFCURVE",
"224 75 OFFCURVE",
"224 99 CURVE SMOOTH",
"224 104 OFFCURVE",
"225 110 OFFCURVE",
"226 117 CURVE SMOOTH",
"253 285 LINE",
"390 285 LINE",
"405 380 LINE",
"268 380 LINE"
);
}
);
};
components = (
{
name = D;
transform = "{1, 0, 0, 1, 2, 0}";
}
);
layerId = "0FAD76F5-9F58-4721-BF81-08BC6166EF10";
paths = (
{
closed = 1;
nodes = (
"397 292 LINE",
"408 362 LINE",
"55 362 LINE",
"44 292 LINE"
);
}
);
width = 683;
}
);
unicode = 0110;
},
{
glyphname = Eth;
lastChange = "2019-08-19 16:07:20 +0000";
layers = (
{
background = {
paths = (
{
closed = 1;
nodes = (
"122 667 LINE",
"117 630 LINE",
"148 626 OFFCURVE",
"177 619 OFFCURVE",
"202 604 CURVE",
"163 358 LINE",
"86 358 LINE",
"77 304 LINE",
"154 304 LINE",
"116 62 LINE",
"88 45 OFFCURVE",
"58 41 OFFCURVE",
"26 37 CURVE",
"21 0 LINE",
"228 0 LINE SMOOTH",
"478 0 OFFCURVE",
"617 159 OFFCURVE",
"617 431 CURVE SMOOTH",
"617 602 OFFCURVE",
"510 667 OFFCURVE",
"333 667 CURVE SMOOTH"
);
},
{
closed = 1;
nodes = (
"339 617 LINE SMOOTH",
"446 617 OFFCURVE",
"519 578 OFFCURVE",
"519 441 CURVE SMOOTH",
"519 276 OFFCURVE",
"449 49 OFFCURVE",
"256 49 CURVE SMOOTH",
"223 49 OFFCURVE",
"207 56 OFFCURVE",
"207 79 CURVE SMOOTH",
"207 82 OFFCURVE",
"208 93 OFFCURVE",
"210 103 CURVE SMOOTH",
"242 304 LINE",
"376 304 LINE",
"385 358 LINE",
"251 358 LINE",
"292 617 LINE"
);
}
);
};
components = (
{
name = macron;
transform = "{1, 0, 0, 1, 79, -266}";
},
{
name = D;
}
);
layerId = "CF479DE4-94A2-4865-8D1E-65EA355866D4";
width = 649;
},
{
background = {
paths = (
{
closed = 1;
nodes = (
"54 285 LINE",
"105 285 LINE",
"71 70 LINE",
"50 55 OFFCURVE",
"32 46 OFFCURVE",
"0 41 CURVE",
"-5 0 LINE",
"220 0 LINE SMOOTH",
"550 0 OFFCURVE",
"650 204 OFFCURVE",
"650 413 CURVE SMOOTH",
"650 608 OFFCURVE",
"504 667 OFFCURVE",
"304 667 CURVE SMOOTH",
"95 667 LINE",
"89 626 LINE",
"117 622 OFFCURVE",
"144 610 OFFCURVE",
"155 596 CURVE",
"120 380 LINE",
"69 380 LINE"
);
},
{
closed = 1;
nodes = (
"304 605 LINE",
"331 605 LINE SMOOTH",
"436 605 OFFCURVE",
"494 549 OFFCURVE",
"494 429 CURVE SMOOTH",
"494 297 OFFCURVE",
"459 63 OFFCURVE",
"260 63 CURVE SMOOTH",
"235 63 OFFCURVE",
"224 75 OFFCURVE",
"224 99 CURVE SMOOTH",
"224 104 OFFCURVE",
"225 110 OFFCURVE",
"226 117 CURVE SMOOTH",
"253 285 LINE",
"390 285 LINE",
"405 380 LINE",
"268 380 LINE"
);
}
);
};
components = (
{
name = D;
transform = "{1, 0, 0, 1, 2, 0}";
}
);
layerId = "0FAD76F5-9F58-4721-BF81-08BC6166EF10";
paths = (
{
closed = 1;
nodes = (
"397 292 LINE",
"408 362 LINE",
"55 362 LINE",
"44 292 LINE"
);
}
);
width = 679;
}
);
unicode = 00D0;
},
{
glyphname = Eogonek;
lastChange = "2019-08-19 16:07:20 +0000";
layers = (
{
components = (
{
name = E;
}
);
layerId = "CF479DE4-94A2-4865-8D1E-65EA355866D4";
paths = (
{
closed = 1;
nodes = (
"356 -27 OFFCURVE",
"252 -64 OFFCURVE",
"252 -146 CURVE SMOOTH",
"252 -186 OFFCURVE",
"273 -204 OFFCURVE",
"310 -204 CURVE SMOOTH",
"349 -204 OFFCURVE",
"386 -186 OFFCURVE",
"414 -165 CURVE",
"397 -137 LINE",
"378 -147 OFFCURVE",
"352 -154 OFFCURVE",
"339 -154 CURVE SMOOTH",
"322 -154 OFFCURVE",
"313 -143 OFFCURVE",
"313 -126 CURVE SMOOTH",
"313 -68 OFFCURVE",
"386 0 OFFCURVE",
"433 0 CURVE SMOOTH",
"458 0 LINE",
"356 55 LINE"
);
}
);
width = 568;
},
{
components = (
{
name = E;
},
{
name = ogonek;
transform = "{1, 0, 0, 1, 304, 0}";
}
);
layerId = "0FAD76F5-9F58-4721-BF81-08BC6166EF10";
width = 562;
}
);
unicode = 0118;
},
{
glyphname = Hbar;
lastChange = "2019-08-19 16:07:20 +0000";
layers = (
{
components = (
{
name = H;
}
);
layerId = "CF479DE4-94A2-4865-8D1E-65EA355866D4";
paths = (
{
closed = 1;
nodes = (
"670 454 LINE",
"677 498 LINE",
"83 498 LINE",
"77 454 LINE"
);
}
);
width = 673;
},
{
background = {
paths = (
{
closed = 1;
nodes = (
"51 442 LINE",
"695 442 LINE",
"706 510 LINE",
"62 510 LINE"
);
},
{
closed = 1;
nodes = (
"51 442 LINE",
"695 442 LINE",
"706 510 LINE",
"62 510 LINE"
);
}
);
};
components = (
{
name = H;
}
);
layerId = "0FAD76F5-9F58-4721-BF81-08BC6166EF10";
paths = (
{
closed = 1;
nodes = (
"695 442 LINE",
"706 510 LINE",
"62 510 LINE",
"51 442 LINE"
);
}
);
width = 691;
}
);
unicode = 0126;
},
{
glyphname = Iogonek;
lastChange = "2019-08-19 16:07:20 +0000";
layers = (
{
layerId = "CF479DE4-94A2-4865-8D1E-65EA355866D4";
paths = (
{
closed = 1;
nodes = (
"276 37 LINE",
"244 41 OFFCURVE",
"213 47 OFFCURVE",
"186 63 CURVE",
"272 604 LINE",
"300 620 OFFCURVE",
"325 626 OFFCURVE",
"357 630 CURVE",
"362 667 LINE",
"103 667 LINE",
"98 630 LINE",
"131 626 OFFCURVE",
"159 619 OFFCURVE",
"184 604 CURVE",
"96 52 LINE SMOOTH",
"83 -28 OFFCURVE",
"-9 -64 OFFCURVE",
"-9 -146 CURVE SMOOTH",
"-9 -186 OFFCURVE",
"12 -204 OFFCURVE",
"49 -204 CURVE SMOOTH",
"88 -204 OFFCURVE",
"125 -186 OFFCURVE",
"153 -165 CURVE",
"136 -137 LINE",
"117 -147 OFFCURVE",
"91 -154 OFFCURVE",
"78 -154 CURVE SMOOTH",
"61 -154 OFFCURVE",
"52 -143 OFFCURVE",
"52 -126 CURVE SMOOTH",
"52 -69 OFFCURVE",
"121 -3 OFFCURVE",
"168 0 CURVE",
"271 0 LINE"
);
}
);
width = 320;
},
{
background = {
paths = (
{
closed = 1;
nodes = (
"89 626 LINE",
"117 622 OFFCURVE",
"144 610 OFFCURVE",
"155 596 CURVE",
"72 71 LINE",
"51 55 OFFCURVE",
"33 46 OFFCURVE",
"0 41 CURVE",
"-5 0 LINE",
"281 0 LINE",
"286 41 LINE",
"254 48 OFFCURVE",
"232 57 OFFCURVE",
"219 71 CURVE",
"302 596 LINE",
"325 613 OFFCURVE",
"342 620 OFFCURVE",
"375 626 CURVE",
"381 667 LINE",
"95 667 LINE"
);
},
{
closed = 1;
nodes = (
"119 8 LINE",
"73 -35 OFFCURVE",
"3 -78 OFFCURVE",
"3 -132 CURVE SMOOTH",
"3 -178 OFFCURVE",
"40 -204 OFFCURVE",
"85 -204 CURVE SMOOTH",
"124 -204 OFFCURVE",
"166 -188 OFFCURVE",
"197 -157 CURVE",
"177 -122 LINE",
"163 -132 OFFCURVE",
"140 -144 OFFCURVE",
"123 -144 CURVE SMOOTH",
"110 -144 OFFCURVE",
"100 -136 OFFCURVE",
"100 -115 CURVE SMOOTH",
"100 -75 OFFCURVE",
"136 -20 OFFCURVE",
"200 0 CURVE"
);
},
{
closed = 1;
nodes = (
"64 29 LINE SMOOTH",
"53 -41 OFFCURVE",
"-41 -64 OFFCURVE",
"-41 -132 CURVE SMOOTH",
"-41 -178 OFFCURVE",
"-4 -204 OFFCURVE",
"41 -204 CURVE SMOOTH",
"80 -204 OFFCURVE",
"122 -188 OFFCURVE",
"153 -157 CURVE",
"133 -122 LINE",
"119 -132 OFFCURVE",
"96 -144 OFFCURVE",
"79 -144 CURVE SMOOTH",
"66 -144 OFFCURVE",
"56 -136 OFFCURVE",
"56 -115 CURVE SMOOTH",
"56 -76 OFFCURVE",
"93 -3 OFFCURVE",
"198 0 CURVE",
"281 0 LINE",
"286 41 LINE",
"254 48 OFFCURVE",
"232 57 OFFCURVE",
"219 71 CURVE",
"302 596 LINE",
"325 613 OFFCURVE",
"342 620 OFFCURVE",
"375 626 CURVE",
"381 667 LINE",
"95 667 LINE",
"89 626 LINE",
"117 622 OFFCURVE",
"144 610 OFFCURVE",
"155 596 CURVE"
);
}
);
};
layerId = "0FAD76F5-9F58-4721-BF81-08BC6166EF10";
paths = (
{
closed = 1;
nodes = (
"53 -41 OFFCURVE",
"-41 -64 OFFCURVE",
"-41 -132 CURVE SMOOTH",
"-41 -178 OFFCURVE",
"-4 -204 OFFCURVE",
"41 -204 CURVE SMOOTH",
"80 -204 OFFCURVE",
"122 -188 OFFCURVE",
"153 -157 CURVE",
"133 -122 LINE",
"119 -132 OFFCURVE",
"96 -144 OFFCURVE",
"79 -144 CURVE SMOOTH",
"66 -144 OFFCURVE",
"56 -136 OFFCURVE",
"56 -115 CURVE SMOOTH",
"56 -76 OFFCURVE",
"93 -3 OFFCURVE",
"198 0 CURVE",
"281 0 LINE",
"286 41 LINE",
"254 48 OFFCURVE",
"232 57 OFFCURVE",
"219 71 CURVE",
"302 596 LINE",
"325 613 OFFCURVE",
"342 620 OFFCURVE",
"375 626 CURVE",
"381 667 LINE",
"95 667 LINE",
"89 626 LINE",
"117 622 OFFCURVE",
"144 610 OFFCURVE",
"155 596 CURVE",
"155 596 OFFCURVE",
"74 80 OFFCURVE",
"65 29 CURVE SMOOTH",
"65 29 LINE"
);
}
);
width = 341;
}
);
unicode = 012E;
},
{
glyphname = Lcaron;
lastChange = "2019-08-19 16:07:20 +0000";
layers = (
{
components = (
{
name = L;
},
{
name = commaaccent;
transform = "{1, 0, 0, 1, 373, 708}";
}
);
layerId = "CF479DE4-94A2-4865-8D1E-65EA355866D4";
width = 523;
},
{
background = {
paths = (
{
closed = 1;
nodes = (
"207 62 LINE",
"292 596 LINE",
"314 613 OFFCURVE",
"332 620 OFFCURVE",
"365 626 CURVE",
"378 667 LINE",
"99 667 LINE",
"87 626 LINE",
"112 617 OFFCURVE",
"132 609 OFFCURVE",
"145 596 CURVE",
"61 66 LINE",
"49 55 OFFCURVE",
"21 44 OFFCURVE",
"1 41 CURVE",
"-10 0 LINE",
"483 0 LINE",
"523 189 LINE",
"513 191 OFFCURVE",
"502 192 OFFCURVE",
"491 192 CURVE SMOOTH",
"477 192 OFFCURVE",
"463 191 OFFCURVE",
"449 189 CURVE",
"431 135 OFFCURVE",
"408 93 OFFCURVE",
"382 62 CURVE"
);
},
{
closed = 1;
nodes = (
"469 484 LINE",
"514 533 OFFCURVE",
"545 585 OFFCURVE",
"551 621 CURVE SMOOTH",
"555 651 OFFCURVE",
"535 672 OFFCURVE",
"502 672 CURVE SMOOTH",
"482 672 OFFCURVE",
"457 661 OFFCURVE",
"445 646 CURVE",
"458 632 OFFCURVE",
"462 616 OFFCURVE",
"458 592 CURVE SMOOTH",
"454 568 OFFCURVE",
"443 536 OFFCURVE",
"427 503 CURVE"
);
}
);
};
components = (
{
name = L;
},
{
name = commaaccent;
transform = "{1, 0, 0, 1, 404, 701}";
}
);
layerId = "0FAD76F5-9F58-4721-BF81-08BC6166EF10";
width = 531;
}
);
unicode = 013D;
},
{
glyphname = Lslash;
lastChange = "2019-08-19 16:07:20 +0000";
layers = (
{
components = (
{
name = L;
}
);
layerId = "CF479DE4-94A2-4865-8D1E-65EA355866D4";
paths = (
{
closed = 1;
nodes = (
"410 409 LINE",
"390 455 LINE",
"32 266 LINE",
"52 220 LINE"
);
}
);
width = 526;
},
{
background = {
paths = (
{
closed = 1;
nodes = (
"90 626 LINE",
"118 622 OFFCURVE",
"145 610 OFFCURVE",
"156 596 CURVE",
"116 345 LINE",
"-13 278 LINE",
"25 208 LINE",
"101 247 LINE",
"73 71 LINE",
"52 55 OFFCURVE",
"34 46 OFFCURVE",
"1 41 CURVE",
"-4 0 LINE",
"456 0 LINE",
"496 188 LINE",
"489 190 OFFCURVE",
"481 191 OFFCURVE",
"474 191 CURVE SMOOTH",
"455 191 OFFCURVE",
"442 188 OFFCURVE",
"428 184 CURVE",
"417 153 OFFCURVE",
"396 101 OFFCURVE",
"365 62 CURVE",
"218 62 LINE",
"261 331 LINE",
"394 401 LINE",
"356 471 LINE",
"276 429 LINE",
"303 596 LINE",
"326 613 OFFCURVE",
"353 620 OFFCURVE",
"386 626 CURVE",
"392 667 LINE",
"96 667 LINE"
);
},
{
closed = 1;
nodes = (
"25 216 LINE",
"385 403 LINE",
"362 458 LINE",
"1 272 LINE"
);
}
);
};
components = (
{
name = L;
transform = "{1, 0, 0, 1, -10, 0}";
}
);
layerId = "0FAD76F5-9F58-4721-BF81-08BC6166EF10";
paths = (
{
closed = 1;
nodes = (
"385 401 LINE",
"362 460 LINE",
"1 274 LINE",
"25 214 LINE"
);
}
);
width = 531;
}
);
unicode = 0141;
},
{
glyphname = Eng;
lastChange = "2019-08-19 16:07:20 +0000";
layers = (
{
background = {
paths = (
{
closed = 1;
nodes = (
"0 0 LINE",
"241 0 LINE",
"245 37 LINE",
"213 41 OFFCURVE",
"183 47 OFFCURVE",
"154 63 CURVE",
"226 510 LINE",
"453 40 LINE",
"444 -36 OFFCURVE",
"435 -102 OFFCURVE",
"384 -102 CURVE SMOOTH",
"365 -102 OFFCURVE",
"356 -89 OFFCURVE",
"356 -74 CURVE SMOOTH",
"356 -62 OFFCURVE",
"362 -49 OFFCURVE",
"373 -43 CURVE",
"369 -19 OFFCURVE",
"349 -7 OFFCURVE",
"328 -7 CURVE SMOOTH",
"301 -7 OFFCURVE",
"271 -28 OFFCURVE",
"271 -71 CURVE SMOOTH",
"271 -120 OFFCURVE",
"311 -150 OFFCURVE",
"368 -150 CURVE SMOOTH",
"482 -150 OFFCURVE",
"504 -62 OFFCURVE",
"523 57 CURVE SMOOTH",
"610 604 LINE",
"638 620 OFFCURVE",
"663 626 OFFCURVE",
"695 630 CURVE",
"700 667 LINE",
"464 667 LINE",
"460 630 LINE",
"492 626 OFFCURVE",
"521 619 OFFCURVE",
"545 604 CURVE",
"480 194 LINE",
"251 667 LINE",
"97 667 LINE",
"92 630 LINE",
"124 626 OFFCURVE",
"152 619 OFFCURVE",
"177 604 CURVE",
"90 62 LINE",
"62 46 OFFCURVE",
"38 41 OFFCURVE",
"6 37 CURVE"
);
}
);
};
layerId = "CF479DE4-94A2-4865-8D1E-65EA355866D4";
paths = (
{
closed = 1;
nodes = (
"241 0 LINE",
"245 37 LINE",
"213 41 OFFCURVE",
"183 47 OFFCURVE",
"154 63 CURVE",
"226 510 LINE",
"453 40 LINE",
"444 -36 OFFCURVE",
"435 -102 OFFCURVE",
"384 -102 CURVE SMOOTH",
"365 -102 OFFCURVE",
"356 -89 OFFCURVE",
"356 -74 CURVE SMOOTH",
"356 -62 OFFCURVE",
"362 -49 OFFCURVE",
"373 -43 CURVE",
"369 -19 OFFCURVE",
"349 -7 OFFCURVE",
"328 -7 CURVE SMOOTH",
"301 -7 OFFCURVE",
"271 -28 OFFCURVE",
"271 -71 CURVE SMOOTH",
"271 -120 OFFCURVE",
"311 -150 OFFCURVE",
"368 -150 CURVE SMOOTH",
"482 -150 OFFCURVE",
"504 -62 OFFCURVE",
"523 57 CURVE SMOOTH",
"610 604 LINE",
"638 620 OFFCURVE",
"663 626 OFFCURVE",
"695 630 CURVE",
"700 667 LINE",
"464 667 LINE",
"460 630 LINE",
"492 626 OFFCURVE",
"521 619 OFFCURVE",
"545 604 CURVE",
"480 194 LINE",
"251 667 LINE",
"97 667 LINE",
"92 630 LINE",
"124 626 OFFCURVE",
"152 619 OFFCURVE",
"177 604 CURVE",
"90 62 LINE",
"62 46 OFFCURVE",
"38 41 OFFCURVE",
"6 37 CURVE",
"0 0 LINE"
);
}
);
width = 671;
},
{
background = {
paths = (
{
closed = 1;
nodes = (
"726 667 LINE",
"508 667 LINE",
"496 626 LINE",
"527 620 OFFCURVE",
"543 613 OFFCURVE",
"560 596 CURVE",
"495 183 LINE",
"296 667 LINE",
"99 667 LINE",
"88 628 LINE",
"113 619 OFFCURVE",
"131 609 OFFCURVE",
"144 596 CURVE",
"61 71 LINE",
"40 53 OFFCURVE",
"26 46 OFFCURVE",
"-1 41 CURVE",
"-11 0 LINE",
"205 0 LINE",
"218 39 LINE",
"185 46 OFFCURVE",
"161 57 OFFCURVE",
"148 71 CURVE",
"210 460 LINE",
"401 0 LINE",
"440 0 LINE",
"439 -57 OFFCURVE",
"439 -169 OFFCURVE",
"376 -169 CURVE SMOOTH",
"356 -169 OFFCURVE",
"347 -155 OFFCURVE",
"347 -139 CURVE SMOOTH",
"347 -124 OFFCURVE",
"355 -108 OFFCURVE",
"368 -97 CURVE",
"359 -80 OFFCURVE",
"343 -72 OFFCURVE",
"326 -72 CURVE SMOOTH",
"284 -72 OFFCURVE",
"252 -102 OFFCURVE",
"252 -143 CURVE SMOOTH",
"252 -193 OFFCURVE",
"305 -218 OFFCURVE",
"363 -218 CURVE SMOOTH",
"413 -218 OFFCURVE",
"472 -200 OFFCURVE",
"502 -161 CURVE SMOOTH",
"528 -127 OFFCURVE",
"541 -80 OFFCURVE",
"548 -33 CURVE SMOOTH",
"647 596 LINE",
"666 610 OFFCURVE",
"687 620 OFFCURVE",
"713 628 CURVE"
);
}
);
};
layerId = "0FAD76F5-9F58-4721-BF81-08BC6166EF10";
paths = (
{
closed = 1;
nodes = (
"210 460 LINE",
"401 0 LINE",
"440 0 LINE",
"439 -57 OFFCURVE",
"439 -169 OFFCURVE",
"376 -169 CURVE SMOOTH",
"356 -169 OFFCURVE",
"347 -155 OFFCURVE",
"347 -139 CURVE SMOOTH",
"347 -124 OFFCURVE",
"355 -108 OFFCURVE",
"368 -97 CURVE",
"359 -80 OFFCURVE",
"343 -72 OFFCURVE",
"326 -72 CURVE SMOOTH",
"284 -72 OFFCURVE",
"252 -102 OFFCURVE",
"252 -143 CURVE SMOOTH",
"252 -193 OFFCURVE",
"305 -218 OFFCURVE",
"363 -218 CURVE SMOOTH",
"413 -218 OFFCURVE",
"472 -200 OFFCURVE",
"502 -161 CURVE SMOOTH",
"528 -127 OFFCURVE",
"541 -80 OFFCURVE",
"548 -33 CURVE SMOOTH",
"647 596 LINE",
"666 613 OFFCURVE",
"683 620 OFFCURVE",
"716 626 CURVE",
"722 667 LINE",
"496 667 LINE",
"490 626 LINE",
"518 622 OFFCURVE",
"545 610 OFFCURVE",
"556 596 CURVE",
"495 183 LINE",
"296 667 LINE",
"84 667 LINE",
"78 626 LINE",
"106 622 OFFCURVE",
"133 610 OFFCURVE",
"144 596 CURVE",
"61 71 LINE",
"42 55 OFFCURVE",
"24 46 OFFCURVE",
"-9 41 CURVE",
"-14 0 LINE",
"211 0 LINE",
"216 41 LINE",
"184 48 OFFCURVE",
"163 57 OFFCURVE",
"148 71 CURVE",
"148 71 LINE"
);
}
);
width = 662;
}
);
unicode = 014A;
},
{
glyphname = Oslash;
lastChange = "2019-08-19 16:07:20 +0000";
layers = (
{
anchors = (
{
name = bottom;
position = "{327, 0}";
},
{
name = top;
position = "{392, 695}";
}
);
layerId = "CF479DE4-94A2-4865-8D1E-65EA355866D4";
paths = (
{
closed = 1;
nodes = (
"165 675 OFFCURVE",
"61 457 OFFCURVE",
"61 234 CURVE SMOOTH",
"61 166 OFFCURVE",
"73 111 OFFCURVE",
"99 71 CURVE",
"40 -4 LINE",
"40 -4 OFFCURVE",
"51 -20 OFFCURVE",
"67 -28 CURVE",
"77 -27 LINE",
"128 38 LINE",
"164 8 OFFCURVE",
"214 -7 OFFCURVE",
"281 -7 CURVE SMOOTH",
"502 -7 OFFCURVE",
"606 210 OFFCURVE",
"606 433 CURVE SMOOTH",
"606 501 OFFCURVE",
"593 555 OFFCURVE",
"567 595 CURVE",
"619 661 LINE",
"619 661 OFFCURVE",
"608 677 OFFCURVE",
"592 685 CURVE",
"582 684 LINE",
"539 629 LINE",
"504 659 OFFCURVE",
"454 675 OFFCURVE",
"387 675 CURVE SMOOTH",
"387 675 LINE"
);
},
{
closed = 1;
nodes = (
"226 40 OFFCURVE",
"195 61 OFFCURVE",
"178 101 CURVE",
"503 514 LINE",
"506 494 OFFCURVE",
"508 471 OFFCURVE",
"508 446 CURVE SMOOTH",
"508 201 OFFCURVE",
"407 40 OFFCURVE",
"274 40 CURVE SMOOTH",
"274 40 LINE"
);
},
{
closed = 1;
nodes = (
"166 473 OFFCURVE",
"262 627 OFFCURVE",
"394 627 CURVE SMOOTH",
"441 627 OFFCURVE",
"472 606 OFFCURVE",
"489 566 CURVE",
"164 153 LINE",
"160 182 OFFCURVE",
"160 209 OFFCURVE",
"160 237 CURVE",
"160 237 LINE"
);
}
);
width = 622;
},
{
anchors = (
{
name = bottom;
position = "{288, 0}";
},
{
name = top;
position = "{380, 705}";
}
);
layerId = "0FAD76F5-9F58-4721-BF81-08BC6166EF10";
paths = (
{
closed = 1;
nodes = (
"41 192 OFFCURVE",
"53 138 OFFCURVE",
"77 96 CURVE",
"2 13 LINE",
"62 -41 LINE",
"131 35 LINE",
"171 5 OFFCURVE",
"225 -10 OFFCURVE",
"293 -10 CURVE SMOOTH",
"535 -10 OFFCURVE",
"654 155 OFFCURVE",
"654 413 CURVE SMOOTH",
"654 477 OFFCURVE",
"642 531 OFFCURVE",
"618 573 CURVE",
"684 646 LINE",
"624 700 LINE",
"564 633 LINE",
"523 663 OFFCURVE",
"470 678 OFFCURVE",
"402 678 CURVE SMOOTH",
"163 678 OFFCURVE",
"41 516 OFFCURVE",
"41 257 CURVE SMOOTH",
"41 257 LINE"
);
},
{
closed = 1;
nodes = (
"445 620 OFFCURVE",
"471 589 OFFCURVE",
"483 544 CURVE",
"201 233 LINE",
"205 367 OFFCURVE",
"266 620 OFFCURVE",
"392 620 CURVE SMOOTH",
"392 620 LINE"
);
},
{
closed = 1;
nodes = (
"249 50 OFFCURVE",
"223 80 OFFCURVE",
"211 123 CURVE",
"493 434 LINE",
"488 300 OFFCURVE",
"427 50 OFFCURVE",
"302 50 CURVE SMOOTH",
"302 50 LINE"
);
}
);
width = 675;
}
);
unicode = 00D8;
},
{
glyphname = OE;
lastChange = "2019-08-19 16:07:20 +0000";
layers = (
{
anchors = (
{
name = top;
position = "{509, 695}";
}
);
layerId = "CF479DE4-94A2-4865-8D1E-65EA355866D4";
paths = (
{
closed = 1;
nodes = (
"790 0 LINE",
"826 169 LINE",
"818 170 OFFCURVE",
"811 171 OFFCURVE",
"805 171 CURVE SMOOTH",
"798 171 OFFCURVE",
"791 170 OFFCURVE",
"785 169 CURVE",
"773 136 OFFCURVE",
"756 92 OFFCURVE",
"725 57 CURVE",
"531 57 LINE",
"572 316 LINE",
"676 312 LINE SMOOTH",
"719 310 OFFCURVE",
"718 262 OFFCURVE",
"722 239 CURVE",
"753 239 LINE",
"784 434 LINE",
"752 434 LINE",
"743 412 OFFCURVE",
"722 371 OFFCURVE",
"687 368 CURVE SMOOTH",
"670 366 OFFCURVE",
"617 364 OFFCURVE",
"580 363 CURVE",
"620 614 LINE",
"804 614 LINE",
"824 583 OFFCURVE",
"828 544 OFFCURVE",
"829 513 CURVE",
"834 512 OFFCURVE",
"839 511 OFFCURVE",
"844 511 CURVE SMOOTH",
"854 511 OFFCURVE",
"864 513 OFFCURVE",
"873 516 CURVE",
"888 667 LINE",
"448 667 LINE",
"426 672 OFFCURVE",
"401 675 OFFCURVE",
"373 675 CURVE SMOOTH",
"151 675 OFFCURVE",
"47 457 OFFCURVE",
"47 234 CURVE SMOOTH",
"47 77 OFFCURVE",
"112 -7 OFFCURVE",
"267 -7 CURVE SMOOTH",
"290 -7 OFFCURVE",
"312 -4 OFFCURVE",
"333 0 CURVE",
"333 0 LINE"
);
},
{
closed = 1;
nodes = (
"178 40 OFFCURVE",
"146 103 OFFCURVE",
"146 216 CURVE SMOOTH",
"146 464 OFFCURVE",
"245 627 OFFCURVE",
"380 627 CURVE SMOOTH",
"463 627 OFFCURVE",
"494 562 OFFCURVE",
"494 446 CURVE SMOOTH",
"494 201 OFFCURVE",
"393 40 OFFCURVE",
"260 40 CURVE SMOOTH",
"260 40 LINE"
);
}
);
width = 896;
},
{
layerId = "0FAD76F5-9F58-4721-BF81-08BC6166EF10";
paths = (
{
closed = 1;
nodes = (
"506 667 LINE",
"479 674 OFFCURVE",
"447 678 OFFCURVE",
"412 678 CURVE SMOOTH",
"173 678 OFFCURVE",
"51 516 OFFCURVE",
"51 257 CURVE SMOOTH",
"51 85 OFFCURVE",
"135 -10 OFFCURVE",
"303 -10 CURVE SMOOTH",
"336 -10 OFFCURVE",
"369 -6 OFFCURVE",
"396 0 CURVE",
"848 0 LINE",
"888 189 LINE",
"877 191 OFFCURVE",
"866 192 OFFCURVE",
"855 192 CURVE SMOOTH",
"840 192 OFFCURVE",
"828 191 OFFCURVE",
"814 189 CURVE",
"795 135 OFFCURVE",
"773 93 OFFCURVE",
"747 62 CURVE",
"572 62 LINE",
"612 318 LINE",
"703 310 LINE SMOOTH",
"726 308 OFFCURVE",
"738 290 OFFCURVE",
"748 236 CURVE",
"800 236 LINE",
"833 443 LINE",
"781 443 LINE",
"765 404 OFFCURVE",
"739 378 OFFCURVE",
"715 376 CURVE SMOOTH",
"620 369 LINE",
"658 606 LINE",
"826 606 LINE",
"842 579 OFFCURVE",
"849 550 OFFCURVE",
"852 499 CURVE",
"863 497 OFFCURVE",
"874 496 OFFCURVE",
"884 496 CURVE SMOOTH",
"898 496 OFFCURVE",
"912 498 OFFCURVE",
"927 502 CURVE",
"949 667 LINE"
);
},
{
closed = 1;
nodes = (
"211 422 OFFCURVE",
"308 620 OFFCURVE",
"403 620 CURVE SMOOTH",
"472 620 OFFCURVE",
"503 567 OFFCURVE",
"503 450 CURVE SMOOTH",
"503 246 OFFCURVE",
"407 48 OFFCURVE",
"313 48 CURVE SMOOTH",
"243 48 OFFCURVE",
"211 101 OFFCURVE",
"211 220 CURVE SMOOTH",
"211 220 LINE"
);
}
);
width = 917;
}
);
unicode = 0152;
},
{
glyphname = Tbar;
lastChange = "2019-08-19 16:07:20 +0000";
layers = (
{
background = {
paths = (
{
closed = 1;
nodes = (
"118 301 LINE",
"468 301 LINE",
"477 355 LINE",
"126 355 LINE"
);
}
);
};
components = (
{
name = T;
}
);
layerId = "CF479DE4-94A2-4865-8D1E-65EA355866D4";
paths = (
{
closed = 1;
nodes = (
"468 306 LINE",
"475 350 LINE",
"126 350 LINE",
"119 306 LINE"
);
}
);
width = 574;
},
{
background = {
paths = (
{
closed = 1;
nodes = (
"117 297 LINE",
"239 297 LINE",
"203 71 LINE",
"181 54 OFFCURVE",
"158 45 OFFCURVE",
"126 41 CURVE",
"116 0 LINE",
"407 0 LINE",
"420 41 LINE",
"385 48 OFFCURVE",
"362 58 OFFCURVE",
"350 71 CURVE",
"386 297 LINE",
"508 297 LINE",
"518 360 LINE",
"396 360 LINE",
"435 606 LINE",
"474 605 OFFCURVE",
"507 602 OFFCURVE",
"537 598 CURVE",
"547 575 OFFCURVE",
"555 540 OFFCURVE",
"555 502 CURVE SMOOTH",
"555 496 OFFCURVE",
"554 489 OFFCURVE",
"554 483 CURVE",
"566 481 OFFCURVE",
"578 480 OFFCURVE",
"590 480 CURVE SMOOTH",
"601 480 OFFCURVE",
"612 481 OFFCURVE",
"623 483 CURVE",
"653 671 LINE",
"639 670 OFFCURVE",
"452 667 OFFCURVE",
"371 667 CURVE SMOOTH",
"237 667 OFFCURVE",
"90 671 OFFCURVE",
"90 671 CURVE",
"60 483 LINE",
"71 481 OFFCURVE",
"82 480 OFFCURVE",
"93 480 CURVE SMOOTH",
"105 480 OFFCURVE",
"117 481 OFFCURVE",
"129 483 CURVE",
"137 522 OFFCURVE",
"160 570 OFFCURVE",
"186 599 CURVE",
"215 601 OFFCURVE",
"249 604 OFFCURVE",
"288 605 CURVE",
"249 360 LINE",
"127 360 LINE"
);
}
);
};
components = (
{
name = T;
transform = "{1, 0, 0, 1, 1, 0}";
}
);
layerId = "0FAD76F5-9F58-4721-BF81-08BC6166EF10";
paths = (
{
closed = 1;
nodes = (
"502 294 LINE",
"513 362 LINE",
"129 362 LINE",
"118 294 LINE"
);
}
);
width = 603;
}
);
unicode = 0166;
},
{
glyphname = Thorn;
lastChange = "2019-08-19 16:07:20 +0000";
layers = (
{
layerId = "CF479DE4-94A2-4865-8D1E-65EA355866D4";
paths = (
{
closed = 1;
nodes = (
"271 0 LINE",
"276 37 LINE",
"244 41 OFFCURVE",
"213 47 OFFCURVE",
"186 63 CURVE",
"202 167 LINE",
"244 167 LINE SMOOTH",
"411 167 OFFCURVE",
"539 215 OFFCURVE",
"539 390 CURVE SMOOTH",
"539 479 OFFCURVE",
"480 531 OFFCURVE",
"346 531 CURVE SMOOTH",
"260 531 LINE",
"272 604 LINE",
"300 620 OFFCURVE",
"325 626 OFFCURVE",
"357 630 CURVE",
"362 667 LINE",
"103 667 LINE",
"98 630 LINE",
"131 626 OFFCURVE",
"159 619 OFFCURVE",
"184 604 CURVE",
"97 63 LINE",
"69 46 OFFCURVE",
"44 41 OFFCURVE",
"12 37 CURVE",
"7 0 LINE"
);
},
{
closed = 1;
nodes = (
"409 489 OFFCURVE",
"449 456 OFFCURVE",
"449 388 CURVE SMOOTH",
"449 264 OFFCURVE",
"366 212 OFFCURVE",
"251 212 CURVE SMOOTH",
"209 212 LINE",
"252 481 LINE",
"271 483 OFFCURVE",
"295 489 OFFCURVE",
"340 489 CURVE SMOOTH",
"340 489 LINE"
);
}
);
width = 560;
},
{
background = {
paths = (
{
closed = 1;
nodes = (
"284 39 LINE",
"250 46 OFFCURVE",
"226 57 OFFCURVE",
"214 71 CURVE",
"227 153 LINE",
"241 152 OFFCURVE",
"271 150 OFFCURVE",
"291 150 CURVE SMOOTH",
"479 150 OFFCURVE",
"601 234 OFFCURVE",
"601 386 CURVE SMOOTH",
"601 487 OFFCURVE",
"523 537 OFFCURVE",
"366 537 CURVE SMOOTH",
"284 537 LINE",
"293 596 LINE",
"316 613 OFFCURVE",
"334 620 OFFCURVE",
"367 626 CURVE",
"380 667 LINE",
"105 667 LINE",
"94 628 LINE",
"122 618 OFFCURVE",
"139 608 OFFCURVE",
"150 596 CURVE",
"67 71 LINE",
"46 53 OFFCURVE",
"31 46 OFFCURVE",
"5 41 CURVE",
"-5 0 LINE",
"271 0 LINE"
);
},
{
closed = 1;
nodes = (
"445 275 OFFCURVE",
"396 213 OFFCURVE",
"302 213 CURVE SMOOTH",
"237 213 LINE",
"278 472 LINE",
"297 475 OFFCURVE",
"315 476 OFFCURVE",
"343 476 CURVE SMOOTH",
"409 476 OFFCURVE",
"445 439 OFFCURVE",
"445 374 CURVE SMOOTH"
);
}
);
};
layerId = "0FAD76F5-9F58-4721-BF81-08BC6166EF10";
paths = (
{
closed = 1;
nodes = (
"217 153 LINE",
"231 152 OFFCURVE",
"271 150 OFFCURVE",
"291 150 CURVE SMOOTH",
"479 150 OFFCURVE",
"601 234 OFFCURVE",
"601 386 CURVE SMOOTH",
"601 487 OFFCURVE",
"523 537 OFFCURVE",
"366 537 CURVE SMOOTH",
"274 537 LINE",
"268 472 LINE",
"287 475 OFFCURVE",
"315 476 OFFCURVE",
"343 476 CURVE SMOOTH",
"409 476 OFFCURVE",
"445 439 OFFCURVE",
"445 374 CURVE SMOOTH",
"445 275 OFFCURVE",
"396 213 OFFCURVE",
"302 213 CURVE SMOOTH",
"227 213 LINE"
);
},
{
closed = 1;
nodes = (
"112 622 OFFCURVE",
"139 610 OFFCURVE",
"150 596 CURVE",
"67 71 LINE",
"46 55 OFFCURVE",
"28 46 OFFCURVE",
"-5 41 CURVE",
"-10 0 LINE",
"276 0 LINE",
"281 41 LINE",
"249 48 OFFCURVE",
"227 57 OFFCURVE",
"214 71 CURVE",
"297 596 LINE",
"320 613 OFFCURVE",
"337 620 OFFCURVE",
"370 626 CURVE",
"376 667 LINE",
"90 667 LINE",
"84 626 LINE"
);
}
);
width = 601;
}
);
unicode = 00DE;
},
{
glyphname = aogonek;
lastChange = "2019-08-19 16:07:20 +0000";
layers = (
{
layerId = "CF479DE4-94A2-4865-8D1E-65EA355866D4";
paths = (
{
closed = 1;
nodes = (
"306 16 OFFCURVE",
"312 -6 OFFCURVE",
"359 -7 CURVE",
"325 -47 OFFCURVE",
"277 -90 OFFCURVE",
"277 -145 CURVE SMOOTH",
"277 -186 OFFCURVE",
"298 -204 OFFCURVE",
"335 -204 CURVE SMOOTH",
"374 -204 OFFCURVE",
"411 -186 OFFCURVE",
"439 -165 CURVE",
"422 -137 LINE",
"403 -147 OFFCURVE",
"377 -154 OFFCURVE",
"364 -154 CURVE SMOOTH",
"347 -154 OFFCURVE",
"338 -143 OFFCURVE",
"338 -125 CURVE SMOOTH",
"338 -68 OFFCURVE",
"402 0 OFFCURVE",
"476 49 CURVE",
"466 81 LINE",
"461 78 OFFCURVE",
"433 62 OFFCURVE",
"415 62 CURVE SMOOTH",
"401 62 OFFCURVE",
"394 66 OFFCURVE",
"394 77 CURVE SMOOTH",
"394 79 OFFCURVE",
"394 81 OFFCURVE",
"395 84 CURVE SMOOTH",
"458 474 LINE",
"458 474 OFFCURVE",
"444 476 OFFCURVE",
"427 476 CURVE SMOOTH",
"402 476 OFFCURVE",
"386 463 OFFCURVE",
"376 452 CURVE",
"329 474 OFFCURVE",
"290 476 OFFCURVE",
"262 476 CURVE SMOOTH",
"121 476 OFFCURVE",
"40 313 OFFCURVE",
"40 172 CURVE SMOOTH",
"40 69 OFFCURVE",
"65 -7 OFFCURVE",
"167 -7 CURVE SMOOTH",
"231 -7 OFFCURVE",
"283 52 OFFCURVE",
"314 98 CURVE",
"309 72 OFFCURVE",
"306 53 OFFCURVE",
"306 45 CURVE SMOOTH",
"306 45 LINE"
);
},
{
closed = 1;
nodes = (
"146 45 OFFCURVE",
"129 101 OFFCURVE",
"129 171 CURVE SMOOTH",
"129 280 OFFCURVE",
"191 431 OFFCURVE",
"285 431 CURVE SMOOTH",
"314 431 OFFCURVE",
"340 419 OFFCURVE",
"360 406 CURVE",
"343 301 LINE SMOOTH",
"318 145 OFFCURVE",
"245 45 OFFCURVE",
"193 45 CURVE SMOOTH",
"193 45 LINE"
);
}
);
width = 526;
},
{
background = {
paths = (
{
closed = 1;
nodes = (
"399 8 LINE",
"353 -35 OFFCURVE",
"283 -78 OFFCURVE",
"283 -132 CURVE SMOOTH",
"283 -178 OFFCURVE",
"320 -204 OFFCURVE",
"365 -204 CURVE SMOOTH",
"404 -204 OFFCURVE",
"446 -188 OFFCURVE",
"477 -157 CURVE",
"457 -122 LINE",
"443 -132 OFFCURVE",
"420 -144 OFFCURVE",
"403 -144 CURVE SMOOTH",
"390 -144 OFFCURVE",
"380 -136 OFFCURVE",
"380 -115 CURVE SMOOTH",
"380 -75 OFFCURVE",
"416 -20 OFFCURVE",
"480 0 CURVE"
);
},
{
closed = 1;
nodes = (
"-102 16 OFFCURVE",
"-96 -6 OFFCURVE",
"-49 -7 CURVE",
"-83 -47 OFFCURVE",
"-131 -90 OFFCURVE",
"-131 -145 CURVE SMOOTH",
"-131 -186 OFFCURVE",
"-110 -204 OFFCURVE",
"-73 -204 CURVE SMOOTH",
"-34 -204 OFFCURVE",
"3 -186 OFFCURVE",
"31 -165 CURVE",
"14 -137 LINE",
"-5 -147 OFFCURVE",
"-31 -154 OFFCURVE",
"-44 -154 CURVE SMOOTH",
"-61 -154 OFFCURVE",
"-70 -143 OFFCURVE",
"-70 -125 CURVE SMOOTH",
"-70 -68 OFFCURVE",
"-6 0 OFFCURVE",
"68 49 CURVE",
"58 81 LINE",
"53 78 OFFCURVE",
"25 62 OFFCURVE",
"7 62 CURVE SMOOTH",
"-7 62 OFFCURVE",
"-14 66 OFFCURVE",
"-14 77 CURVE SMOOTH",
"-14 79 OFFCURVE",
"-14 81 OFFCURVE",
"-13 84 CURVE SMOOTH",
"50 474 LINE",
"50 474 OFFCURVE",
"36 476 OFFCURVE",
"19 476 CURVE SMOOTH",
"-6 476 OFFCURVE",
"-22 463 OFFCURVE",
"-32 452 CURVE",
"-79 474 OFFCURVE",
"-118 476 OFFCURVE",
"-146 476 CURVE SMOOTH",
"-287 476 OFFCURVE",
"-368 313 OFFCURVE",
"-368 172 CURVE SMOOTH",
"-368 69 OFFCURVE",
"-343 -7 OFFCURVE",
"-241 -7 CURVE SMOOTH",
"-177 -7 OFFCURVE",
"-125 52 OFFCURVE",
"-94 98 CURVE",
"-99 72 OFFCURVE",
"-102 53 OFFCURVE",
"-102 45 CURVE SMOOTH"
);
}
);
};
layerId = "0FAD76F5-9F58-4721-BF81-08BC6166EF10";
paths = (
{
closed = 1;
nodes = (
"353 -35 OFFCURVE",
"283 -78 OFFCURVE",
"283 -132 CURVE SMOOTH",
"283 -178 OFFCURVE",
"320 -204 OFFCURVE",
"365 -204 CURVE SMOOTH",
"404 -204 OFFCURVE",
"446 -188 OFFCURVE",
"477 -157 CURVE",
"457 -122 LINE",
"443 -132 OFFCURVE",
"420 -144 OFFCURVE",
"403 -144 CURVE SMOOTH",
"390 -144 OFFCURVE",
"380 -136 OFFCURVE",
"380 -115 CURVE SMOOTH",
"380 -43 OFFCURVE",
"484 21 OFFCURVE",
"548 46 CURVE",
"399 8 LINE"
);
},
{
closed = 1;
nodes = (
"519 490 OFFCURVE",
"508 491 OFFCURVE",
"497 491 CURVE SMOOTH",
"461 491 OFFCURVE",
"434 484 OFFCURVE",
"413 472 CURVE",
"379 484 OFFCURVE",
"346 492 OFFCURVE",
"309 492 CURVE SMOOTH",
"158 492 OFFCURVE",
"37 395 OFFCURVE",
"37 181 CURVE SMOOTH",
"37 49 OFFCURVE",
"113 -11 OFFCURVE",
"196 -11 CURVE SMOOTH",
"256 -11 OFFCURVE",
"297 15 OFFCURVE",
"326 56 CURVE",
"331 19 OFFCURVE",
"351 -6 OFFCURVE",
"406 -6 CURVE",
"548 46 LINE",
"535 84 LINE",
"519 74 OFFCURVE",
"500 69 OFFCURVE",
"488 69 CURVE SMOOTH",
"473 69 OFFCURVE",
"467 76 OFFCURVE",
"467 93 CURVE SMOOTH",
"467 115 OFFCURVE",
"529 488 OFFCURVE",
"529 489 CURVE",
"529 489 LINE"
);
},
{
closed = 1;
nodes = (
"195 50 OFFCURVE",
"181 112 OFFCURVE",
"181 182 CURVE SMOOTH",
"181 358 OFFCURVE",
"252 443 OFFCURVE",
"332 443 CURVE SMOOTH",
"349 443 OFFCURVE",
"364 440 OFFCURVE",
"380 434 CURVE",
"348 249 LINE SMOOTH",
"327 127 OFFCURVE",
"290 50 OFFCURVE",
"241 50 CURVE SMOOTH",
"241 50 LINE"
);
}
);
width = 570;
}
);
unicode = 0105;
},
{
glyphname = aringacute;
lastChange = "2019-08-19 16:07:20 +0000";
layers = (
{
components = (
{
name = a;
}
);
layerId = "CF479DE4-94A2-4865-8D1E-65EA355866D4";
paths = (
{
closed = 1;
nodes = (
"380 716 LINE SMOOTH",
"402 727 OFFCURVE",
"421 736 OFFCURVE",
"421 756 CURVE SMOOTH",
"421 773 OFFCURVE",
"410 786 OFFCURVE",
"390 786 CURVE SMOOTH",
"378 786 OFFCURVE",
"367 781 OFFCURVE",
"350 767 CURVE SMOOTH",
"243 680 LINE",
"261 655 LINE"
);
},
{
closed = 1;
nodes = (
"353 505 OFFCURVE",
"396 547 OFFCURVE",
"396 600 CURVE SMOOTH",
"396 639 OFFCURVE",
"368 666 OFFCURVE",
"323 666 CURVE SMOOTH",
"268 666 OFFCURVE",
"224 625 OFFCURVE",
"224 571 CURVE SMOOTH",
"224 532 OFFCURVE",
"250 505 OFFCURVE",
"297 505 CURVE SMOOTH",
"297 505 LINE"
);
},
{
closed = 1;
nodes = (
"281 544 OFFCURVE",
"266 560 OFFCURVE",
"266 579 CURVE SMOOTH",
"266 604 OFFCURVE",
"292 628 OFFCURVE",
"317 628 CURVE SMOOTH",
"339 628 OFFCURVE",
"354 612 OFFCURVE",
"354 592 CURVE SMOOTH",
"354 567 OFFCURVE",
"330 544 OFFCURVE",
"304 544 CURVE SMOOTH",
"304 544 LINE"
);
}
);
width = 526;
},
{
components = (
{
name = a;
},
{
name = ring;
transform = "{1, 0, 0, 1, 152, -24}";
},
{
name = acute;
transform = "{1, 0, 0, 1, 195, 173}";
}
);
layerId = "0FAD76F5-9F58-4721-BF81-08BC6166EF10";
width = 570;
}
);
unicode = 01FB;
},
{
glyphname = ae;
lastChange = "2019-08-19 16:07:20 +0000";
layers = (
{
anchors = (
{
name = bottom;
position = "{381, 0}";
},
{
name = top;
position = "{381, 505}";
}
);
layerId = "CF479DE4-94A2-4865-8D1E-65EA355866D4";
paths = (
{
closed = 1;
nodes = (
"153 476 OFFCURVE",
"72 427 OFFCURVE",
"72 352 CURVE SMOOTH",
"72 320 OFFCURVE",
"96 305 OFFCURVE",
"122 305 CURVE SMOOTH",
"151 305 OFFCURVE",
"183 323 OFFCURVE",
"186 354 CURVE",
"170 360 OFFCURVE",
"162 372 OFFCURVE",
"162 386 CURVE SMOOTH",
"162 417 OFFCURVE",
"198 436 OFFCURVE",
"252 436 CURVE SMOOTH",
"304 436 OFFCURVE",
"329 415 OFFCURVE",
"329 369 CURVE SMOOTH",
"329 360 OFFCURVE",
"328 351 OFFCURVE",
"326 340 CURVE SMOOTH",
"314 262 LINE",
"231 256 LINE SMOOTH",
"101 246 OFFCURVE",
"18 185 OFFCURVE",
"18 95 CURVE SMOOTH",
"18 26 OFFCURVE",
"59 -7 OFFCURVE",
"132 -7 CURVE SMOOTH",
"208 -7 OFFCURVE",
"254 7 OFFCURVE",
"327 64 CURVE",
"350 23 OFFCURVE",
"393 -7 OFFCURVE",
"465 -7 CURVE SMOOTH",
"545 -7 OFFCURVE",
"615 33 OFFCURVE",
"651 69 CURVE",
"622 106 LINE",
"594 85 OFFCURVE",
"537 45 OFFCURVE",
"485 45 CURVE SMOOTH",
"433 45 OFFCURVE",
"396 84 OFFCURVE",
"396 172 CURVE SMOOTH",
"396 185 OFFCURVE",
"396 197 OFFCURVE",
"397 210 CURVE",
"404 210 LINE SMOOTH",
"569 210 OFFCURVE",
"688 283 OFFCURVE",
"688 370 CURVE SMOOTH",
"688 424 OFFCURVE",
"647 476 OFFCURVE",
"551 476 CURVE SMOOTH",
"492 476 OFFCURVE",
"440 455 OFFCURVE",
"400 417 CURVE",
"378 455 OFFCURVE",
"329 476 OFFCURVE",
"259 476 CURVE SMOOTH",
"259 476 LINE"
);
},
{
closed = 1;
nodes = (
"307 214 LINE",
"288 103 LINE",
"238 62 OFFCURVE",
"202 45 OFFCURVE",
"164 45 CURVE SMOOTH",
"126 45 OFFCURVE",
"108 63 OFFCURVE",
"108 101 CURVE SMOOTH",
"108 167 OFFCURVE",
"166 201 OFFCURVE",
"226 207 CURVE",
"226 207 LINE"
);
},
{
closed = 1;
nodes = (
"582 430 OFFCURVE",
"600 402 OFFCURVE",
"600 372 CURVE SMOOTH",
"600 308 OFFCURVE",
"525 259 OFFCURVE",
"409 259 CURVE SMOOTH",
"404 259 LINE",
"422 356 OFFCURVE",
"472 430 OFFCURVE",
"544 430 CURVE SMOOTH",
"544 430 LINE"
);
}
);
width = 709;
},
{
anchors = (
{
name = bottom;
position = "{354, 0}";
},
{
name = top;
position = "{444, 515}";
}
);
layerId = "0FAD76F5-9F58-4721-BF81-08BC6166EF10";
paths = (
{
closed = 1;
nodes = (
"633 210 OFFCURVE",
"751 275 OFFCURVE",
"751 384 CURVE SMOOTH",
"751 446 OFFCURVE",
"701 492 OFFCURVE",
"601 492 CURVE SMOOTH",
"531 492 OFFCURVE",
"474 474 OFFCURVE",
"429 443 CURVE",
"402 475 OFFCURVE",
"353 492 OFFCURVE",
"282 492 CURVE SMOOTH",
"159 492 OFFCURVE",
"73 444 OFFCURVE",
"73 365 CURVE SMOOTH",
"73 324 OFFCURVE",
"104 306 OFFCURVE",
"137 306 CURVE SMOOTH",
"172 306 OFFCURVE",
"210 326 OFFCURVE",
"218 360 CURVE",
"208 369 OFFCURVE",
"202 381 OFFCURVE",
"202 394 CURVE SMOOTH",
"202 426 OFFCURVE",
"239 448 OFFCURVE",
"274 448 CURVE SMOOTH",
"306 448 OFFCURVE",
"336 430 OFFCURVE",
"336 387 CURVE SMOOTH",
"336 371 OFFCURVE",
"334 352 OFFCURVE",
"330 329 CURVE SMOOTH",
"321 276 LINE",
"232 270 LINE SMOOTH",
"91 260 OFFCURVE",
"10 196 OFFCURVE",
"10 103 CURVE SMOOTH",
"10 28 OFFCURVE",
"62 -7 OFFCURVE",
"145 -7 CURVE SMOOTH",
"233 -7 OFFCURVE",
"303 25 OFFCURVE",
"353 62 CURVE",
"389 15 OFFCURVE",
"447 -7 OFFCURVE",
"511 -7 CURVE SMOOTH",
"586 -7 OFFCURVE",
"669 23 OFFCURVE",
"734 78 CURVE",
"701 117 LINE",
"662 85 OFFCURVE",
"602 62 OFFCURVE",
"550 62 CURVE SMOOTH",
"497 62 OFFCURVE",
"454 88 OFFCURVE",
"454 160 CURVE SMOOTH",
"454 175 OFFCURVE",
"455 192 OFFCURVE",
"458 210 CURVE",
"469 210 LINE"
);
},
{
closed = 1;
nodes = (
"313 217 LINE",
"296 103 LINE",
"257 71 OFFCURVE",
"224 58 OFFCURVE",
"194 58 CURVE SMOOTH",
"162 58 OFFCURVE",
"144 76 OFFCURVE",
"144 109 CURVE SMOOTH",
"144 179 OFFCURVE",
"199 208 OFFCURVE",
"263 213 CURVE",
"263 213 LINE"
);
},
{
closed = 1;
nodes = (
"615 443 OFFCURVE",
"626 422 OFFCURVE",
"626 390 CURVE SMOOTH",
"626 319 OFFCURVE",
"536 272 OFFCURVE",
"467 268 CURVE",
"489 379 OFFCURVE",
"534 443 OFFCURVE",
"583 443 CURVE SMOOTH",
"583 443 LINE"
);
}
);
width = 751;
}
);
unicode = 00E6;
},
{
glyphname = cdotaccent;
lastChange = "2019-08-19 16:07:20 +0000";
layers = (
{
background = {
paths = (
{
closed = 1;
nodes = (
"326 531 OFFCURVE",
"350 558 OFFCURVE",
"350 602 CURVE SMOOTH",
"350 629 OFFCURVE",
"333 647 OFFCURVE",
"304 647 CURVE SMOOTH",
"268 647 OFFCURVE",
"244 620 OFFCURVE",
"244 576 CURVE SMOOTH",
"244 548 OFFCURVE",
"261 531 OFFCURVE",
"290 531 CURVE SMOOTH"
);
}
);
};
components = (
{
name = c;
},
{
name = dotaccent;
transform = "{1, 0, 0, 1, 150, -9}";
}
);
layerId = "CF479DE4-94A2-4865-8D1E-65EA355866D4";
width = 433;
},
{
background = {
paths = (
{
closed = 1;
nodes = (
"310 550 OFFCURVE",
"335 572 OFFCURVE",
"335 612 CURVE SMOOTH",
"335 651 OFFCURVE",
"310 673 OFFCURVE",
"263 673 CURVE SMOOTH",
"214 673 OFFCURVE",
"193 651 OFFCURVE",
"193 612 CURVE SMOOTH",
"193 572 OFFCURVE",
"214 550 OFFCURVE",
"263 550 CURVE SMOOTH"
);
}
);
};
components = (
{
name = c;
},
{
name = dotaccent;
transform = "{1, 0, 0, 1, 150, 0}";
}
);
layerId = "0FAD76F5-9F58-4721-BF81-08BC6166EF10";
width = 452;
}
);
unicode = 010B;
},
{
glyphname = dcaron;
lastChange = "2019-08-19 16:07:20 +0000";
layers = (
{
components = (
{
name = d;
},
{
name = commaaccent;
transform = "{1, 0, 0, 1, 470, 700}";
}
);
layerId = "CF479DE4-94A2-4865-8D1E-65EA355866D4";
width = 637;
},
{
background = {
paths = (
{
closed = 1;
nodes = (
"524 35 LINE",
"500 40 OFFCURVE",
"478 52 OFFCURVE",
"469 62 CURVE",
"568 687 LINE",
"552 697 LINE",
"511 686 OFFCURVE",
"401 671 OFFCURVE",
"356 663 CURVE",
"347 624 LINE",
"398 622 OFFCURVE",
"414 608 OFFCURVE",
"406 558 CURVE SMOOTH",
"392 468 LINE",
"365 483 OFFCURVE",
"340 492 OFFCURVE",
"297 492 CURVE SMOOTH",
"157 492 OFFCURVE",
"61 401 OFFCURVE",
"34 229 CURVE SMOOTH",
"9 73 OFFCURVE",
"63 -7 OFFCURVE",
"181 -7 CURVE SMOOTH",
"246 -7 OFFCURVE",
"296 17 OFFCURVE",
"332 65 CURVE",
"335 0 LINE",
"515 0 LINE"
);
},
{
closed = 1;
nodes = (
"355 234 LINE SMOOTH",
"336 114 OFFCURVE",
"294 53 OFFCURVE",
"235 53 CURVE SMOOTH",
"178 53 OFFCURVE",
"161 109 OFFCURVE",
"180 229 CURVE SMOOTH",
"202 364 OFFCURVE",
"247 438 OFFCURVE",
"322 438 CURVE SMOOTH",
"348 438 OFFCURVE",
"372 429 OFFCURVE",
"384 419 CURVE"
);
},
{
closed = 1;
nodes = (
"644 479 LINE",
"688 528 OFFCURVE",
"720 580 OFFCURVE",
"725 616 CURVE SMOOTH",
"730 646 OFFCURVE",
"709 667 OFFCURVE",
"676 667 CURVE SMOOTH",
"656 667 OFFCURVE",
"632 656 OFFCURVE",
"619 641 CURVE",
"633 627 OFFCURVE",
"637 611 OFFCURVE",
"633 587 CURVE SMOOTH",
"629 563 OFFCURVE",
"618 531 OFFCURVE",
"602 498 CURVE"
);
}
);
};
components = (
{
name = d;
transform = "{1, 0, 0, 1, -8, 0}";
},
{
name = commaaccent;
transform = "{1, 0, 0, 1, 578, 696}";
}
);
layerId = "0FAD76F5-9F58-4721-BF81-08BC6166EF10";
width = 702;
}
);
unicode = 010F;
},
{
glyphname = dcroat;
lastChange = "2019-08-19 16:07:20 +0000";
layers = (
{
components = (
{
name = d;
},
{
name = macron;
transform = "{1, 0, 0, 1, 254, -45}";
}
);
layerId = "CF479DE4-94A2-4865-8D1E-65EA355866D4";
width = 524;
},
{
background = {
paths = (
{
closed = 1;
nodes = (
"295 519 LINE",
"408 519 LINE",
"400 468 LINE",
"373 483 OFFCURVE",
"348 492 OFFCURVE",
"305 492 CURVE SMOOTH",
"138 492 OFFCURVE",
"36 372 OFFCURVE",
"36 172 CURVE SMOOTH",
"36 55 OFFCURVE",
"90 -7 OFFCURVE",
"189 -7 CURVE SMOOTH",
"244 -7 OFFCURVE",
"307 16 OFFCURVE",
"340 73 CURVE",
"342 24 OFFCURVE",
"365 -5 OFFCURVE",
"424 -5 CURVE SMOOTH",
"471 -5 OFFCURVE",
"538 23 OFFCURVE",
"564 49 CURVE",
"551 85 LINE",
"533 75 OFFCURVE",
"517 69 OFFCURVE",
"505 69 CURVE SMOOTH",
"491 69 OFFCURVE",
"483 77 OFFCURVE",
"483 93 CURVE SMOOTH",
"483 96 OFFCURVE",
"484 110 OFFCURVE",
"487 129 CURVE SMOOTH",
"549 519 LINE",
"601 519 LINE",
"611 579 LINE",
"559 579 LINE",
"575 682 LINE",
"547 696 LINE",
"492 695 OFFCURVE",
"402 681 OFFCURVE",
"352 660 CURVE",
"355 621 LINE",
"362 622 OFFCURVE",
"369 623 OFFCURVE",
"375 623 CURVE SMOOTH",
"403 623 OFFCURVE",
"415 609 OFFCURVE",
"415 579 CURVE",
"305 579 LINE"
);
},
{
closed = 1;
nodes = (
"363 234 LINE SMOOTH",
"344 114 OFFCURVE",
"302 53 OFFCURVE",
"243 53 CURVE SMOOTH",
"201 53 OFFCURVE",
"181 90 OFFCURVE",
"181 163 CURVE SMOOTH",
"181 300 OFFCURVE",
"221 438 OFFCURVE",
"330 438 CURVE SMOOTH",
"356 438 OFFCURVE",
"380 429 OFFCURVE",
"392 419 CURVE"
);
}
);
};
components = (
{
name = d;
},
{
name = macron;
transform = "{1, 0, 0, 1, 209, -65}";
}
);
layerId = "0FAD76F5-9F58-4721-BF81-08BC6166EF10";
width = 570;
}
);
unicode = 0111;
},
{
glyphname = eogonek;
lastChange = "2019-08-19 16:07:20 +0000";
layers = (
{
layerId = "CF479DE4-94A2-4865-8D1E-65EA355866D4";
paths = (
{
closed = 1;
nodes = (
"164 -181 OFFCURVE",
"185 -204 OFFCURVE",
"222 -204 CURVE SMOOTH",
"261 -204 OFFCURVE",
"298 -186 OFFCURVE",
"326 -165 CURVE",
"309 -137 LINE",
"290 -147 OFFCURVE",
"264 -154 OFFCURVE",
"251 -154 CURVE SMOOTH",
"234 -154 OFFCURVE",
"225 -143 OFFCURVE",
"225 -125 CURVE SMOOTH",
"225 -59 OFFCURVE",
"309 16 OFFCURVE",
"386 69 CURVE",
"357 106 LINE",
"329 85 OFFCURVE",
"272 45 OFFCURVE",
"220 45 CURVE SMOOTH",
"168 45 OFFCURVE",
"131 84 OFFCURVE",
"131 172 CURVE SMOOTH",
"131 195 LINE",
"300 195 OFFCURVE",
"423 271 OFFCURVE",
"423 370 CURVE SMOOTH",
"423 424 OFFCURVE",
"382 476 OFFCURVE",
"286 476 CURVE SMOOTH",
"141 476 OFFCURVE",
"40 350 OFFCURVE",
"40 157 CURVE SMOOTH",
"40 79 OFFCURVE",
"80 -7 OFFCURVE",
"200 -7 CURVE SMOOTH",
"217 -7 OFFCURVE",
"235 -5 OFFCURVE",
"251 -1 CURVE",
"216 -36 OFFCURVE",
"164 -88 OFFCURVE",
"164 -140 CURVE SMOOTH",
"164 -140 LINE"
);
},
{
closed = 1;
nodes = (
"317 430 OFFCURVE",
"335 402 OFFCURVE",
"335 372 CURVE SMOOTH",
"335 297 OFFCURVE",
"256 244 OFFCURVE",
"136 244 CURVE",
"152 349 OFFCURVE",
"203 430 OFFCURVE",
"279 430 CURVE SMOOTH",
"279 430 LINE"
);
}
);
width = 457;
},
{
background = {
paths = (
{
closed = 1;
nodes = (
"181 210 LINE SMOOTH",
"363 210 OFFCURVE",
"478 280 OFFCURVE",
"478 392 CURVE SMOOTH",
"478 452 OFFCURVE",
"412 492 OFFCURVE",
"313 492 CURVE SMOOTH",
"137 492 OFFCURVE",
"27 375 OFFCURVE",
"27 189 CURVE SMOOTH",
"27 69 OFFCURVE",
"103 -7 OFFCURVE",
"223 -7 CURVE SMOOTH",
"300 -7 OFFCURVE",
"382 24 OFFCURVE",
"446 78 CURVE",
"413 117 LINE",
"372 84 OFFCURVE",
"312 62 OFFCURVE",
"262 62 CURVE SMOOTH",
"200 62 OFFCURVE",
"166 97 OFFCURVE",
"166 160 CURVE SMOOTH",
"166 173 OFFCURVE",
"167 188 OFFCURVE",
"170 210 CURVE"
);
},
{
closed = 1;
nodes = (
"335 443 OFFCURVE",
"353 425 OFFCURVE",
"353 390 CURVE SMOOTH",
"353 324 OFFCURVE",
"269 271 OFFCURVE",
"179 268 CURVE",
"200 378 OFFCURVE",
"231 443 OFFCURVE",
"301 443 CURVE SMOOTH"
);
},
{
closed = 1;
nodes = (
"305 8 LINE",
"259 -35 OFFCURVE",
"189 -78 OFFCURVE",
"189 -132 CURVE SMOOTH",
"189 -178 OFFCURVE",
"226 -204 OFFCURVE",
"271 -204 CURVE SMOOTH",
"310 -204 OFFCURVE",
"352 -188 OFFCURVE",
"383 -157 CURVE",
"363 -122 LINE",
"349 -132 OFFCURVE",
"326 -144 OFFCURVE",
"309 -144 CURVE SMOOTH",
"296 -144 OFFCURVE",
"286 -136 OFFCURVE",
"286 -115 CURVE SMOOTH",
"286 -75 OFFCURVE",
"322 -20 OFFCURVE",
"386 0 CURVE"
);
}
);
};
layerId = "0FAD76F5-9F58-4721-BF81-08BC6166EF10";
paths = (
{
closed = 1;
nodes = (
"335 443 OFFCURVE",
"353 425 OFFCURVE",
"353 390 CURVE SMOOTH",
"353 324 OFFCURVE",
"269 271 OFFCURVE",
"179 268 CURVE",
"200 378 OFFCURVE",
"231 443 OFFCURVE",
"301 443 CURVE SMOOTH",
"301 443 LINE"
);
},
{
closed = 1;
nodes = (
"363 210 OFFCURVE",
"478 280 OFFCURVE",
"478 392 CURVE SMOOTH",
"478 452 OFFCURVE",
"412 492 OFFCURVE",
"313 492 CURVE SMOOTH",
"137 492 OFFCURVE",
"27 375 OFFCURVE",
"27 189 CURVE SMOOTH",
"27 69 OFFCURVE",
"103 -7 OFFCURVE",
"223 -7 CURVE SMOOTH",
"248 -7 OFFCURVE",
"273 -4 OFFCURVE",
"299 2 CURVE",
"253 -38 OFFCURVE",
"189 -80 OFFCURVE",
"189 -132 CURVE SMOOTH",
"189 -178 OFFCURVE",
"226 -204 OFFCURVE",
"271 -204 CURVE SMOOTH",
"310 -204 OFFCURVE",
"352 -188 OFFCURVE",
"383 -157 CURVE",
"363 -122 LINE",
"349 -132 OFFCURVE",
"326 -144 OFFCURVE",
"309 -144 CURVE SMOOTH",
"296 -144 OFFCURVE",
"286 -136 OFFCURVE",
"286 -115 CURVE SMOOTH",
"286 -65 OFFCURVE",
"346 7 OFFCURVE",
"409 51 CURVE",
"422 59 OFFCURVE",
"434 68 OFFCURVE",
"446 78 CURVE",
"413 117 LINE",
"372 84 OFFCURVE",
"312 62 OFFCURVE",
"262 62 CURVE SMOOTH",
"200 62 OFFCURVE",
"166 97 OFFCURVE",
"166 160 CURVE SMOOTH",
"166 173 OFFCURVE",
"167 188 OFFCURVE",
"170 210 CURVE",
"181 210 LINE"
);
}
);
width = 499;
}
);
unicode = 0119;
},
{
glyphname = eth;
lastChange = "2019-08-19 16:07:20 +0000";
layers = (
{
background = {
paths = (
{
closed = 1;
nodes = (
"168 519 LINE",
"324 574 LINE",
"354 544 OFFCURVE",
"374 508 OFFCURVE",
"383 461 CURVE",
"361 471 OFFCURVE",
"337 476 OFFCURVE",
"307 476 CURVE SMOOTH",
"155 476 OFFCURVE",
"42 365 OFFCURVE",
"42 164 CURVE SMOOTH",
"42 53 OFFCURVE",
"99 -7 OFFCURVE",
"218 -7 CURVE SMOOTH",
"453 -7 OFFCURVE",
"477 265 OFFCURVE",
"477 384 CURVE SMOOTH",
"477 480 OFFCURVE",
"449 547 OFFCURVE",
"394 599 CURVE",
"485 631 LINE",
"473 678 LINE",
"350 632 LINE",
"315 655 OFFCURVE",
"271 675 OFFCURVE",
"220 694 CURVE",
"196 651 LINE",
"229 637 OFFCURVE",
"258 623 OFFCURVE",
"283 606 CURVE",
"158 559 LINE"
);
},
{
closed = 1;
nodes = (
"350 97 OFFCURVE",
"308 39 OFFCURVE",
"223 39 CURVE SMOOTH",
"158 39 OFFCURVE",
"128 76 OFFCURVE",
"128 153 CURVE SMOOTH",
"128 327 OFFCURVE",
"208 434 OFFCURVE",
"297 434 CURVE SMOOTH",
"350 434 OFFCURVE",
"371 420 OFFCURVE",
"390 408 CURVE",
"390 354 OFFCURVE",
"386 316 OFFCURVE",
"380 278 CURVE SMOOTH"
);
}
);
};
layerId = "CF479DE4-94A2-4865-8D1E-65EA355866D4";
paths = (
{
closed = 1;
nodes = (
"324 574 LINE",
"354 544 OFFCURVE",
"374 508 OFFCURVE",
"383 461 CURVE",
"361 471 OFFCURVE",
"337 476 OFFCURVE",
"307 476 CURVE SMOOTH",
"155 476 OFFCURVE",
"42 365 OFFCURVE",
"42 164 CURVE SMOOTH",
"42 53 OFFCURVE",
"99 -7 OFFCURVE",
"218 -7 CURVE SMOOTH",
"453 -7 OFFCURVE",
"477 265 OFFCURVE",
"477 384 CURVE SMOOTH",
"477 480 OFFCURVE",
"449 547 OFFCURVE",
"394 599 CURVE",
"485 631 LINE",
"473 678 LINE",
"350 632 LINE",
"315 655 OFFCURVE",
"271 675 OFFCURVE",
"220 694 CURVE",
"196 651 LINE",
"229 637 OFFCURVE",
"258 623 OFFCURVE",
"283 606 CURVE",
"155 560 LINE",
"168 519 LINE"
);
},
{
closed = 1;
nodes = (
"350 97 OFFCURVE",
"308 39 OFFCURVE",
"223 39 CURVE SMOOTH",
"158 39 OFFCURVE",
"128 76 OFFCURVE",
"128 153 CURVE SMOOTH",
"128 327 OFFCURVE",
"208 434 OFFCURVE",
"297 434 CURVE SMOOTH",
"350 434 OFFCURVE",
"371 420 OFFCURVE",
"390 408 CURVE",
"390 354 OFFCURVE",
"386 316 OFFCURVE",
"380 278 CURVE SMOOTH",
"380 278 LINE"
);
}
);
width = 509;
},
{
background = {
paths = (
{
closed = 1;
nodes = (
"194 493 LINE",
"337 546 LINE",
"354 523 OFFCURVE",
"365 497 OFFCURVE",
"372 466 CURVE",
"343 473 OFFCURVE",
"315 477 OFFCURVE",
"288 477 CURVE SMOOTH",
"131 477 OFFCURVE",
"23 353 OFFCURVE",
"23 183 CURVE SMOOTH",
"23 61 OFFCURVE",
"99 -7 OFFCURVE",
"231 -7 CURVE SMOOTH",
"442 -7 OFFCURVE",
"522 153 OFFCURVE",
"522 352 CURVE SMOOTH",
"522 449 OFFCURVE",
"491 525 OFFCURVE",
"437 582 CURVE",
"509 609 LINE",
"481 685 LINE",
"363 641 LINE",
"321 667 OFFCURVE",
"272 686 OFFCURVE",
"218 700 CURVE",
"186 651 LINE",
"218 637 OFFCURVE",
"246 623 OFFCURVE",
"270 607 CURVE",
"166 569 LINE"
);
},
{
closed = 1;
nodes = (
"380 390 LINE SMOOTH",
"380 250 OFFCURVE",
"349 49 OFFCURVE",
"240 49 CURVE SMOOTH",
"189 49 OFFCURVE",
"168 94 OFFCURVE",
"168 165 CURVE SMOOTH",
"168 286 OFFCURVE",
"205 419 OFFCURVE",
"312 419 CURVE SMOOTH",
"332 419 OFFCURVE",
"354 414 OFFCURVE",
"380 404 CURVE"
);
},
{
closed = 1;
nodes = (
"181 519 LINE",
"337 574 LINE",
"367 544 OFFCURVE",
"387 508 OFFCURVE",
"396 461 CURVE",
"374 471 OFFCURVE",
"350 476 OFFCURVE",
"320 476 CURVE SMOOTH",
"168 476 OFFCURVE",
"55 365 OFFCURVE",
"55 164 CURVE SMOOTH",
"55 53 OFFCURVE",
"112 -7 OFFCURVE",
"231 -7 CURVE SMOOTH",
"466 -7 OFFCURVE",
"490 265 OFFCURVE",
"490 384 CURVE SMOOTH",
"490 480 OFFCURVE",
"462 547 OFFCURVE",
"407 599 CURVE",
"498 631 LINE",
"486 678 LINE",
"363 632 LINE",
"328 655 OFFCURVE",
"284 675 OFFCURVE",
"233 694 CURVE",
"209 651 LINE",
"242 637 OFFCURVE",
"271 623 OFFCURVE",
"296 606 CURVE",
"168 560 LINE"
);
},
{
closed = 1;
nodes = (
"363 97 OFFCURVE",
"321 39 OFFCURVE",
"236 39 CURVE SMOOTH",
"171 39 OFFCURVE",
"141 76 OFFCURVE",
"141 153 CURVE SMOOTH",
"141 327 OFFCURVE",
"221 434 OFFCURVE",
"310 434 CURVE SMOOTH",
"363 434 OFFCURVE",
"384 420 OFFCURVE",
"403 408 CURVE",
"403 354 OFFCURVE",
"399 316 OFFCURVE",
"393 278 CURVE SMOOTH"
);
},
{
closed = 1;
nodes = (
"189 507 LINE",
"504 621 LINE",
"480 685 LINE",
"166 569 LINE"
);
}
);
};
layerId = "0FAD76F5-9F58-4721-BF81-08BC6166EF10";
paths = (
{
closed = 1;
nodes = (
"343 473 OFFCURVE",
"315 477 OFFCURVE",
"288 477 CURVE SMOOTH",
"131 477 OFFCURVE",
"23 353 OFFCURVE",
"23 183 CURVE SMOOTH",
"23 61 OFFCURVE",
"99 -7 OFFCURVE",
"231 -7 CURVE SMOOTH",
"442 -7 OFFCURVE",
"522 153 OFFCURVE",
"522 352 CURVE SMOOTH",
"522 557 OFFCURVE",
"383 657 OFFCURVE",
"218 700 CURVE",
"186 651 LINE",
"277 609 OFFCURVE",
"345 577 OFFCURVE",
"372 466 CURVE",
"372 466 LINE"
);
},
{
closed = 1;
nodes = (
"380 250 OFFCURVE",
"349 49 OFFCURVE",
"240 49 CURVE SMOOTH",
"189 49 OFFCURVE",
"168 94 OFFCURVE",
"168 165 CURVE SMOOTH",
"168 286 OFFCURVE",
"205 419 OFFCURVE",
"312 419 CURVE SMOOTH",
"332 419 OFFCURVE",
"354 414 OFFCURVE",
"380 404 CURVE",
"380 390 LINE"
);
},
{
closed = 1;
nodes = (
"376 575 LINE",
"502 621 LINE",
"481 685 LINE",
"166 569 LINE",
"185 510 LINE"
);
}
);
width = 545;
}
);
unicode = 00F0;
},
{
glyphname = hbar;
lastChange = "2019-08-19 16:07:20 +0000";
layers = (
{
components = (
{
name = h;
},
{
name = macron;
transform = "{1, 0, 0, 1, 31, -45}";
}
);
layerId = "CF479DE4-94A2-4865-8D1E-65EA355866D4";
width = 530;
},
{
background = {
paths = (
{
closed = 1;
nodes = (
"45 511 LINE",
"117 511 LINE",
"36 0 LINE",
"177 0 LINE",
"208 196 LINE SMOOTH",
"226 310 OFFCURVE",
"294 425 OFFCURVE",
"342 425 CURVE SMOOTH",
"369 425 OFFCURVE",
"384 404 OFFCURVE",
"384 365 CURVE SMOOTH",
"384 354 OFFCURVE",
"384 342 OFFCURVE",
"380 320 CURVE SMOOTH",
"350 136 LINE SMOOTH",
"347 116 OFFCURVE",
"345 97 OFFCURVE",
"345 81 CURVE SMOOTH",
"345 27 OFFCURVE",
"365 -6 OFFCURVE",
"428 -6 CURVE SMOOTH",
"475 -6 OFFCURVE",
"542 22 OFFCURVE",
"568 48 CURVE",
"555 84 LINE",
"537 74 OFFCURVE",
"521 68 OFFCURVE",
"509 68 CURVE SMOOTH",
"495 68 OFFCURVE",
"487 76 OFFCURVE",
"487 92 CURVE SMOOTH",
"487 95 OFFCURVE",
"488 107 OFFCURVE",
"490 117 CURVE SMOOTH",
"521 321 LINE SMOOTH",
"525 349 OFFCURVE",
"526 359 OFFCURVE",
"526 369 CURVE SMOOTH",
"526 446 OFFCURVE",
"479 492 OFFCURVE",
"399 492 CURVE SMOOTH",
"333 492 OFFCURVE",
"280 458 OFFCURVE",
"239 395 CURVE",
"257 511 LINE",
"319 511 LINE",
"329 571 LINE",
"267 571 LINE",
"285 680 LINE",
"258 697 LINE",
"203 696 OFFCURVE",
"113 682 OFFCURVE",
"63 661 CURVE",
"66 622 LINE",
"74 623 OFFCURVE",
"81 624 OFFCURVE",
"87 624 CURVE SMOOTH",
"114 624 OFFCURVE",
"127 610 OFFCURVE",
"127 581 CURVE SMOOTH",
"127 577 OFFCURVE",
"127 574 OFFCURVE",
"126 571 CURVE",
"55 571 LINE"
);
}
);
};
components = (
{
name = macron;
transform = "{1, 0, 0, 1, -35, -65}";
},
{
name = h;
}
);
layerId = "0FAD76F5-9F58-4721-BF81-08BC6166EF10";
width = 580;
}
);
unicode = 0127;
},
{
glyphname = hcircumflex;
lastChange = "2019-08-19 16:07:20 +0000";
layers = (
{
background = {
paths = (
{
closed = 1;
nodes = (
"320 136 LINE SMOOTH",
"317 116 OFFCURVE",
"315 97 OFFCURVE",
"315 81 CURVE SMOOTH",
"315 27 OFFCURVE",
"335 -6 OFFCURVE",
"398 -6 CURVE SMOOTH",
"445 -6 OFFCURVE",
"512 22 OFFCURVE",
"538 48 CURVE",
"525 84 LINE",
"507 74 OFFCURVE",
"491 68 OFFCURVE",
"479 68 CURVE SMOOTH",
"465 68 OFFCURVE",
"457 76 OFFCURVE",
"457 92 CURVE SMOOTH",
"457 95 OFFCURVE",
"458 107 OFFCURVE",
"460 117 CURVE SMOOTH",
"491 321 LINE SMOOTH",
"495 349 OFFCURVE",
"496 359 OFFCURVE",
"496 369 CURVE SMOOTH",
"496 446 OFFCURVE",
"449 492 OFFCURVE",
"369 492 CURVE SMOOTH",
"303 492 OFFCURVE",
"250 458 OFFCURVE",
"209 395 CURVE",
"255 680 LINE",
"228 697 LINE",
"173 696 OFFCURVE",
"83 682 OFFCURVE",
"33 661 CURVE",
"36 622 LINE",
"44 623 OFFCURVE",
"51 624 OFFCURVE",
"57 624 CURVE SMOOTH",
"84 624 OFFCURVE",
"97 610 OFFCURVE",
"97 581 CURVE SMOOTH",
"97 574 OFFCURVE",
"96 567 OFFCURVE",
"95 559 CURVE SMOOTH",
"6 0 LINE",
"147 0 LINE",
"178 196 LINE SMOOTH",
"196 310 OFFCURVE",
"264 425 OFFCURVE",
"312 425 CURVE SMOOTH",
"339 425 OFFCURVE",
"354 404 OFFCURVE",
"354 365 CURVE SMOOTH",
"354 354 OFFCURVE",
"354 342 OFFCURVE",
"350 320 CURVE SMOOTH"
);
},
{
closed = 1;
nodes = (
"466 716 LINE",
"501 753 LINE",
"423 860 LINE SMOOTH",
"409 879 OFFCURVE",
"398 887 OFFCURVE",
"377 887 CURVE SMOOTH",
"353 887 OFFCURVE",
"335 879 OFFCURVE",
"315 860 CURVE SMOOTH",
"203 753 LINE",
"226 716 LINE",
"358 789 LINE"
);
}
);
};
components = (
{
name = h;
},
{
name = circumflex;
transform = "{1, 0, 0, 1, 208, 199}";
}
);
layerId = "CF479DE4-94A2-4865-8D1E-65EA355866D4";
width = 530;
},
{
components = (
{
name = h;
},
{
name = circumflex;
transform = "{1, 0, 0, 1, 163, 185}";
}
);
layerId = "0FAD76F5-9F58-4721-BF81-08BC6166EF10";
width = 580;
}
);
unicode = 0125;
},
{
glyphname = idieresis;
lastChange = "2019-08-19 16:07:20 +0000";
layers = (
{
components = (
{
name = dotlessi;
}
);
layerId = "CF479DE4-94A2-4865-8D1E-65EA355866D4";
paths = (
{
closed = 1;
nodes = (
"124 540 OFFCURVE",
"145 564 OFFCURVE",
"145 605 CURVE SMOOTH",
"145 629 OFFCURVE",
"130 645 OFFCURVE",
"103 645 CURVE SMOOTH",
"70 645 OFFCURVE",
"49 621 OFFCURVE",
"49 580 CURVE SMOOTH",
"49 555 OFFCURVE",
"64 540 OFFCURVE",
"91 540 CURVE SMOOTH",
"91 540 LINE"
);
},
{
closed = 1;
nodes = (
"261 540 OFFCURVE",
"282 564 OFFCURVE",
"282 605 CURVE SMOOTH",
"282 629 OFFCURVE",
"267 645 OFFCURVE",
"240 645 CURVE SMOOTH",
"207 645 OFFCURVE",
"186 621 OFFCURVE",
"186 580 CURVE SMOOTH",
"186 555 OFFCURVE",
"201 540 OFFCURVE",
"228 540 CURVE SMOOTH",
"228 540 LINE"
);
}
);
width = 271;
},
{
components = (
{
name = dotlessi;
},
{
name = dieresis;
transform = "{1, 0, 0, 1, -26, -3}";
}
);
layerId = "0FAD76F5-9F58-4721-BF81-08BC6166EF10";
width = 302;
}
);
unicode = 00EF;
},
{
glyphname = imacron;
lastChange = "2019-08-19 16:07:20 +0000";
layers = (
{
components = (
{
name = dotlessi;
}
);
layerId = "CF479DE4-94A2-4865-8D1E-65EA355866D4";
paths = (
{
closed = 1;
nodes = (
"267 550 LINE",
"274 594 LINE",
"37 594 LINE",
"30 550 LINE"
);
}
);
width = 271;
},
{
components = (
{
name = dotlessi;
}
);
layerId = "0FAD76F5-9F58-4721-BF81-08BC6166EF10";
paths = (
{
closed = 1;
nodes = (
"331 552 LINE",
"342 620 LINE",
"61 620 LINE",
"50 552 LINE"
);
}
);
width = 302;
}
);
unicode = 012B;
},
{
glyphname = iogonek;
lastChange = "2019-08-19 16:07:20 +0000";
layers = (
{
layerId = "CF479DE4-94A2-4865-8D1E-65EA355866D4";
paths = (
{
closed = 1;
nodes = (
"56 16 OFFCURVE",
"62 -6 OFFCURVE",
"110 -7 CURVE",
"76 -47 OFFCURVE",
"28 -90 OFFCURVE",
"28 -145 CURVE SMOOTH",
"28 -186 OFFCURVE",
"49 -204 OFFCURVE",
"86 -204 CURVE SMOOTH",
"125 -204 OFFCURVE",
"162 -186 OFFCURVE",
"190 -165 CURVE",
"173 -137 LINE",
"154 -147 OFFCURVE",
"128 -154 OFFCURVE",
"115 -154 CURVE SMOOTH",
"98 -154 OFFCURVE",
"89 -143 OFFCURVE",
"89 -125 CURVE SMOOTH",
"89 -68 OFFCURVE",
"153 0 OFFCURVE",
"227 49 CURVE",
"217 81 LINE",
"212 78 OFFCURVE",
"183 62 OFFCURVE",
"166 62 CURVE SMOOTH",
"150 62 OFFCURVE",
"147 68 OFFCURVE",
"147 84 CURVE SMOOTH",
"147 104 OFFCURVE",
"201 430 OFFCURVE",
"205 454 CURVE",
"193 473 LINE",
"193 473 OFFCURVE",
"182 476 OFFCURVE",
"166 476 CURVE SMOOTH",
"108 476 OFFCURVE",
"38 445 OFFCURVE",
"38 445 CURVE",
"43 413 LINE",
"55 414 OFFCURVE",
"65 415 OFFCURVE",
"74 415 CURVE SMOOTH",
"95 415 OFFCURVE",
"107 409 OFFCURVE",
"107 386 CURVE SMOOTH",
"107 374 OFFCURVE",
"56 74 OFFCURVE",
"56 45 CURVE SMOOTH",
"56 45 LINE"
);
},
{
closed = 1;
nodes = (
"206 531 OFFCURVE",
"229 558 OFFCURVE",
"229 602 CURVE SMOOTH",
"229 629 OFFCURVE",
"213 647 OFFCURVE",
"185 647 CURVE SMOOTH",
"150 647 OFFCURVE",
"127 620 OFFCURVE",
"127 576 CURVE SMOOTH",
"127 548 OFFCURVE",
"143 531 OFFCURVE",
"171 531 CURVE SMOOTH",
"171 531 LINE"
);
}
);
width = 271;
},
{
background = {
paths = (
{
closed = 1;
nodes = (
"72 136 LINE SMOOTH",
"69 116 OFFCURVE",
"67 97 OFFCURVE",
"67 81 CURVE SMOOTH",
"67 27 OFFCURVE",
"87 -6 OFFCURVE",
"150 -6 CURVE SMOOTH",
"197 -6 OFFCURVE",
"264 22 OFFCURVE",
"290 48 CURVE",
"277 84 LINE",
"259 74 OFFCURVE",
"243 68 OFFCURVE",
"231 68 CURVE SMOOTH",
"217 68 OFFCURVE",
"208 76 OFFCURVE",
"208 93 CURVE SMOOTH",
"208 102 OFFCURVE",
"211 117 OFFCURVE",
"212 123 CURVE SMOOTH",
"267 478 LINE",
"240 492 LINE",
"185 491 OFFCURVE",
"95 477 OFFCURVE",
"45 456 CURVE",
"48 417 LINE",
"56 418 OFFCURVE",
"63 419 OFFCURVE",
"69 419 CURVE SMOOTH",
"96 419 OFFCURVE",
"109 405 OFFCURVE",
"109 376 CURVE SMOOTH",
"109 369 OFFCURVE",
"108 362 OFFCURVE",
"107 354 CURVE SMOOTH"
);
},
{
closed = 1;
nodes = (
"258 550 OFFCURVE",
"291 581 OFFCURVE",
"291 634 CURVE SMOOTH",
"291 667 OFFCURVE",
"266 690 OFFCURVE",
"226 690 CURVE SMOOTH",
"176 690 OFFCURVE",
"143 659 OFFCURVE",
"143 606 CURVE SMOOTH",
"143 572 OFFCURVE",
"168 550 OFFCURVE",
"208 550 CURVE SMOOTH"
);
}
);
};
layerId = "0FAD76F5-9F58-4721-BF81-08BC6166EF10";
paths = (
{
closed = 1;
nodes = (
"95 -35 OFFCURVE",
"25 -78 OFFCURVE",
"25 -132 CURVE SMOOTH",
"25 -178 OFFCURVE",
"62 -204 OFFCURVE",
"107 -204 CURVE SMOOTH",
"146 -204 OFFCURVE",
"188 -188 OFFCURVE",
"219 -157 CURVE",
"199 -122 LINE",
"185 -132 OFFCURVE",
"162 -144 OFFCURVE",
"145 -144 CURVE SMOOTH",
"132 -144 OFFCURVE",
"122 -136 OFFCURVE",
"122 -115 CURVE SMOOTH",
"122 -43 OFFCURVE",
"226 21 OFFCURVE",
"290 46 CURVE",
"141 8 LINE"
);
},
{
closed = 1;
nodes = (
"69 116 OFFCURVE",
"67 97 OFFCURVE",
"67 81 CURVE SMOOTH",
"67 27 OFFCURVE",
"87 -6 OFFCURVE",
"150 -6 CURVE",
"290 46 LINE",
"277 84 LINE",
"259 74 OFFCURVE",
"243 68 OFFCURVE",
"231 68 CURVE SMOOTH",
"217 68 OFFCURVE",
"208 76 OFFCURVE",
"208 93 CURVE SMOOTH",
"208 102 OFFCURVE",
"211 117 OFFCURVE",
"212 123 CURVE SMOOTH",
"267 478 LINE",
"240 492 LINE",
"185 491 OFFCURVE",
"95 477 OFFCURVE",
"45 456 CURVE",
"48 417 LINE",
"56 418 OFFCURVE",
"63 419 OFFCURVE",
"69 419 CURVE SMOOTH",
"96 419 OFFCURVE",
"109 405 OFFCURVE",
"109 376 CURVE SMOOTH",
"109 369 OFFCURVE",
"108 362 OFFCURVE",
"107 354 CURVE SMOOTH",
"72 136 LINE"
);
},
{
closed = 1;
nodes = (
"258 550 OFFCURVE",
"291 581 OFFCURVE",
"291 634 CURVE SMOOTH",
"291 667 OFFCURVE",
"266 690 OFFCURVE",
"226 690 CURVE SMOOTH",
"176 690 OFFCURVE",
"143 659 OFFCURVE",
"143 606 CURVE SMOOTH",
"143 572 OFFCURVE",
"168 550 OFFCURVE",
"208 550 CURVE SMOOTH",
"208 550 LINE"
);
}
);
width = 302;
}
);
unicode = 012F;
},
{
glyphname = itilde;
lastChange = "2019-08-19 16:07:20 +0000";
layers = (
{
background = {
paths = (
{
closed = 1;
nodes = (
"78 551 OFFCURVE",
"100 569 OFFCURVE",
"125 569 CURVE SMOOTH",
"164 569 OFFCURVE",
"186 533 OFFCURVE",
"232 533 CURVE SMOOTH",
"280 533 OFFCURVE",
"324 587 OFFCURVE",
"340 613 CURVE",
"332 621 OFFCURVE",
"324 628 OFFCURVE",
"310 633 CURVE",
"289 614 OFFCURVE",
"267 594 OFFCURVE",
"240 594 CURVE SMOOTH",
"203 594 OFFCURVE",
"179 630 OFFCURVE",
"137 630 CURVE SMOOTH",
"85 630 OFFCURVE",
"43 578 OFFCURVE",
"28 552 CURVE",
"35 544 OFFCURVE",
"43 536 OFFCURVE",
"57 532 CURVE"
);
}
);
};
components = (
{
name = dotlessi;
}
);
layerId = "CF479DE4-94A2-4865-8D1E-65EA355866D4";
paths = (
{
closed = 1;
nodes = (
"62 551 OFFCURVE",
"82 569 OFFCURVE",
"105 569 CURVE SMOOTH",
"140 569 OFFCURVE",
"160 533 OFFCURVE",
"201 533 CURVE SMOOTH",
"245 533 OFFCURVE",
"285 587 OFFCURVE",
"299 613 CURVE",
"292 621 OFFCURVE",
"285 628 OFFCURVE",
"272 633 CURVE",
"253 614 OFFCURVE",
"233 594 OFFCURVE",
"209 594 CURVE SMOOTH",
"175 594 OFFCURVE",
"153 630 OFFCURVE",
"116 630 CURVE SMOOTH",
"69 630 OFFCURVE",
"31 578 OFFCURVE",
"17 552 CURVE",
"23 544 OFFCURVE",
"31 536 OFFCURVE",
"43 532 CURVE",
"43 532 LINE"
);
}
);
width = 271;
},
{
components = (
{
name = dotlessi;
}
);
layerId = "0FAD76F5-9F58-4721-BF81-08BC6166EF10";
paths = (
{
closed = 1;
nodes = (
"208 624 OFFCURVE",
"175 664 OFFCURVE",
"137 664 CURVE SMOOTH",
"94 664 OFFCURVE",
"52 626 OFFCURVE",
"19 570 CURVE",
"29 555 OFFCURVE",
"51 543 OFFCURVE",
"64 538 CURVE",
"84 562 OFFCURVE",
"106 576 OFFCURVE",
"125 576 CURVE SMOOTH",
"162 576 OFFCURVE",
"196 537 OFFCURVE",
"234 537 CURVE SMOOTH",
"277 537 OFFCURVE",
"319 576 OFFCURVE",
"351 632 CURVE",
"341 646 OFFCURVE",
"319 658 OFFCURVE",
"306 663 CURVE",
"287 640 OFFCURVE",
"264 624 OFFCURVE",
"245 624 CURVE SMOOTH",
"245 624 LINE"
);
}
);
width = 302;
}
);
unicode = 0129;
},
{
glyphname = kgreenlandic;
lastChange = "2019-08-19 16:07:20 +0000";
layers = (
{
layerId = "CF479DE4-94A2-4865-8D1E-65EA355866D4";
paths = (
{
closed = 1;
nodes = (
"157 211 LINE",
"180 219 OFFCURVE",
"201 228 OFFCURVE",
"221 237 CURVE",
"311 45 LINE SMOOTH",
"324 16 OFFCURVE",
"334 -7 OFFCURVE",
"367 -7 CURVE SMOOTH",
"407 -7 OFFCURVE",
"449 30 OFFCURVE",
"471 49 CURVE",
"461 81 LINE",
"456 78 OFFCURVE",
"427 62 OFFCURVE",
"410 62 CURVE SMOOTH",
"394 62 OFFCURVE",
"391 74 OFFCURVE",
"385 86 CURVE SMOOTH",
"289 271 LINE",
"453 363 OFFCURVE",
"453 450 OFFCURVE",
"453 454 CURVE",
"442 473 LINE",
"442 473 OFFCURVE",
"431 476 OFFCURVE",
"415 476 CURVE SMOOTH",
"357 476 OFFCURVE",
"312 455 OFFCURVE",
"312 455 CURVE",
"316 423 LINE",
"330 422 OFFCURVE",
"339 414 OFFCURVE",
"339 401 CURVE SMOOTH",
"339 371 OFFCURVE",
"293 316 OFFCURVE",
"166 266 CURVE",
"196 454 LINE",
"184 473 LINE",
"184 473 OFFCURVE",
"173 476 OFFCURVE",
"157 476 CURVE SMOOTH",
"99 476 OFFCURVE",
"29 445 OFFCURVE",
"29 445 CURVE",
"34 413 LINE",
"46 414 OFFCURVE",
"56 415 OFFCURVE",
"65 415 CURVE SMOOTH",
"86 415 OFFCURVE",
"98 409 OFFCURVE",
"98 386 CURVE SMOOTH",
"98 378 OFFCURVE",
"37 0 OFFCURVE",
"37 0 CURVE",
"123 0 LINE"
);
}
);
width = 502;
},
{
layerId = "0FAD76F5-9F58-4721-BF81-08BC6166EF10";
paths = (
{
closed = 1;
nodes = (
"206 207 LINE",
"220 212 OFFCURVE",
"234 217 OFFCURVE",
"249 224 CURVE",
"315 80 LINE SMOOTH",
"343 18 OFFCURVE",
"381 -7 OFFCURVE",
"418 -7 CURVE SMOOTH",
"465 -7 OFFCURVE",
"511 33 OFFCURVE",
"533 86 CURVE",
"506 114 LINE",
"496 103 OFFCURVE",
"484 97 OFFCURVE",
"472 97 CURVE SMOOTH",
"458 97 OFFCURVE",
"444 105 OFFCURVE",
"434 127 CURVE SMOOTH",
"360 281 LINE",
"442 332 OFFCURVE",
"512 397 OFFCURVE",
"524 468 CURVE",
"513 487 LINE",
"513 487 OFFCURVE",
"502 490 OFFCURVE",
"486 490 CURVE SMOOTH",
"416 490 OFFCURVE",
"363 469 OFFCURVE",
"363 469 CURVE",
"367 437 LINE",
"391 436 OFFCURVE",
"406 429 OFFCURVE",
"406 418 CURVE SMOOTH",
"406 378 OFFCURVE",
"354 347 OFFCURVE",
"326 330 CURVE SMOOTH",
"298 313 OFFCURVE",
"263 296 OFFCURVE",
"218 281 CURVE",
"248 475 LINE",
"221 489 LINE",
"156 489 OFFCURVE",
"73 473 OFFCURVE",
"26 453 CURVE",
"29 414 LINE",
"37 415 OFFCURVE",
"44 416 OFFCURVE",
"50 416 CURVE SMOOTH",
"77 416 OFFCURVE",
"90 402 OFFCURVE",
"90 373 CURVE SMOOTH",
"90 366 OFFCURVE",
"89 359 OFFCURVE",
"88 351 CURVE SMOOTH",
"33 0 LINE",
"174 0 LINE"
);
}
);
width = 544;
}
);
unicode = 0138;
},
{
glyphname = lcaron;
lastChange = "2019-08-19 16:07:20 +0000";
layers = (
{
components = (
{
name = l;
},
{
name = commaaccent;
transform = "{1, 0, 0, 1, 205, 700}";
}
);
layerId = "CF479DE4-94A2-4865-8D1E-65EA355866D4";
width = 377;
},
{
background = {
paths = (
{
closed = 1;
nodes = (
"374 479 LINE",
"419 528 OFFCURVE",
"450 580 OFFCURVE",
"456 616 CURVE SMOOTH",
"461 646 OFFCURVE",
"440 667 OFFCURVE",
"407 667 CURVE SMOOTH",
"387 667 OFFCURVE",
"362 656 OFFCURVE",
"350 641 CURVE",
"364 627 OFFCURVE",
"367 611 OFFCURVE",
"363 587 CURVE SMOOTH",
"359 563 OFFCURVE",
"348 531 OFFCURVE",
"332 498 CURVE"
);
},
{
closed = 1;
nodes = (
"257 39 LINE",
"229 45 OFFCURVE",
"208 57 OFFCURVE",
"199 66 CURVE",
"297 687 LINE",
"281 697 LINE",
"241 686 OFFCURVE",
"136 671 OFFCURVE",
"92 663 CURVE",
"83 624 LINE",
"129 622 OFFCURVE",
"143 608 OFFCURVE",
"135 558 CURVE SMOOTH",
"57 66 LINE",
"38 51 OFFCURVE",
"26 46 OFFCURVE",
"2 41 CURVE",
"-9 0 LINE",
"248 0 LINE"
);
}
);
};
components = (
{
name = l;
},
{
name = commaaccent;
transform = "{1, 0, 0, 1, 309, 696}";
}
);
layerId = "0FAD76F5-9F58-4721-BF81-08BC6166EF10";
width = 525;
}
);
unicode = 013E;
},
{
glyphname = lslash;
lastChange = "2019-08-19 16:07:20 +0000";
layers = (
{
components = (
{
name = l;
}
);
layerId = "CF479DE4-94A2-4865-8D1E-65EA355866D4";
paths = (
{
closed = 1;
nodes = (
"278 381 LINE",
"258 428 LINE",
"-31 274 LINE",
"-13 228 LINE"
);
}
);
width = 295;
},
{
background = {
paths = (
{
closed = 1;
nodes = (
"33 207 LINE",
"89 237 LINE",
"73 136 LINE SMOOTH",
"70 113 OFFCURVE",
"68 95 OFFCURVE",
"68 81 CURVE SMOOTH",
"68 21 OFFCURVE",
"94 -6 OFFCURVE",
"151 -6 CURVE SMOOTH",
"195 -6 OFFCURVE",
"263 20 OFFCURVE",
"291 48 CURVE",
"278 84 LINE",
"259 73 OFFCURVE",
"243 68 OFFCURVE",
"232 68 CURVE SMOOTH",
"217 68 OFFCURVE",
"209 77 OFFCURVE",
"209 93 CURVE SMOOTH",
"209 96 OFFCURVE",
"211 113 OFFCURVE",
"213 122 CURVE",
"243 320 LINE",
"343 373 LINE",
"315 425 LINE",
"255 393 LINE",
"300 682 LINE",
"273 696 LINE",
"209 694 OFFCURVE",
"122 678 OFFCURVE",
"78 660 CURVE",
"81 621 LINE",
"95 623 OFFCURVE",
"98 623 OFFCURVE",
"102 623 CURVE SMOOTH",
"129 623 OFFCURVE",
"142 609 OFFCURVE",
"142 580 CURVE SMOOTH",
"142 575 OFFCURVE",
"142 571 OFFCURVE",
"140 558 CURVE SMOOTH",
"100 310 LINE",
"5 259 LINE"
);
},
{
closed = 1;
nodes = (
"25 214 LINE",
"385 401 LINE",
"362 460 LINE",
"1 274 LINE"
);
}
);
};
components = (
{
name = l;
transform = "{1, 0, 0, 1, 5, 0}";
}
);
layerId = "0FAD76F5-9F58-4721-BF81-08BC6166EF10";
paths = (
{
closed = 1;
nodes = (
"340 378 LINE",
"317 437 LINE",
"1 274 LINE",
"25 214 LINE"
);
}
);
width = 333;
}
);
unicode = 0142;
},
